<?xml version="1.0" encoding="UTF-8" standalone="no"?>
<!-- Created with Inkscape (http://www.inkscape.org/) -->

<svg
   xmlns:dc="http://purl.org/dc/elements/1.1/"
   xmlns:cc="http://creativecommons.org/ns#"
   xmlns:rdf="http://www.w3.org/1999/02/22-rdf-syntax-ns#"
   xmlns:svg="http://www.w3.org/2000/svg"
   xmlns="http://www.w3.org/2000/svg"
   xmlns:sodipodi="http://sodipodi.sourceforge.net/DTD/sodipodi-0.dtd"
   xmlns:inkscape="http://www.inkscape.org/namespaces/inkscape"
   width="130mm"
   height="60mm"
   id="svg2691"
   sodipodi:version="0.32"
   inkscape:version="0.48.4 r9939"
   sodipodi:docname="model_photodiode.svg"
   inkscape:output_extension="org.inkscape.output.svg.inkscape"
   version="1.0">
  <defs
     id="defs2693">
    <marker
       inkscape:stockid="Arrow1Send"
       orient="auto"
       refY="0"
       refX="0"
       id="Arrow1Send"
       style="overflow:visible">
      <path
         id="path3517"
         d="M 0,0 L 5,-5 L -12.5,0 L 5,5 L 0,0 z"
         style="fill-rule:evenodd;stroke:#000000;stroke-width:1pt;marker-start:none"
         transform="matrix(-0.2,0,0,-0.2,-1.2,0)" />
    </marker>
    <marker
       inkscape:stockid="Arrow1Mend"
       orient="auto"
       refY="0"
       refX="0"
       id="Arrow1Mend"
       style="overflow:visible">
      <path
         id="path3511"
         d="M 0,0 L 5,-5 L -12.5,0 L 5,5 L 0,0 z"
         style="fill-rule:evenodd;stroke:#000000;stroke-width:1pt;marker-start:none"
         transform="matrix(-0.4,0,0,-0.4,-4,0)" />
    </marker>
    <inkscape:perspective
       sodipodi:type="inkscape:persp3d"
       inkscape:vp_x="0 : 526.18109 : 1"
       inkscape:vp_y="0 : 1000 : 0"
       inkscape:vp_z="744.09448 : 526.18109 : 1"
       inkscape:persp3d-origin="372.04724 : 350.78739 : 1"
       id="perspective2699" />
    <inkscape:perspective
       id="perspective5384"
       inkscape:persp3d-origin="372.04724 : 350.78739 : 1"
       inkscape:vp_z="744.09448 : 526.18109 : 1"
       inkscape:vp_y="0 : 1000 : 0"
       inkscape:vp_x="0 : 526.18109 : 1"
       sodipodi:type="inkscape:persp3d" />
    <inkscape:perspective
       id="perspective5399"
       inkscape:persp3d-origin="372.04724 : 350.78739 : 1"
       inkscape:vp_z="744.09448 : 526.18109 : 1"
       inkscape:vp_y="0 : 1000 : 0"
       inkscape:vp_x="0 : 526.18109 : 1"
       sodipodi:type="inkscape:persp3d" />
    <inkscape:perspective
       id="perspective5416"
       inkscape:persp3d-origin="372.04724 : 350.78739 : 1"
       inkscape:vp_z="744.09448 : 526.18109 : 1"
       inkscape:vp_y="0 : 1000 : 0"
       inkscape:vp_x="0 : 526.18109 : 1"
       sodipodi:type="inkscape:persp3d" />
  </defs>
  <sodipodi:namedview
     id="base"
     pagecolor="#ffffff"
     bordercolor="#666666"
     borderopacity="1.0"
     inkscape:pageopacity="0.0"
     inkscape:pageshadow="2"
     inkscape:zoom="3.7121945"
     inkscape:cx="132.36219"
     inkscape:cy="78.569048"
     inkscape:document-units="px"
     inkscape:current-layer="layer1"
     showgrid="false"
     inkscape:window-width="898"
     inkscape:window-height="667"
     inkscape:window-x="49"
     inkscape:window-y="24"
     inkscape:window-maximized="0" />
  <metadata
     id="metadata2696">
    <rdf:RDF>
      <cc:Work
         rdf:about="">
        <dc:format>image/svg+xml</dc:format>
        <dc:type
           rdf:resource="http://purl.org/dc/dcmitype/StillImage" />
      </cc:Work>
    </rdf:RDF>
  </metadata>
  <g
     inkscape:label="Calque 1"
     inkscape:groupmode="layer"
     id="layer1">
    <g
       id="g4288"
       transform="translate(51.059917,6.3953731)">
      <g
         id="g4283">
        <path
           style="fill:none;fill-rule:evenodd;stroke:#000000;stroke-width:2;stroke-linecap:butt;stroke-linejoin:miter;stroke-miterlimit:4;stroke-dasharray:none;stroke-opacity:1"
           d="M 77.258121,40.598299 C 77.258121,194.05621 77.258121,194.05621 77.258121,194.05621"
           id="path2701" />
        <path
           style="fill:#000000;fill-opacity:1;fill-rule:evenodd;stroke:#000000;stroke-width:1px;stroke-linecap:butt;stroke-linejoin:miter;stroke-opacity:1"
           d="M 77.426391,101.51603 L 56.259783,133.26594 L 98.25646,133.26594 L 77.426391,101.51603 z"
           id="path2703"
           sodipodi:nodetypes="cccc" />
        <path
           style="fill:none;fill-rule:evenodd;stroke:#000000;stroke-width:3;stroke-linecap:butt;stroke-linejoin:miter;stroke-miterlimit:4;stroke-dasharray:none;stroke-opacity:1"
           d="M 52.917755,101.13964 C 52.514792,101.47618 101.60095,101.05108 101.60095,101.05108"
           id="path2705"
           sodipodi:nodetypes="cc" />
      </g>
      <g
         transform="translate(5.3403619,-23.734942)"
         id="g4279">
        <path
           style="fill:none;stroke:#000000;stroke-width:2;stroke-linecap:butt;stroke-linejoin:miter;stroke-miterlimit:4;stroke-opacity:1;stroke-dasharray:none;marker-end:url(#Arrow1Mend)"
           d="m 21.072429,118.8109 20.768074,13.64759"
           id="path3497"
           inkscape:connector-curvature="0"
           sodipodi:nodetypes="cc" />
        <path
           style="fill:none;stroke:#000000;stroke-width:2;stroke-linecap:butt;stroke-linejoin:miter;stroke-miterlimit:4;stroke-opacity:1;stroke-dasharray:none;marker-end:url(#Arrow1Mend)"
           d="m 21.072429,136.78432 20.768074,13.64759"
           id="path4277"
           inkscape:connector-curvature="0"
           sodipodi:nodetypes="cc" />
      </g>
    </g>
    <g
       id="g4305"
       transform="translate(51.059917,0.3953731)">
      <path
         id="path4297"
         d="M 131.13521,110.085 C 164.9575,110.085 164.36413,110.085 164.36413,110.085"
         style="fill:none;fill-rule:evenodd;stroke:#000000;stroke-width:2;stroke-linecap:butt;stroke-linejoin:miter;stroke-miterlimit:4;stroke-dasharray:none;stroke-opacity:1" />
      <path
         id="path4301"
         d="M 131.13521,135.00669 C 164.9575,135.00669 164.36413,135.00669 164.36413,135.00669"
         style="fill:none;fill-rule:evenodd;stroke:#000000;stroke-width:2;stroke-linecap:butt;stroke-linejoin:miter;stroke-miterlimit:4;stroke-dasharray:none;stroke-opacity:1" />
      <path
         id="path4303"
         d="M 131.13521,122.54586 C 164.9575,122.54586 164.36413,122.54586 164.36413,122.54586"
         style="fill:none;fill-rule:evenodd;stroke:#000000;stroke-width:2;stroke-linecap:butt;stroke-linejoin:miter;stroke-miterlimit:4;stroke-dasharray:none;stroke-opacity:1" />
    </g>
    <g
       id="g5362"
       transform="translate(51.059917,6.3953731)">
      <g
         transform="translate(-0.5288223,28.958615)"
         id="g4316">
        <path
           sodipodi:type="arc"
           style="opacity:1;fill:none;fill-opacity:1;fill-rule:nonzero;stroke:#000000;stroke-width:3;stroke-miterlimit:4;stroke-dasharray:none;stroke-dashoffset:0;stroke-opacity:1"
           id="path4310"
           sodipodi:cx="221.32834"
           sodipodi:cy="77.449455"
           sodipodi:rx="19.581327"
           sodipodi:ry="19.581327"
           d="m 240.90967,77.449455 c 0,10.814469 -8.76686,19.581328 -19.58133,19.581328 -10.81447,0 -19.58133,-8.766859 -19.58133,-19.581328 0,-10.814468 8.76686,-19.581327 19.58133,-19.581327 10.81447,0 19.58133,8.766859 19.58133,19.581327 z"
           transform="translate(-0.5933813,0)" />
        <path
           sodipodi:type="arc"
           style="opacity:1;fill:none;fill-opacity:1;fill-rule:nonzero;stroke:#000000;stroke-width:3;stroke-miterlimit:4;stroke-dasharray:none;stroke-dashoffset:0;stroke-opacity:1"
           id="path4314"
           sodipodi:cx="221.32834"
           sodipodi:cy="77.449455"
           sodipodi:rx="19.581327"
           sodipodi:ry="19.581327"
           d="m 240.90967,77.449455 c 0,10.814469 -8.76686,19.581328 -19.58133,19.581328 -10.81447,0 -19.58133,-8.766859 -19.58133,-19.581328 0,-10.814468 8.76686,-19.581327 19.58133,-19.581327 10.81447,0 19.58133,8.766859 19.58133,19.581327 z"
           transform="translate(-0.5933813,21.954815)" />
      </g>
      <path
         id="path4320"
         d="M 220.00503,194.06101 C 220.40724,36.397439 220.40724,36.397439 220.40724,36.397439"
         style="fill:none;fill-rule:evenodd;stroke:#000000;stroke-width:2;stroke-linecap:butt;stroke-linejoin:miter;stroke-miterlimit:4;stroke-dasharray:none;stroke-opacity:1" />
      <path
         sodipodi:nodetypes="cc"
         id="path4322"
         d="M 220.33245,147.00326 C 220.73466,146.60106 220.13303,92.290191 220.13303,92.290191"
         style="fill:none;fill-rule:evenodd;stroke:#000000;stroke-width:3;stroke-linecap:butt;stroke-linejoin:miter;marker-end:url(#Arrow1Send);stroke-miterlimit:4;stroke-dasharray:none;stroke-opacity:1" />
    </g>
    <path
       style="fill:none;fill-rule:evenodd;stroke:#000000;stroke-width:2;stroke-linecap:butt;stroke-linejoin:miter;stroke-miterlimit:4;stroke-dasharray:none;stroke-opacity:1"
       d="M 271.42457,44.005306 L 352.39577,44.005306 C 352.39577,103.45251 352.39577,103.45251 352.39577,103.45251"
       id="path5369"
       sodipodi:nodetypes="cc" />
    <path
       style="fill:none;fill-rule:evenodd;stroke:#000000;stroke-width:3;stroke-linecap:butt;stroke-linejoin:miter;stroke-miterlimit:4;stroke-dasharray:none;stroke-opacity:1"
       d="M 382.11937,102.47746 C 323.69712,102.47746 323.69712,102.47746 323.69712,102.47746"
       id="path5371" />
    <path
       style="fill:none;fill-rule:evenodd;stroke:#000000;stroke-width:3;stroke-linecap:butt;stroke-linejoin:miter;stroke-miterlimit:4;stroke-dasharray:none;stroke-opacity:1"
       d="M 381.58436,127.51107 C 323.16211,127.51107 323.16211,127.51107 323.16211,127.51107"
       id="path5373" />
    <path
       style="fill:none;fill-rule:evenodd;stroke:#000000;stroke-width:2;stroke-linecap:butt;stroke-linejoin:miter;stroke-miterlimit:4;stroke-dasharray:none;stroke-opacity:1"
       d="M 352.37324,128.45267 C 352.37324,198.13138 352.37324,201.36397 352.37324,201.36397"
       id="path5375"
       sodipodi:nodetypes="cc" />
    <path
       style="fill:#000000"
       d="M 47.575037,133.76476 L 47.575037,133.36105 L 48.250239,133.31638 C 49.375965,133.24193 49.281929,133.92811 49.281929,125.78819 C 49.281929,117.66509 49.376811,118.36146 48.257215,118.2677 L 47.575037,118.21057 L 47.575037,117.79286 L 47.575037,117.37515 L 48.878912,117.30495 C 49.596044,117.26635 50.364146,117.20822 50.585804,117.17579 L 50.988821,117.11682 L 50.988821,117.9006 C 50.988821,118.33167 51.009291,118.68437 51.034309,118.68437 C 51.059333,118.68437 51.304697,118.48419 51.579566,118.23951 C 53.909516,116.16551 57.511736,117.19805 58.947666,120.35152 C 59.545996,121.66552 59.703696,123.52715 59.335026,124.92428 C 58.333536,128.71964 53.983636,130.47715 51.44481,128.11221 C 51.252289,127.93287 51.070931,127.78614 51.041797,127.78614 C 50.937655,127.78614 50.987254,132.40962 51.095285,132.77237 C 51.224995,133.2079 51.482354,133.33599 52.227748,133.33599 L 52.790542,133.33599 L 52.790542,133.75223 L 52.790542,134.16847 L 50.182788,134.16847 L 47.575037,134.16847 L 47.575037,133.76476 z M 55.336826,128.06187 C 56.775406,127.14538 57.604956,125.15312 57.508016,122.84747 C 57.406346,120.42924 56.379926,118.59636 54.832696,118.07015 C 54.345636,117.90451 54.181926,117.89617 53.65378,118.01008 C 52.784911,118.19748 52.112386,118.62107 51.509916,119.36039 L 50.988821,119.99986 L 50.988821,123.016 C 50.988821,126.47203 50.983421,126.44302 51.806274,127.40618 C 52.487242,128.20328 53.072512,128.46485 54.071886,128.41874 C 54.695796,128.38996 54.922016,128.32613 55.336826,128.06187 z M 39.751777,129.15876 C 37.904224,128.82592 36.395573,127.57448 35.612809,125.72544 C 35.211666,124.77786 35.199466,124.71717 35.166631,123.50647 C 35.141408,122.57651 35.17316,122.09711 35.292191,121.61078 C 35.774503,119.64009 37.148114,117.99695 38.855687,117.34805 C 39.750505,117.00799 41.153909,116.97996 42.027636,117.28468 C 44.614556,118.18687 46.288853,121.16876 45.881098,124.14764 C 45.57227,126.40382 44.039565,128.33899 42.074333,128.954 C 41.516608,129.12854 40.219028,129.24293 39.751777,129.15876 z M 41.795572,128.12711 C 42.66258,127.7415 43.231309,127.03807 43.603786,125.89063 C 44.015741,124.6216 44.005395,121.50899 43.584796,120.17676 C 43.434885,119.70192 43.227211,119.34217 42.844289,118.89394 C 42.168426,118.10283 41.5168,117.7964 40.510399,117.7964 C 39.57792,117.7964 38.908715,118.09346 38.247355,118.80098 C 37.356053,119.75449 37.098657,120.85422 37.16651,123.41891 C 37.222321,125.52844 37.408592,126.27888 38.094438,127.15727 C 39.030991,128.35673 40.445755,128.72746 41.795572,128.12711 z M 65.292416,129.08185 C 64.153766,128.78139 63.356996,127.86797 63.142366,126.61702 C 63.070936,126.20068 63.031896,124.60688 63.031896,122.10678 L 63.031896,118.24039 L 61.988796,118.24039 L 60.945696,118.24039 L 60.945696,117.86699 C 60.945696,117.50658 60.961096,117.49112 61.388446,117.42255 C 62.225596,117.28824 62.979366,116.57247 63.464996,115.45072 C 63.764776,114.75828 64.074996,113.37373 64.074996,112.72828 C 64.074996,112.25172 64.078566,112.24655 64.406896,112.24655 L 64.738786,112.24655 L 64.738786,114.79948 L 64.738786,117.35241 L 66.493096,117.35241 L 68.247406,117.35241 L 68.247406,117.7964 L 68.247406,118.24039 L 66.487856,118.24039 L 64.728326,118.24039 L 64.762636,122.43053 C 64.799776,126.96779 64.821296,127.17616 65.321586,127.84312 C 66.124856,128.91401 67.428276,128.38731 67.828676,126.83002 C 67.905136,126.53262 67.962916,125.83774 67.962916,125.21557 L 67.962916,124.12323 L 68.306026,124.12323 L 68.649136,124.12323 L 68.608716,125.53844 C 68.564766,127.07748 68.433906,127.60456 67.918576,128.31824 C 67.365646,129.084 66.383186,129.36967 65.292416,129.08185 z M 14.195787,122.80977 C 14.059821,122.7567 14.078587,122.06219 14.219512,121.93178 C 14.284708,121.87145 14.807254,121.78804 15.380727,121.74643 C 17.26643,121.6096 17.497565,121.45055 17.840283,120.05399 C 17.957728,119.57543 19.113563,114.21397 20.408807,108.13965 C 22.046955,100.45722 22.744511,97.006251 22.700437,96.802441 C 22.665589,96.641291 22.562033,96.471601 22.47031,96.425351 C 22.37859,96.379091 21.748806,96.286171 21.070789,96.218861 L 19.838034,96.096471 L 19.81333,95.763481 C 19.76078,95.055161 19.341943,95.097491 26.401409,95.097491 C 33.706616,95.097491 33.607491,95.087381 35.22645,95.998051 C 36.385907,96.650251 37.152135,97.513351 37.673965,98.75499 L 38.044885,99.63756 L 38.043861,101.14143 C 38.042923,102.51417 38.021051,102.70606 37.793005,103.34222 C 37.388763,104.46991 36.952573,105.23407 36.195753,106.14048 C 34.730729,107.89507 32.943596,109.02644 30.647542,109.65288 C 30.124917,109.79547 29.2127,109.8483 26.338616,109.90242 L 22.692669,109.9711 L 21.521798,115.46546 C 20.27188,121.33076 20.270648,121.34082 20.774679,121.56513 C 20.899955,121.62088 21.518253,121.70181 22.148677,121.74497 C 23.115066,121.81113 23.303055,121.85353 23.346895,122.01521 C 23.403985,122.22576 23.25264,122.78695 23.135632,122.79856 C 22.838733,122.82803 14.270116,122.83877 14.195787,122.80977 z M 29.656655,108.76318 C 31.655268,108.22693 33.014112,107.21365 33.909711,105.5917 C 34.598613,104.34409 35.136032,102.31154 35.220909,100.63267 C 35.287637,99.31277 35.102892,98.57805 34.510293,97.806541 C 33.544559,96.549261 32.67152,96.266031 29.503473,96.182271 C 28.247925,96.149071 26.933961,96.157841 26.583547,96.201771 C 25.472664,96.341021 25.630102,95.911811 24.145572,102.84829 C 23.43236,106.1808 22.875484,108.94012 22.908079,108.98013 C 22.94067,109.02013 24.332848,109.02513 26.001813,108.99125 C 28.196257,108.94669 29.208021,108.88356 29.656655,108.76318 z"
       id="path5390" />
    <path
       style="fill:#000000"
       d="M 270.23615,33.756541 C 270.23615,33.624934 270.45583,33.488818 270.72433,33.454066 L 271.21252,33.390876 L 271.21252,27.946321 L 271.21252,22.501765 L 270.72433,22.438575 C 270.42194,22.399438 270.23615,22.265134 270.23615,22.085691 C 270.23615,21.8695 270.44267,21.795991 271.05003,21.795991 C 271.49765,21.795991 271.97082,21.740913 272.10151,21.673589 C 272.28743,21.577817 272.33911,21.690463 272.33911,22.191447 L 272.33911,22.831703 L 272.75357,22.435523 C 274.31911,20.93902 276.50752,21.72709 277.37182,24.098611 C 277.72543,25.068848 277.77003,25.379903 277.68255,26.265271 C 277.47534,28.362149 276.54239,29.782401 275.0582,30.260378 C 274.20872,30.533953 273.36434,30.310375 272.73425,29.64503 L 272.33911,29.227774 L 272.33911,31.117756 C 272.33911,33.181214 272.44127,33.491703 273.12021,33.491703 C 273.35655,33.491703 273.54081,33.602131 273.54081,33.743765 C 273.54081,33.930138 273.1102,33.995827 271.88847,33.995827 C 270.71381,33.995827 270.23615,33.926655 270.23615,33.756541 z M 274.95794,29.663341 C 276.46325,28.676657 276.93252,25.656774 275.92172,23.461208 C 275.24522,21.991762 273.80266,21.785662 272.85199,23.022622 L 272.33911,23.689956 L 272.33911,25.976472 C 272.33911,28.616711 272.48159,29.088311 273.45941,29.684562 C 274.21842,30.147399 274.21947,30.147383 274.95794,29.663341 z M 353.90413,33.756541 C 353.90413,33.624934 354.12382,33.488818 354.39232,33.454066 L 354.8805,33.390876 L 354.8805,27.946321 L 354.8805,22.501765 L 354.39232,22.438575 C 354.08992,22.399438 353.90413,22.265134 353.90413,22.085691 C 353.90413,21.8695 354.11065,21.795991 354.718,21.795991 C 355.16565,21.795991 355.63881,21.740913 355.76949,21.673589 C 355.95541,21.577817 356.00709,21.690463 356.00709,22.191447 L 356.00709,22.831703 L 356.42155,22.435523 C 357.9871,20.93902 360.1755,21.72709 361.0398,24.098611 C 361.39342,25.068848 361.43802,25.379903 361.35054,26.265271 C 361.14332,28.362149 360.21038,29.782401 358.72618,30.260378 C 357.87669,30.533953 357.03231,30.310375 356.40224,29.64503 L 356.00709,29.227774 L 356.00709,31.117756 C 356.00709,33.181214 356.10925,33.491703 356.78819,33.491703 C 357.02453,33.491703 357.20879,33.602131 357.20879,33.743765 C 357.20879,33.930138 356.77818,33.995827 355.55646,33.995827 C 354.38179,33.995827 353.90413,33.926655 353.90413,33.756541 z M 358.62592,29.663341 C 360.13123,28.676657 360.6005,25.656774 359.5897,23.461208 C 358.9132,21.991762 357.47065,21.785662 356.51998,23.022622 L 356.00709,23.689956 L 356.00709,25.976472 C 356.00709,28.616711 356.14958,29.088311 357.12739,29.684562 C 357.8864,30.147399 357.88746,30.147383 358.62592,29.663341 z M 348.64672,30.280298 C 347.86068,30.064181 347.22425,29.552814 346.72075,28.732792 C 344.99945,25.929474 346.60912,21.701886 349.39777,21.701886 C 352.18737,21.701886 353.79606,25.929526 352.07379,28.734437 C 351.2983,29.997413 349.90449,30.626127 348.64672,30.280298 z M 350.57095,29.453528 C 351.2776,28.875161 351.55864,27.868021 351.55861,25.914105 C 351.55857,23.373637 350.84525,22.121729 349.39777,22.121729 C 348.53274,22.121729 347.99108,22.557556 347.52089,23.631921 C 347.13508,24.513472 347.11338,27.160307 347.48266,28.294794 C 347.79897,29.266567 348.52545,29.860491 349.39777,29.860491 C 349.81136,29.860491 350.26672,29.702529 350.57095,29.453528 z M 364.88366,30.203503 C 363.88111,29.731924 363.74931,29.224083 363.69225,25.613087 L 363.6415,22.400942 L 362.97874,22.400942 C 362.15831,22.400942 362.13582,22.181962 362.90923,21.723888 C 363.62194,21.301759 364.08437,20.371955 364.21425,19.099883 C 364.27466,18.508338 364.38465,18.166284 364.51448,18.166284 C 364.67236,18.166284 364.71938,18.582743 364.71938,19.981137 L 364.71938,21.795991 L 365.84597,21.795991 C 366.74724,21.795991 366.97255,21.856485 366.97255,22.098467 C 366.97255,22.340684 366.74611,22.400942 365.83585,22.400942 L 364.69916,22.400942 L 364.74682,25.707604 C 364.78884,28.622224 364.82841,29.064517 365.08064,29.438133 C 365.80467,30.510623 366.82235,29.564164 366.82235,27.818301 C 366.82235,27.043637 366.87415,26.837245 367.06858,26.837245 C 367.27543,26.837245 367.30075,26.996795 367.22683,27.834653 C 367.10647,29.198889 366.77669,29.975266 366.20365,30.243437 C 365.62691,30.513336 365.53653,30.510602 364.88366,30.203503 z M 278.94843,29.912409 C 278.94843,29.767437 279.13764,29.660347 279.39378,29.660347 C 279.68676,29.660347 279.89464,29.521086 280.0014,29.253301 C 280.1096,28.981918 280.1489,26.996773 280.11935,23.297046 C 280.07171,17.333543 280.07683,17.369993 279.2864,17.362772 C 279.08714,17.36095 278.94843,17.235538 278.94843,17.057208 C 278.94843,16.825561 279.139,16.754733 279.76231,16.754733 C 280.20994,16.754733 280.6831,16.699655 280.81379,16.632336 C 281.02462,16.523731 281.05139,16.889756 281.05139,19.879629 L 281.05139,23.249318 L 281.57516,22.631966 C 282.20529,21.889248 283.10698,21.528232 283.8701,21.713132 C 285.24646,22.046616 285.40753,22.525365 285.40753,26.282775 C 285.40753,29.411721 285.46504,29.660347 286.18863,29.660347 C 286.42493,29.660347 286.60927,29.770801 286.60931,29.912409 C 286.60937,30.098787 286.17884,30.164471 284.95714,30.164471 C 283.78262,30.164471 283.30485,30.095283 283.30473,29.925186 C 283.30465,29.793578 283.52425,29.657468 283.79276,29.62271 L 284.28095,29.559526 L 284.32213,26.311046 C 284.35956,23.357601 284.33704,23.019051 284.07427,22.583406 C 283.70876,21.97745 282.71877,21.954916 282.13573,22.539281 C 281.24933,23.4277 281.13053,23.862204 281.07367,26.423628 C 281.01302,29.156832 281.1272,29.660347 281.80774,29.660347 C 282.06387,29.660347 282.25309,29.767437 282.25309,29.912409 C 282.25309,30.098782 281.82248,30.164471 280.60076,30.164471 C 279.37904,30.164471 278.94843,30.098782 278.94843,29.912409 z M 318.15037,26.282707 C 318.14854,26.199524 318.43386,24.566161 318.78443,22.653005 C 319.47976,18.85837 319.84584,18.056892 319.69981,20.648941 C 319.59398,22.527421 319.93698,23.700713 320.85209,24.590626 C 322.49104,26.184431 324.83159,25.872761 326.29876,23.865338 C 327.53684,22.171367 327.9577,19.981455 327.35395,18.374795 C 327.00313,17.44119 326.50999,17.096402 324.46261,16.353247 C 321.69523,15.348747 321.00636,14.43487 321.00921,11.771927 C 321.01261,8.602053 322.88791,5.8684761 325.50784,5.2144021 C 326.9926,4.8437331 328.57251,5.5457311 329.15527,6.8350571 L 329.37664,7.3248271 L 330.03652,6.2031781 C 330.39945,5.5862731 330.7471,5.0764691 330.80906,5.0702781 C 331.01297,5.0499061 330.92781,5.8565321 330.46306,8.347632 C 329.73355,12.257756 329.71889,12.318431 329.50316,12.318431 C 329.34355,12.318431 329.31588,12.051911 329.3788,11.12041 C 329.58951,8.000871 328.3704,5.8821991 326.35769,5.8700531 C 325.3418,5.8639201 324.61445,6.1962901 323.77101,7.0520641 C 322.43181,8.410843 321.86677,10.699536 322.47253,12.311569 C 322.82267,13.243331 323.3155,13.589107 325.35083,14.331018 C 327.35821,15.06274 327.7815,15.36065 328.33398,16.430526 C 328.68449,17.109298 328.75135,17.468497 328.79701,18.918076 C 328.84636,20.484591 328.81483,20.709267 328.37861,21.89876 C 327.15018,25.248552 324.54965,27.003802 322.0757,26.152969 C 321.11258,25.821733 320.37236,25.271507 319.94639,24.570196 C 319.72071,24.198621 319.68512,24.228412 319.06442,25.308467 C 318.47226,26.338837 318.15899,26.672743 318.15037,26.282707 z M 261.10868,25.425693 C 261.13919,25.211232 261.42739,25.087768 262.09912,25.001399 C 262.62206,24.934158 263.14582,24.746281 263.26815,24.582056 C 263.49003,24.284208 266.63106,8.018167 266.63106,7.1670261 C 266.63106,6.6145661 266.3778,6.4705731 265.40607,6.4705731 C 264.77702,6.4705731 264.66431,6.4145681 264.70618,6.1227761 C 264.75138,5.8076961 265.03501,5.7745001 267.72142,5.7698871 C 270.44687,5.7652121 270.68678,5.7933471 270.68678,6.1176841 C 270.68679,6.4101161 270.5481,6.4705731 269.87726,6.4705731 C 268.4632,6.4705731 268.58386,6.1067511 266.75951,15.870688 C 265.69098,21.589417 265.19425,24.585773 265.2928,24.718072 C 265.37476,24.828099 265.82769,24.964267 266.29931,25.020668 C 266.91692,25.094531 267.15681,25.205745 267.15681,25.418222 C 267.15681,25.667182 266.68145,25.714393 264.11123,25.720698 C 261.4831,25.727143 261.07156,25.686711 261.10868,25.425693 z M 332.77618,25.576928 C 332.62082,25.239544 332.91596,25.066838 333.79353,24.981625 C 334.42081,24.920711 334.77573,24.784813 334.89911,24.558283 C 334.99906,24.374784 335.81383,20.354675 336.70973,15.624707 C 338.27619,7.3543371 338.32779,7.0141411 338.05632,6.7476671 C 337.90107,6.5952661 337.48279,6.4705731 337.1268,6.4705731 C 336.57148,6.4705731 336.47956,6.4110271 336.47956,6.0512971 C 336.47956,5.6347401 336.50804,5.6324541 340.87325,5.6984081 L 345.26695,5.7648011 L 346.1416,6.3413511 C 348.74864,8.05985 348.59003,12.192255 345.82141,14.683527 C 344.40303,15.959821 343.70015,16.188777 340.76742,16.329798 L 338.22064,16.452257 L 337.46478,20.544708 C 336.61478,25.14685 336.60277,25.013827 337.86901,25.019303 C 338.44769,25.021808 338.58252,25.089122 338.58252,25.375488 C 338.58252,25.699529 338.34649,25.728571 335.71417,25.728377 C 334.13657,25.728263 332.81448,25.660111 332.77618,25.576928 z M 343.39771,15.264872 C 344.81519,14.568435 345.7,13.063929 346.09515,10.678267 C 346.19864,10.053443 346.23861,9.222337 346.18397,8.831363 C 346.0533,7.8963371 345.3269,6.9674081 344.51063,6.6914851 C 343.59041,6.3804141 340.509,6.4026611 340.19559,6.7226351 C 339.97024,6.9527161 338.43231,14.572585 338.43231,15.459061 C 338.43231,15.756559 338.65632,15.781377 340.57283,15.696222 C 342.0439,15.630861 342.92738,15.495958 343.39771,15.264872 z M 295.37002,21.271515 C 295.31927,21.093956 295.37209,20.868488 295.48739,20.770473 C 295.6027,20.672457 298.77263,20.592263 302.53169,20.592263 C 306.29074,20.592263 309.46066,20.672457 309.57598,20.770473 C 309.69129,20.868488 309.74411,21.093956 309.69334,21.271515 C 309.61055,21.561188 308.87509,21.594337 302.53169,21.594337 C 296.18828,21.594337 295.45282,21.561188 295.37002,21.271515 z M 295.37002,15.826955 C 295.31927,15.649401 295.37209,15.423938 295.48739,15.325917 C 295.6027,15.227902 298.77263,15.147708 302.53169,15.147708 C 306.29074,15.147708 309.46066,15.227902 309.57598,15.325917 C 309.69129,15.423938 309.74411,15.649401 309.69334,15.826955 C 309.61055,16.116632 308.87509,16.149782 302.53169,16.149782 C 296.18828,16.149782 295.45282,16.116632 295.37002,15.826955 z"
       id="path5405" />
    <path
       style="fill:#000000;fill-opacity:1;fill-rule:evenodd;stroke:#000000;stroke-width:1px;stroke-linecap:butt;stroke-linejoin:miter;stroke-opacity:1"
       d="M 307.45345,39.0358 L 322.15771,43.93722 L 307.68685,49.305443 L 307.45345,39.0358 z"
       id="path5407"
       sodipodi:nodetypes="cccc" />
    <path
       style="fill:#000000"
       d="M 422.75537,139.41033 C 422.52754,139.16175 422.81287,138.83316 423.29078,138.79373 C 424.23372,138.71594 424.59384,138.61385 424.72835,138.38619 C 424.80707,138.25297 425.70878,135.14083 426.73217,131.47031 C 428.7764,124.13834 428.86912,123.61999 428.23852,123.04882 C 427.95375,122.79089 427.79784,122.74261 427.44457,122.80295 C 426.70787,122.92879 426.1588,123.63424 425.64094,125.12029 C 425.16048,126.49905 424.88928,126.83373 424.52203,126.50109 C 424.33453,126.33126 424.3344,126.23167 424.52082,125.56521 C 424.87346,124.30443 425.76803,122.79729 426.38225,122.42912 C 427.4877,121.76651 429.11582,121.9681 430.02562,122.88024 C 430.3008,123.15613 430.52691,123.42391 430.52807,123.4753 C 430.52923,123.52669 430.5858,123.64832 430.65376,123.74558 C 430.75227,123.88653 430.91035,123.81637 431.43288,123.39975 C 431.79343,123.1123 432.49349,122.69648 432.98856,122.47573 C 433.76147,122.13108 434.03649,122.07434 434.93436,122.07428 C 436.28953,122.07418 437.20248,122.42747 438.04785,123.27911 C 438.95332,124.19131 439.27103,125.04279 439.27586,126.57032 C 439.28283,128.77399 438.40344,130.62533 436.53553,132.33937 C 433.95819,134.70441 430.83384,135.17186 429.15811,133.44316 C 428.9138,133.19114 428.6806,133.01512 428.63987,133.052 C 428.52834,133.15302 427.21963,137.90931 427.21559,138.22829 C 427.21082,138.60468 427.59888,138.76423 428.51908,138.76423 C 429.33578,138.76423 429.61004,138.96556 429.33377,139.36227 C 429.14981,139.62641 422.99463,139.67139 422.75537,139.41033 z M 432.92523,133.44825 C 433.63414,133.14308 434.67562,132.18558 435.19775,131.359 C 435.97948,130.12143 437.01562,126.73437 437.01562,125.41651 C 437.01562,124.59655 436.65273,123.72542 436.11423,123.25266 C 435.66725,122.86026 435.54363,122.81835 434.83322,122.81835 C 434.2888,122.81835 433.84602,122.90797 433.39375,123.10973 C 432.67344,123.43105 431.52178,124.31777 431.05714,124.90879 C 430.86935,125.14769 430.43755,126.42632 429.89544,128.34884 C 429.05201,131.34 429.03719,131.42079 429.23547,131.94786 C 429.47002,132.57137 430.13631,133.29697 430.73307,133.57881 C 431.2462,133.82113 432.18957,133.76495 432.92523,133.44825 z M 403.66592,128.7624 C 399.67204,128.24773 396.57328,126.31474 394.85038,123.26331 C 394.11955,121.96893 393.87005,121.28762 393.59375,119.83165 C 391.92703,111.049 400.13514,100.90087 410.50464,98.92379 C 412.30761,98.58003 414.97278,98.60413 416.30391,98.97622 C 418.16254,99.49575 419.62193,100.44275 420.6524,101.79794 C 420.94078,102.1772 421.21936,102.46363 421.27148,102.43445 C 421.32359,102.40528 422.10489,101.56269 423.00769,100.56202 C 423.91048,99.56137 424.76604,98.70904 424.90892,98.66796 C 425.5409,98.48629 425.49702,98.75525 423.98414,104.33774 C 423.16826,107.34832 422.44368,109.93815 422.37396,110.09291 C 422.27719,110.30772 422.13513,110.37431 421.77359,110.37431 L 421.29999,110.37431 L 421.32188,108.40452 C 421.348,106.05379 421.12438,104.97679 420.27706,103.37253 C 419.35148,101.62009 417.73359,100.39437 415.80436,99.98399 C 414.29067,99.662 411.98233,99.84834 409.98167,100.45402 C 403.28946,102.48004 398.59751,108.42113 397.30743,116.50253 C 397.03817,118.18919 397.10008,120.51947 397.44532,121.69275 C 397.84879,123.0639 398.71655,124.46904 399.71797,125.37277 C 403.51671,128.80091 410.18575,128.33299 414.91095,124.30677 C 416.77402,122.71929 418.04305,120.97075 418.92829,118.77148 C 419.3246,117.78691 419.55837,117.53271 419.94422,117.66682 C 420.3905,117.82194 420.0954,118.90195 419.13464,120.6297 C 418.27728,122.17148 417.30602,123.37505 415.90374,124.63336 C 412.98047,127.25653 409.56779,128.69118 405.94807,128.81862 C 405.15067,128.84669 404.1237,128.82139 403.66592,128.7624 z"
       id="path5422" />
    <path
       style="fill:none;fill-rule:evenodd;stroke:#000000;stroke-width:2;stroke-linecap:butt;stroke-linejoin:miter;stroke-opacity:1;stroke-miterlimit:4;stroke-dasharray:none"
       d="M 270.57687,199.87899 L 352.05742,199.87899"
       id="path8613"
       sodipodi:nodetypes="cc" />
  </g>
</svg>
