<?xml version="1.0" encoding="UTF-8" standalone="no"?>
<!-- Created with Inkscape (http://www.inkscape.org/) -->

<svg
   xmlns:dc="http://purl.org/dc/elements/1.1/"
   xmlns:cc="http://creativecommons.org/ns#"
   xmlns:rdf="http://www.w3.org/1999/02/22-rdf-syntax-ns#"
   xmlns:svg="http://www.w3.org/2000/svg"
   xmlns="http://www.w3.org/2000/svg"
   xmlns:sodipodi="http://sodipodi.sourceforge.net/DTD/sodipodi-0.dtd"
   xmlns:inkscape="http://www.inkscape.org/namespaces/inkscape"
   width="210mm"
   height="90mm"
   id="svg7848"
   sodipodi:version="0.32"
   inkscape:version="0.48.4 r9939"
   sodipodi:docname="noise_TIA.svg"
   inkscape:output_extension="org.inkscape.output.svg.inkscape"
   version="1.0"
   inkscape:export-filename="/home/vanderbruggen/ownCloud/Photonics/img/noise_TIA.png"
   inkscape:export-xdpi="66.163979"
   inkscape:export-ydpi="66.163979">
  <defs
     id="defs7850">
    <marker
       inkscape:stockid="Arrow1Lend"
       orient="auto"
       refY="0"
       refX="0"
       id="Arrow1Lend"
       style="overflow:visible">
      <path
         id="path3505"
         d="M 0,0 L 5,-5 L -12.5,0 L 5,5 L 0,0 z"
         style="fill-rule:evenodd;stroke:#000000;stroke-width:1pt;marker-start:none"
         transform="matrix(-0.8,0,0,-0.8,-10,0)" />
    </marker>
    <marker
       inkscape:stockid="Arrow1Mend"
       orient="auto"
       refY="0"
       refX="0"
       id="Arrow1Mend"
       style="overflow:visible">
      <path
         id="path3511"
         d="M 0,0 L 5,-5 L -12.5,0 L 5,5 L 0,0 z"
         style="fill-rule:evenodd;stroke:#000000;stroke-width:1pt;marker-start:none"
         transform="matrix(-0.4,0,0,-0.4,-4,0)" />
    </marker>
    <inkscape:perspective
       sodipodi:type="inkscape:persp3d"
       inkscape:vp_x="0 : 526.18109 : 1"
       inkscape:vp_y="0 : 1000 : 0"
       inkscape:vp_z="744.09448 : 526.18109 : 1"
       inkscape:persp3d-origin="372.04724 : 350.78739 : 1"
       id="perspective7856" />
    <inkscape:perspective
       id="perspective8570"
       inkscape:persp3d-origin="372.04724 : 350.78739 : 1"
       inkscape:vp_z="744.09448 : 526.18109 : 1"
       inkscape:vp_y="0 : 1000 : 0"
       inkscape:vp_x="0 : 526.18109 : 1"
       sodipodi:type="inkscape:persp3d" />
    <inkscape:perspective
       id="perspective8585"
       inkscape:persp3d-origin="372.04724 : 350.78739 : 1"
       inkscape:vp_z="744.09448 : 526.18109 : 1"
       inkscape:vp_y="0 : 1000 : 0"
       inkscape:vp_x="0 : 526.18109 : 1"
       sodipodi:type="inkscape:persp3d" />
  </defs>
  <sodipodi:namedview
     id="base"
     pagecolor="#ffffff"
     bordercolor="#666666"
     borderopacity="1.0"
     inkscape:pageopacity="0.0"
     inkscape:pageshadow="2"
     inkscape:zoom="0.54466009"
     inkscape:cx="282.2429"
     inkscape:cy="0.71106316"
     inkscape:document-units="px"
     inkscape:current-layer="layer1"
     showgrid="false"
     inkscape:window-width="955"
     inkscape:window-height="667"
     inkscape:window-x="32"
     inkscape:window-y="24"
     inkscape:window-maximized="0" />
  <metadata
     id="metadata7853">
    <rdf:RDF>
      <cc:Work
         rdf:about="">
        <dc:format>image/svg+xml</dc:format>
        <dc:type
           rdf:resource="http://purl.org/dc/dcmitype/StillImage" />
        <dc:title></dc:title>
      </cc:Work>
    </rdf:RDF>
  </metadata>
  <g
     inkscape:label="Calque 1"
     inkscape:groupmode="layer"
     id="layer1">
    <path
       style="fill:none;fill-rule:evenodd;stroke:#000000;stroke-width:2;stroke-linecap:butt;stroke-linejoin:miter;stroke-miterlimit:4;stroke-dasharray:none;stroke-opacity:1"
       d="M 494.89773,131.2485 L 494.88889,74.495282 L 543.32156,73.983113 L 553.44855,64.882243 L 564.08771,79.104823 L 574.72687,64.882243 L 585.36603,79.104823 L 596.00519,64.882243 L 606.64435,79.104823 L 617.28351,64.882243 L 625.87399,75.007453 L 650.28302,75.007453"
       id="path5465"
       sodipodi:nodetypes="cccccccccccc" />
    <path
       style="fill:#000000"
       d="M 587.28755,55.555448 C 587.25454,55.464318 587.24791,55.276608 587.27281,55.138308 C 587.31114,54.925358 587.49866,54.874608 588.49717,54.806888 C 589.87314,54.713578 590.19575,54.566828 590.38244,53.949348 C 590.45776,53.700218 591.41129,49.710818 592.5014,45.084028 C 593.86743,39.286098 594.44556,36.606848 594.36161,36.463098 C 594.27622,36.316878 593.92095,36.232248 593.17315,36.180018 C 592.02289,36.099658 591.6849,35.921368 591.92327,35.520708 C 592.05519,35.298968 592.66103,35.278538 600.08902,35.245368 C 607.14688,35.213848 608.12142,35.234818 608.18832,35.419658 C 608.23015,35.535218 608.13214,36.990488 607.9705,38.653568 C 607.6641,41.806248 607.54572,42.245678 607.08583,41.937768 C 606.88717,41.804758 606.86456,41.584518 606.90518,40.178418 C 606.97245,37.849898 606.70006,37.155388 605.48153,36.548498 C 604.93142,36.274518 604.6365,36.251528 601.14371,36.210408 C 597.93127,36.172588 597.37272,36.196188 597.23222,36.375658 C 597.09917,36.545608 595.13113,44.451608 595.12216,44.852178 C 595.12073,44.915848 596.13773,44.947138 597.38214,44.921698 C 599.36913,44.881088 599.70863,44.840108 600.16938,44.585268 C 600.83201,44.218758 601.2193,43.615888 601.56323,42.415508 C 601.79774,41.597028 601.87612,41.468798 602.14187,41.468798 C 602.31094,41.468798 602.4846,41.529408 602.52779,41.603478 C 602.64217,41.799678 600.90344,49.210248 600.7013,49.388098 C 600.45077,49.608508 600.1038,49.412738 600.1038,49.050968 C 600.1038,48.878398 600.16352,48.403358 600.23652,47.995318 C 600.40272,47.066248 600.23306,46.449128 599.7393,46.186798 C 599.49279,46.055818 598.68501,45.981458 597.12776,45.946378 L 594.87312,45.895598 L 594.74049,46.428378 C 594.66754,46.721408 594.21842,48.614018 593.74244,50.634178 C 592.98093,53.866188 592.90017,54.331748 593.06988,54.511648 C 593.20389,54.653718 593.69608,54.742148 594.68301,54.801478 L 596.1033,54.886848 L 596.1033,55.296828 L 596.1033,55.706808 L 591.72543,55.713968 C 588.45331,55.719318 587.3324,55.679288 587.28755,55.555448 z M 579.12315,49.661438 C 577.57514,49.371828 576.23915,48.403058 575.60325,47.109028 C 575.30242,46.496858 575.25796,46.241648 575.26259,45.153548 C 575.26693,44.133988 575.38152,43.427258 575.88109,41.339148 C 576.21834,39.929508 576.49427,38.454588 576.49427,38.061548 C 576.49427,35.947568 575.07009,34.357258 572.82168,33.960558 C 572.33891,33.875378 570.7779,33.827618 569.22276,33.850428 L 566.47642,33.890728 L 564.99656,40.147848 C 564.18264,43.589268 563.51498,46.575598 563.51287,46.784148 C 563.50665,47.398228 563.93905,47.585008 565.62541,47.696708 C 567.09069,47.793768 567.11662,47.801358 567.15002,48.143058 C 567.22353,48.895088 567.37889,48.874908 561.50767,48.876208 C 558.51549,48.876878 556.00052,48.833648 555.91885,48.780128 C 555.71961,48.649598 555.72977,48.072048 555.9343,47.900778 C 556.02448,47.825268 556.7258,47.727678 557.49279,47.683908 C 558.95378,47.600528 559.60798,47.401978 560.01398,46.918718 C 560.31664,46.558468 566.57393,20.157238 566.45265,19.752178 C 566.33338,19.353778 565.83105,19.208778 564.26322,19.120198 L 562.85321,19.040538 L 562.85321,18.579598 C 562.85321,18.266188 562.93441,18.072588 563.10691,17.974718 C 563.44761,17.781428 575.92436,17.781528 577.41586,17.974838 C 580.85165,18.420138 583.40846,19.988428 584.48777,22.312568 C 585.31771,24.099738 585.13743,26.199158 583.99453,28.056518 C 583.4316,28.971348 582.15069,30.320508 581.17506,31.026228 C 580.2104,31.723998 577.99655,32.798598 576.79038,33.154548 C 576.19577,33.330018 575.71041,33.504868 575.7118,33.543108 C 575.7132,33.581348 576.10519,33.797818 576.58289,34.024168 C 577.70258,34.554688 578.70008,35.524138 579.1675,36.536098 C 579.71052,37.711738 579.73746,38.761968 579.31011,42.094508 C 578.89255,45.350708 578.82453,47.458388 579.11755,48.061028 C 579.59114,49.035048 580.75711,49.305048 581.91768,48.709458 C 582.98621,48.161108 584.1076,46.581838 584.62106,44.902268 C 584.7608,44.445178 584.83042,44.378728 585.13095,44.415608 C 585.43698,44.453158 585.47638,44.515708 585.45726,44.933658 C 585.4453,45.195098 585.22132,45.856378 584.95951,46.403178 C 583.67717,49.081418 581.75593,50.153988 579.12315,49.661438 z M 574.15162,32.767558 C 576.79818,32.238148 578.72871,30.942328 580.01567,28.831488 C 581.17006,26.938078 581.67527,23.888678 581.10104,22.280288 C 580.7301,21.241298 580.20276,20.605808 579.27783,20.083208 C 577.89921,19.304248 577.06355,19.168838 573.57926,19.159798 L 570.4675,19.151728 L 570.12853,19.510638 C 569.83528,19.821128 569.58028,20.754158 568.23786,26.428228 L 566.68616,32.986918 L 569.8706,32.986918 C 572.21996,32.986918 573.34259,32.929398 574.15162,32.767558 z"
       id="path6035" />
    <path
       style="fill:none;stroke:#000000;stroke-width:1.73800004;stroke-linecap:butt;stroke-linejoin:miter;stroke-miterlimit:4;stroke-opacity:1;stroke-dasharray:none;marker-end:url(#Arrow1Lend)"
       d="m 679.65591,261.79451 0,-100.07017"
       id="path6041"
       inkscape:connector-curvature="0"
       sodipodi:nodetypes="cc" />
    <path
       style="fill:none;fill-rule:evenodd;stroke:#000000;stroke-width:2;stroke-linecap:butt;stroke-linejoin:miter;stroke-miterlimit:4;stroke-dasharray:none;stroke-opacity:1"
       d="M 484.42113,281.07728 L 498.27045,281.07728 L 491.06315,293.65472 L 484.42113,281.07728 z"
       id="path6585"
       sodipodi:nodetypes="cccc" />
    <g
       id="g7288"
       transform="translate(247.40011,9.2108435)">
      <path
         sodipodi:nodetypes="cccc"
         id="path6757"
         d="M 278.7802,100.89929 L 278.7802,191.77429 L 365.33399,146.33679 L 278.7802,100.89929 z"
         style="fill:none;fill-rule:evenodd;stroke:#000000;stroke-width:2;stroke-linecap:butt;stroke-linejoin:miter;stroke-miterlimit:4;stroke-dasharray:none;stroke-opacity:1" />
      <text
         sodipodi:linespacing="125%"
         id="text7280"
         y="176.50452"
         x="281.52835"
         style="font-size:28px;font-style:normal;font-variant:normal;font-weight:normal;font-stretch:normal;text-align:start;line-height:125%;writing-mode:lr-tb;text-anchor:start;fill:#000000;fill-opacity:1;stroke:none;stroke-width:1px;stroke-linecap:butt;stroke-linejoin:miter;stroke-opacity:1;font-family:Arial;-inkscape-font-specification:Arial"
         xml:space="preserve"><tspan
           y="176.50452"
           x="281.52835"
           id="tspan7282"
           sodipodi:role="line">+</tspan></text>
      <text
         sodipodi:linespacing="125%"
         id="text7284"
         y="129.74005"
         x="285.03519"
         style="font-size:28px;font-style:normal;font-variant:normal;font-weight:normal;font-stretch:normal;text-align:start;line-height:125%;writing-mode:lr-tb;text-anchor:start;fill:#000000;fill-opacity:1;stroke:none;stroke-width:1px;stroke-linecap:butt;stroke-linejoin:miter;stroke-opacity:1;font-family:Arial;-inkscape-font-specification:Arial"
         xml:space="preserve"><tspan
           y="129.74005"
           x="285.03519"
           id="tspan7286"
           sodipodi:role="line">-</tspan></text>
    </g>
    <path
       style="fill:none;fill-rule:evenodd;stroke:#000000;stroke-width:2;stroke-linecap:butt;stroke-linejoin:miter;stroke-miterlimit:4;stroke-dasharray:none;stroke-opacity:1"
       d="M 525.22212,131.30492 C 392.60325,131.30492 392.60325,131.30492 392.60325,131.30492"
       id="path7315" />
    <path
       style="fill:none;fill-rule:evenodd;stroke:#000000;stroke-width:2;stroke-linecap:butt;stroke-linejoin:miter;stroke-miterlimit:4;stroke-dasharray:none;stroke-opacity:1"
       d="M 613.31202,155.50544 C 699.46588,155.50544 699.46588,155.50544 699.46588,155.50544"
       id="path7317" />
    <path
       style="fill:none;fill-rule:evenodd;stroke:#000000;stroke-width:2;stroke-linecap:butt;stroke-linejoin:miter;stroke-miterlimit:4;stroke-dasharray:none;stroke-opacity:1"
       d="M 650.09681,74.191685 L 650.09681,154.53742"
       id="path7319" />
    <path
       style="fill:none;fill-rule:evenodd;stroke:#000000;stroke-width:2;stroke-linecap:butt;stroke-linejoin:miter;stroke-miterlimit:4;stroke-dasharray:none;stroke-opacity:1"
       d="M 525.58202,175.83388 L 492.3094,175.83388 L 492.3094,213.58669"
       id="path7321"
       sodipodi:nodetypes="ccc" />
    <g
       id="g7996"
       transform="translate(-3.0450767,-1.8360075)">
      <path
         transform="translate(108.32051,124.79281)"
         d="m 240.90967,77.449455 c 0,10.814469 -8.76686,19.581328 -19.58133,19.581328 -10.81447,0 -19.58133,-8.766859 -19.58133,-19.581328 0,-10.814468 8.76686,-19.581327 19.58133,-19.581327 10.81447,0 19.58133,8.766859 19.58133,19.581327 z"
         sodipodi:ry="19.581327"
         sodipodi:rx="19.581327"
         sodipodi:cy="77.449455"
         sodipodi:cx="221.32834"
         id="path6632"
         style="fill:none;fill-opacity:1;fill-rule:nonzero;stroke:#000000;stroke-width:3;stroke-miterlimit:4;stroke-dasharray:none;stroke-dashoffset:0;stroke-opacity:1"
         sodipodi:type="arc" />
      <path
         transform="translate(108.32051,146.74762)"
         d="m 240.90967,77.449455 c 0,10.814469 -8.76686,19.581328 -19.58133,19.581328 -10.81447,0 -19.58133,-8.766859 -19.58133,-19.581328 0,-10.814468 8.76686,-19.581327 19.58133,-19.581327 10.81447,0 19.58133,8.766859 19.58133,19.581327 z"
         sodipodi:ry="19.581327"
         sodipodi:rx="19.581327"
         sodipodi:cy="77.449455"
         sodipodi:cx="221.32834"
         id="path6634"
         style="fill:none;fill-opacity:1;fill-rule:nonzero;stroke:#000000;stroke-width:3;stroke-miterlimit:4;stroke-dasharray:none;stroke-dashoffset:0;stroke-opacity:1"
         sodipodi:type="arc" />
      <path
         sodipodi:nodetypes="cc"
         id="path6636"
         d="M 329.44774,181.76017 C 329.48969,182.26766 329.70772,132.77595 329.84995,132.23163"
         style="fill:none;fill-rule:evenodd;stroke:#000000;stroke-width:2;stroke-linecap:butt;stroke-linejoin:miter;stroke-miterlimit:4;stroke-dasharray:none;stroke-opacity:1" />
      <path
         sodipodi:nodetypes="cc"
         id="path6638"
         d="M 328.85535,243.6619 C 328.85535,243.1352 328.85535,286.62528 328.85535,286.62528"
         style="fill:none;fill-rule:evenodd;stroke:#000000;stroke-width:2;stroke-linecap:butt;stroke-linejoin:miter;stroke-miterlimit:4;stroke-dasharray:none;stroke-opacity:1" />
      <path
         sodipodi:nodetypes="cccc"
         id="path6640"
         d="M 322.01776,287.23043 L 335.86708,287.23043 L 328.65978,299.80787 L 322.01776,287.23043 z"
         style="fill:none;fill-rule:evenodd;stroke:#000000;stroke-width:2;stroke-linecap:butt;stroke-linejoin:miter;stroke-miterlimit:4;stroke-dasharray:none;stroke-opacity:1" />
    </g>
    <g
       id="g7924"
       transform="translate(-446.31168,68.605814)">
      <g
         transform="translate(427.50337,54.350983)"
         id="g7926">
        <path
           sodipodi:type="arc"
           style="opacity:1;fill:none;fill-opacity:1;fill-rule:nonzero;stroke:#000000;stroke-width:3;stroke-miterlimit:4;stroke-dasharray:none;stroke-dashoffset:0;stroke-opacity:1"
           id="path7928"
           sodipodi:cx="221.32834"
           sodipodi:cy="77.449455"
           sodipodi:rx="19.581327"
           sodipodi:ry="19.581327"
           d="m 240.90967,77.449455 c 0,10.814469 -8.76686,19.581328 -19.58133,19.581328 -10.81447,0 -19.58133,-8.766859 -19.58133,-19.581328 0,-10.814468 8.76686,-19.581327 19.58133,-19.581327 10.81447,0 19.58133,8.766859 19.58133,19.581327 z"
           transform="translate(-0.5933813,0)" />
        <path
           sodipodi:type="arc"
           style="opacity:1;fill:none;fill-opacity:1;fill-rule:nonzero;stroke:#000000;stroke-width:3;stroke-miterlimit:4;stroke-dasharray:none;stroke-dashoffset:0;stroke-opacity:1"
           id="path7930"
           sodipodi:cx="221.32834"
           sodipodi:cy="77.449455"
           sodipodi:rx="19.581327"
           sodipodi:ry="19.581327"
           d="m 240.90967,77.449455 c 0,10.814469 -8.76686,19.581328 -19.58133,19.581328 -10.81447,0 -19.58133,-8.766859 -19.58133,-19.581328 0,-10.814468 8.76686,-19.581327 19.58133,-19.581327 10.81447,0 19.58133,8.766859 19.58133,19.581327 z"
           transform="translate(-0.5933813,21.954815)" />
      </g>
      <path
         sodipodi:nodetypes="cc"
         id="path7932"
         d="M 648.03722,111.31835 C 648.07917,111.82584 648.2972,62.334128 648.43943,61.789808"
         style="fill:none;fill-rule:evenodd;stroke:#000000;stroke-width:2;stroke-linecap:butt;stroke-linejoin:miter;stroke-miterlimit:4;stroke-dasharray:none;stroke-opacity:1" />
      <path
         sodipodi:nodetypes="cc"
         id="path7934"
         d="M 647.44483,173.22008 C 647.44483,172.69338 647.44483,216.18346 647.44483,216.18346"
         style="fill:none;fill-rule:evenodd;stroke:#000000;stroke-width:2;stroke-linecap:butt;stroke-linejoin:miter;stroke-miterlimit:4;stroke-dasharray:none;stroke-opacity:1" />
      <path
         sodipodi:nodetypes="cccc"
         id="path7936"
         d="M 640.60724,216.78861 L 654.45656,216.78861 L 647.24926,229.36605 L 640.60724,216.78861 z"
         style="fill:none;fill-rule:evenodd;stroke:#000000;stroke-width:2;stroke-linecap:butt;stroke-linejoin:miter;stroke-miterlimit:4;stroke-dasharray:none;stroke-opacity:1" />
    </g>
    <g
       id="g7952"
       transform="translate(-552.98881,68.605814)">
      <g
         transform="translate(427.50337,54.350983)"
         id="g7954">
        <path
           sodipodi:type="arc"
           style="opacity:1;fill:none;fill-opacity:1;fill-rule:nonzero;stroke:#000000;stroke-width:3;stroke-miterlimit:4;stroke-dasharray:none;stroke-dashoffset:0;stroke-opacity:1"
           id="path7956"
           sodipodi:cx="221.32834"
           sodipodi:cy="77.449455"
           sodipodi:rx="19.581327"
           sodipodi:ry="19.581327"
           d="m 240.90967,77.449455 c 0,10.814469 -8.76686,19.581328 -19.58133,19.581328 -10.81447,0 -19.58133,-8.766859 -19.58133,-19.581328 0,-10.814468 8.76686,-19.581327 19.58133,-19.581327 10.81447,0 19.58133,8.766859 19.58133,19.581327 z"
           transform="translate(-0.5933813,0)" />
        <path
           sodipodi:type="arc"
           style="opacity:1;fill:none;fill-opacity:1;fill-rule:nonzero;stroke:#000000;stroke-width:3;stroke-miterlimit:4;stroke-dasharray:none;stroke-dashoffset:0;stroke-opacity:1"
           id="path7958"
           sodipodi:cx="221.32834"
           sodipodi:cy="77.449455"
           sodipodi:rx="19.581327"
           sodipodi:ry="19.581327"
           d="m 240.90967,77.449455 c 0,10.814469 -8.76686,19.581328 -19.58133,19.581328 -10.81447,0 -19.58133,-8.766859 -19.58133,-19.581328 0,-10.814468 8.76686,-19.581327 19.58133,-19.581327 10.81447,0 19.58133,8.766859 19.58133,19.581327 z"
           transform="translate(-0.5933813,21.954815)" />
      </g>
      <path
         sodipodi:nodetypes="cc"
         id="path7960"
         d="M 648.03722,111.31835 C 648.07917,111.82584 648.2972,62.334128 648.43943,61.789808"
         style="fill:none;fill-rule:evenodd;stroke:#000000;stroke-width:2;stroke-linecap:butt;stroke-linejoin:miter;stroke-miterlimit:4;stroke-dasharray:none;stroke-opacity:1" />
      <path
         sodipodi:nodetypes="cc"
         id="path7962"
         d="M 647.44483,173.22008 C 647.44483,172.69338 647.44483,216.18346 647.44483,216.18346"
         style="fill:none;fill-rule:evenodd;stroke:#000000;stroke-width:2;stroke-linecap:butt;stroke-linejoin:miter;stroke-miterlimit:4;stroke-dasharray:none;stroke-opacity:1" />
      <path
         sodipodi:nodetypes="cccc"
         id="path7964"
         d="M 640.60724,216.78861 L 654.45656,216.78861 L 647.24926,229.36605 L 640.60724,216.78861 z"
         style="fill:none;fill-rule:evenodd;stroke:#000000;stroke-width:2;stroke-linecap:butt;stroke-linejoin:miter;stroke-miterlimit:4;stroke-dasharray:none;stroke-opacity:1" />
    </g>
    <path
       sodipodi:type="arc"
       style="fill:none;fill-opacity:1;fill-rule:nonzero;stroke:#000000;stroke-width:3;stroke-miterlimit:4;stroke-dasharray:none;stroke-dashoffset:0;stroke-opacity:1"
       id="path7994"
       sodipodi:cx="221.32834"
       sodipodi:cy="77.449455"
       sodipodi:rx="19.581327"
       sodipodi:ry="19.581327"
       d="M 240.90967,77.449455 A 19.581327,19.581327 0 1 1 201.74701,77.449455 A 19.581327,19.581327 0 1 1 240.90967,77.449455 z"
       transform="translate(271.03611,155.03584)" />
    <path
       style="fill:none;fill-rule:evenodd;stroke:#000000;stroke-width:2;stroke-linecap:butt;stroke-linejoin:miter;stroke-miterlimit:4;stroke-dasharray:none;stroke-opacity:1"
       d="M 491.58766,252.47815 C 491.58766,280.80135 491.58766,280.80135 491.58766,280.80135"
       id="path8003" />
    <path
       style="fill:#000000"
       d="M 36.757308,236.18492 C 36.562607,236.03456 36.4033,235.79588 36.4033,235.65452 C 36.4033,235.51314 36.98443,233.13377 37.694672,230.36706 C 39.119401,224.81713 39.16946,224.40673 38.491508,223.83429 C 38.056572,223.46703 37.807024,223.45794 37.253612,223.78918 C 36.682996,224.13074 36.22549,224.94172 35.817152,226.33544 C 35.405711,227.73978 35.39741,227.75361 34.965938,227.75361 C 34.630133,227.75361 34.621699,227.7335 34.696769,227.11129 C 34.797536,226.27612 35.500427,224.49521 35.992436,223.82847 C 36.56138,223.05749 37.428282,222.68428 38.392017,222.79546 C 39.684231,222.94455 40.670018,223.68089 40.992662,224.73803 C 41.078223,225.01836 41.170183,225.24773 41.197023,225.24773 C 41.223851,225.24773 41.582647,224.92232 41.994341,224.52459 C 44.268769,222.32725 48.157526,222.17219 49.539403,224.22369 C 49.884677,224.73627 49.905405,224.8522 49.897814,226.2277 C 49.888743,227.87078 49.710693,228.5696 48.478041,231.80027 C 47.642719,233.98955 47.502757,234.9565 47.956678,235.40211 C 48.822858,236.25238 50.660592,234.70819 51.487012,232.43566 C 51.796724,231.584 51.852605,231.51242 52.207852,231.51242 C 52.565265,231.51242 52.590348,231.54561 52.556879,231.97405 C 52.506231,232.62199 51.576037,234.47512 50.971952,235.13151 C 49.691143,236.52319 48.002105,236.81969 46.608173,235.89757 C 46.021123,235.5092 45.682045,234.92121 45.588845,234.12996 C 45.523761,233.57743 45.616973,233.21359 46.276337,231.44648 C 47.216192,228.92773 47.823453,226.65893 47.823176,225.66745 C 47.822622,223.66651 46.30515,223.01295 44.105083,224.06609 C 43.14687,224.52476 41.666956,225.98408 41.072231,227.05676 C 40.833511,227.48731 40.347602,229.10409 39.695997,231.63602 C 39.142019,233.78855 38.626201,235.66451 38.549712,235.8048 C 38.388468,236.10057 37.741927,236.45826 37.368563,236.45826 C 37.227085,236.45826 36.952008,236.33525 36.757308,236.18492 z M 24.138616,225.33177 C 23.334278,225.10964 22.613349,224.54731 22.105692,223.7461 C 21.783383,223.23741 21.702867,222.94366 21.652745,222.09363 C 21.580809,220.87375 21.505403,221.1259 23.608373,215.55392 C 24.457075,213.30521 25.38859,210.79104 25.678396,209.96685 C 26.701648,207.05691 26.505957,205.59634 25.092824,205.59634 C 24.290358,205.59634 23.491069,206.02665 22.671739,206.89984 C 21.855364,207.76985 21.236702,208.92576 20.621704,210.73007 C 20.20693,211.94697 20.175783,211.99442 19.765807,212.03426 C 19.376609,212.07206 19.340369,212.04314 19.340369,211.69466 C 19.340369,210.63431 20.813455,207.54897 21.88118,206.37298 C 23.935739,204.11014 27.049081,204.16863 28.442983,206.49629 C 28.776807,207.05375 28.81199,207.2335 28.808921,208.36599 L 28.805514,209.61894 L 26.755488,215.00813 C 24.35982,221.30598 24.127065,222.05719 24.20397,223.24287 C 24.266939,224.21357 24.567974,224.58828 25.284824,224.58828 C 27.116875,224.58828 28.898822,222.57175 29.892405,219.37402 C 30.244292,218.24152 30.477605,217.90971 30.828959,218.04205 C 31.213154,218.18677 31.201356,218.53857 30.768883,219.83478 C 29.404606,223.92384 26.814987,226.07083 24.138616,225.33177 z M 34.656672,211.44188 C 34.656696,211.0292 34.668582,211.02145 35.429243,210.93962 C 36.448606,210.82994 36.784497,210.68172 36.943419,210.2714 C 37.089047,209.89538 37.132369,195.35939 36.989928,194.66032 C 36.879128,194.11642 36.368075,193.85824 35.402331,193.85824 L 34.656696,193.85824 L 34.656696,193.34849 L 34.656696,192.83873 L 36.504067,192.7486 C 37.520134,192.69902 38.547931,192.62507 38.788083,192.58424 L 39.22474,192.51 L 39.22474,193.38194 C 39.22474,194.35994 39.312791,194.42657 39.930723,193.91618 C 41.081314,192.96577 42.89399,192.44707 44.520807,192.60267 C 47.44702,192.8826 49.81697,194.90338 50.576584,197.76624 C 51.369775,200.75567 49.714518,204.06457 46.726974,205.46169 C 44.226374,206.63112 41.582767,206.4305 39.853547,204.94008 L 39.359084,204.51391 L 39.359084,207.42912 C 39.359084,210.16847 39.375301,210.36022 39.627808,210.6081 C 39.77559,210.75317 40.062769,210.87253 40.265975,210.87333 C 40.469193,210.87412 40.86218,210.91156 41.139289,210.95651 C 41.596013,211.03062 41.643112,211.07672 41.643064,211.44965 L 41.643016,211.86104 L 38.149832,211.86104 L 34.656636,211.86104 L 34.656672,211.44188 z M 44.818993,205.07431 C 45.534889,204.76344 46.631632,203.77107 47.069011,203.03845 C 48.047484,201.39945 48.306776,199.06622 47.717825,197.19994 C 47.152779,195.40939 45.827614,193.95584 44.41921,193.58177 C 43.04443,193.21663 41.115589,193.85001 39.983163,195.03843 L 39.359084,195.69338 L 39.359084,199.29662 C 39.359084,203.30279 39.304237,203.0364 40.353015,204.12315 C 41.582816,205.39748 43.254699,205.75357 44.818993,205.07431 z M 53.197513,205.51278 C 53.197549,205.10158 53.201904,205.09905 54.068902,205.00789 C 54.595631,204.95254 55.060607,204.82068 55.244505,204.67454 L 55.548731,204.4328 L 55.591331,196.47479 C 55.614766,192.09786 55.593929,188.13749 55.545037,187.67398 C 55.427271,186.55755 55.15092,186.28067 54.030116,186.15618 L 53.197549,186.06372 L 53.197549,185.60866 C 53.197549,185.25595 53.25272,185.15359 53.44291,185.15359 C 53.704861,185.15359 56.244608,184.93216 57.19458,184.82649 L 57.765569,184.76297 L 57.772619,190.003 C 57.779235,194.92094 57.793311,195.2228 58.001546,194.91334 C 59.071582,193.32323 61.108288,192.40195 63.143118,192.58759 C 64.888086,192.7468 65.935697,193.33491 66.515516,194.48084 C 66.828609,195.09963 66.835694,195.19663 66.901645,199.77211 C 66.979615,205.18301 66.879124,204.8429 68.44864,205.00789 C 69.31565,205.09905 69.320005,205.10158 69.32003,205.51278 L 69.320066,205.92604 L 65.826869,205.92604 L 62.333673,205.92604 L 62.333649,205.51278 C 62.333613,205.10089 62.336597,205.09919 63.218885,205.00643 C 64.700495,204.85068 64.617738,205.14948 64.616871,199.95808 C 64.616426,197.25898 64.560653,195.31075 64.475189,195.00866 C 64.397677,194.73465 64.150668,194.30519 63.926252,194.0543 C 62.595757,192.56675 59.431485,193.64629 58.315661,195.96846 C 57.968871,196.69017 57.966898,196.71337 57.926103,200.5443 C 57.877981,205.06164 57.812969,204.85025 59.298681,205.00643 C 60.180957,205.09919 60.183941,205.10089 60.183905,205.51278 L 60.183869,205.92604 L 56.690673,205.92604 L 53.197489,205.92604 L 53.197513,205.51278 z M 27.856807,198.47697 C 27.03542,198.15119 26.756516,197.02058 27.27441,196.11604 C 28.237666,194.43361 30.760446,194.63913 30.760446,196.40001 C 30.760446,197.77426 29.092721,198.96718 27.856807,198.47697 z"
       id="path6679" />
    <g
       id="g8552"
       transform="translate(-168.37676,-200.84452)">
      <path
         sodipodi:nodetypes="ccc"
         id="path5369"
         d="M 484.70628,331.7571 L 565.67748,332.32773 C 565.67748,391.77494 565.67748,391.77494 565.67748,391.77494"
         style="fill:none;fill-rule:evenodd;stroke:#000000;stroke-width:2;stroke-linecap:butt;stroke-linejoin:miter;stroke-miterlimit:4;stroke-dasharray:none;stroke-opacity:1" />
      <path
         id="path5371"
         d="M 595.40108,390.79989 C 536.97883,390.79989 536.97883,390.79989 536.97883,390.79989"
         style="fill:none;fill-rule:evenodd;stroke:#000000;stroke-width:3;stroke-linecap:butt;stroke-linejoin:miter;stroke-miterlimit:4;stroke-dasharray:none;stroke-opacity:1" />
      <path
         id="path5373"
         d="M 594.86607,415.8335 C 536.44382,415.8335 536.44382,415.8335 536.44382,415.8335"
         style="fill:none;fill-rule:evenodd;stroke:#000000;stroke-width:3;stroke-linecap:butt;stroke-linejoin:miter;stroke-miterlimit:4;stroke-dasharray:none;stroke-opacity:1" />
      <path
         id="path5375"
         d="M 565.65495,416.7751 C 565.65495,486.45381 565.65495,486.45381 565.65495,486.45381"
         style="fill:none;fill-rule:evenodd;stroke:#000000;stroke-width:2;stroke-linecap:butt;stroke-linejoin:miter;stroke-miterlimit:4;stroke-dasharray:none;stroke-opacity:1" />
      <path
         id="path5422"
         d="M 622.42697,422.5284 C 622.26982,422.33895 622.46663,422.08853 622.79628,422.05848 C 623.4467,421.99919 623.6951,421.92139 623.78788,421.74788 C 623.84218,421.64636 624.46415,419.27454 625.17006,416.47717 C 626.58012,410.88934 626.64407,410.4943 626.2091,410.059 C 626.01268,409.86243 625.90513,409.82563 625.66146,409.87162 C 625.1533,409.96752 624.77457,410.50516 624.41736,411.6377 C 624.08595,412.68848 623.89888,412.94355 623.64556,412.69004 C 623.51623,412.56061 623.51614,412.48471 623.64473,411.97679 C 623.88797,411.01592 624.50502,409.8673 624.9287,409.58672 C 625.69121,409.08173 626.81424,409.23536 627.4418,409.93052 C 627.63161,410.14078 627.78757,410.34486 627.78837,410.38403 C 627.78917,410.42319 627.82819,410.51589 627.87507,410.59001 C 627.94302,410.69743 628.05206,410.64396 628.41249,410.32645 C 628.66119,410.10738 629.14407,409.79048 629.48556,409.62224 C 630.01869,409.35957 630.20839,409.31633 630.82772,409.31629 C 631.76248,409.31621 632.39221,409.58546 632.97532,410.23451 C 633.59989,410.92971 633.81904,411.57864 633.82237,412.7428 C 633.82718,414.42225 633.2206,415.83319 631.93216,417.13949 C 630.15438,418.94193 627.99929,419.29819 626.84341,417.98071 C 626.67489,417.78864 626.51404,417.6545 626.48594,417.6826 C 626.40901,417.75959 625.5063,421.38445 625.50351,421.62755 C 625.50022,421.9144 625.76789,422.036 626.40262,422.036 C 626.96596,422.036 627.15514,422.18943 626.96458,422.49177 C 626.83769,422.69308 622.592,422.72736 622.42697,422.5284 z M 629.44187,417.98459 C 629.93086,417.75202 630.64925,417.02229 631.0094,416.39234 C 631.54861,415.44916 632.26332,412.86782 632.26332,411.86346 C 632.26332,411.23855 632.013,410.57465 631.64156,410.21435 C 631.33325,409.9153 631.24798,409.88335 630.75795,409.88335 C 630.38243,409.88335 630.07701,409.95166 629.76505,410.10542 C 629.26819,410.3503 628.47381,411.02609 628.15331,411.47652 C 628.02378,411.65859 627.72594,412.63305 627.352,414.09824 C 626.77023,416.37786 626.76,416.43943 626.89677,416.84112 C 627.05856,417.31631 627.51815,417.8693 627.92978,418.08409 C 628.28372,418.26877 628.93443,418.22595 629.44187,417.98459 z M 609.25956,414.41342 C 606.50469,414.02118 604.36724,412.54802 603.17883,410.22247 C 602.67472,409.236 602.50263,408.71676 602.31204,407.60714 C 601.16238,400.91372 606.82412,393.17965 613.97673,391.67288 C 615.22038,391.4109 617.05874,391.42926 617.97692,391.71284 C 619.25895,392.10878 620.2656,392.83051 620.97639,393.86332 C 621.17531,394.15236 621.36747,394.37066 621.40342,394.34842 C 621.43936,394.32619 621.97828,393.68404 622.60101,392.92141 C 623.22373,392.15879 623.81388,391.50922 623.91243,391.47791 C 624.34835,391.33946 624.31809,391.54444 623.27454,395.79895 C 622.71177,398.09337 622.21197,400.06712 622.16388,400.18507 C 622.09713,400.34878 621.99914,400.39953 621.74976,400.39953 L 621.42308,400.39953 L 621.43818,398.89832 C 621.4562,397.10678 621.30195,396.28598 620.71749,395.06335 C 620.07905,393.72778 618.96307,392.79364 617.63234,392.48088 C 616.58824,392.23549 614.99601,392.3775 613.616,392.8391 C 608.99989,394.38316 605.76351,398.91098 604.87364,405.06996 C 604.68791,406.35539 604.73062,408.13134 604.96875,409.02551 C 605.24706,410.07049 605.84562,411.14138 606.53637,411.83012 C 609.15664,414.44277 613.75677,414.08616 617.01609,411.01771 C 618.30119,409.80786 619.17653,408.47527 619.78715,406.79916 C 620.06051,406.0488 620.22176,405.85507 620.48791,405.95728 C 620.79574,406.0755 620.59219,406.8986 619.92948,408.21535 C 619.3381,409.39036 618.66815,410.30763 617.70089,411.26661 C 615.6845,413.26577 613.33052,414.35914 610.83373,414.45627 C 610.2837,414.47766 609.57533,414.45838 609.25956,414.41342 z"
         style="fill:#000000" />
      <path
         sodipodi:nodetypes="cccc"
         id="path6613"
         d="M 558.89933,487.06074 L 572.74865,487.06074 L 565.54135,499.63818 L 558.89933,487.06074 z"
         style="fill:none;fill-rule:evenodd;stroke:#000000;stroke-width:2;stroke-linecap:butt;stroke-linejoin:miter;stroke-miterlimit:4;stroke-dasharray:none;stroke-opacity:1" />
    </g>
    <path
       style="fill:none;fill-rule:evenodd;stroke:#000000;stroke-width:2;stroke-linecap:butt;stroke-linejoin:miter;stroke-miterlimit:4;stroke-dasharray:none;stroke-opacity:1"
       d="M 94.355342,130.0349 C 332.23226,131.72198 319.89885,131.07285 319.89885,131.07285"
       id="path8560"
       sodipodi:nodetypes="cc" />
    <path
       style="fill:#000000"
       d="M 146.58458,232.26058 C 145.96041,232.02208 146.01047,231.64896 147.35846,226.49294 C 148.0642,223.79349 148.64867,221.46547 148.65728,221.31955 C 148.70546,220.50305 148.61816,220.15849 148.28229,219.83953 C 147.44527,219.04468 146.27139,219.95253 145.64081,221.88239 C 145.12334,223.46608 145.04498,223.63614 144.78979,223.72913 C 144.66793,223.77354 144.47902,223.72517 144.37,223.62163 C 143.98831,223.25916 144.98092,220.55216 145.83375,219.62976 C 146.91794,218.4571 148.92404,218.48539 150.16507,219.69081 C 150.53854,220.05356 150.68645,220.31222 150.93377,221.03515 C 151.00572,221.24542 151.14851,221.16541 151.91235,220.48685 C 153.00051,219.52022 154.02808,219.02315 155.33551,218.83096 C 157.34848,218.53507 159.01904,219.1527 159.71085,220.44859 C 160.43763,221.80996 160.17509,223.47532 158.57359,227.66279 C 157.635,230.11696 157.5164,230.87574 157.9997,231.33469 C 158.15335,231.48061 158.38495,231.6 158.51434,231.6 C 158.98615,231.6 159.96966,231.03087 160.42716,230.49314 C 161.00758,229.81091 161.16957,229.52174 161.62778,228.35004 C 161.94261,227.54499 162.03669,227.42148 162.33504,227.42148 C 162.64828,227.42148 162.67812,227.47177 162.6674,227.98159 C 162.65308,228.66267 161.8709,230.22745 161.14001,231.03717 C 160.32412,231.94103 159.50092,232.33052 158.41876,232.32467 C 156.68554,232.31531 155.73742,231.52281 155.65092,230.01116 C 155.60721,229.24736 155.67636,228.95308 156.24092,227.50035 C 157.70693,223.72799 158.15812,221.43208 157.62504,220.45733 C 157.25817,219.78653 156.58209,219.49393 155.62629,219.59231 C 154.02536,219.75708 152.50829,220.78247 151.22344,222.56821 C 150.61821,223.40939 150.5406,223.63042 149.61071,227.16117 C 149.07342,229.20125 148.53537,231.12539 148.41507,231.43701 C 148.10414,232.2424 147.38441,232.56621 146.58458,232.26058 z M 133.62456,221.13653 C 131.77181,220.67192 130.59056,219.00334 130.81732,217.17116 C 130.90822,216.43667 132.12975,213.16165 134.14349,208.25344 C 135.85956,204.07072 136.12206,202.7121 135.36246,201.94426 C 135.11513,201.69425 134.89966,201.62089 134.41259,201.62089 C 132.58867,201.62089 130.90735,203.466 129.78906,206.69479 C 129.357,207.94226 129.3265,207.98815 128.92919,207.98815 C 128.70056,207.98815 128.48311,207.90359 128.4405,207.79815 C 128.31778,207.49446 129.26144,205.05548 129.9347,203.93622 C 130.71327,202.6419 131.82468,201.56012 132.84058,201.10782 C 133.99303,200.59473 135.42129,200.61577 136.48812,201.16154 C 137.8894,201.87841 138.65121,203.47383 138.34115,205.04228 C 138.25883,205.45869 137.24183,208.17525 136.08114,211.07907 C 133.37988,217.83707 133.16942,218.55479 133.56941,219.64442 C 133.75821,220.15873 134.06019,220.32466 134.80735,220.32466 C 136.61238,220.32466 138.35271,218.36428 139.48833,215.0518 C 139.84463,214.01251 139.88403,213.95743 140.2711,213.95743 C 140.62523,213.95743 140.67869,214.00657 140.67869,214.33215 C 140.67869,214.53824 140.52635,215.13221 140.34015,215.65206 C 139.48481,218.04022 137.91264,220.10045 136.41436,220.79658 C 135.61554,221.16772 134.35933,221.3208 133.62456,221.13653 z M 149.86084,202.14767 C 148.6183,201.85114 147.76468,201.23655 147.19463,200.22806 C 146.90741,199.71996 146.89173,199.48939 146.82485,194.78937 L 146.75501,189.88129 L 145.32323,189.8435 L 143.89145,189.80569 L 143.89145,189.41237 C 143.89145,189.07205 143.94321,189.01889 144.27558,189.01777 C 145.36739,189.01409 146.83432,187.88651 147.47429,186.55902 C 147.82319,185.83532 148.21502,184.32102 148.21929,183.67987 C 148.22147,183.35183 148.27098,183.31508 148.71061,183.31508 L 149.19951,183.31508 L 149.19951,186.10075 L 149.19951,188.88641 L 151.57416,188.88641 L 153.94882,188.88641 L 153.94882,189.35069 L 153.94882,189.81497 L 151.56781,189.81497 L 149.1868,189.81497 L 149.22807,194.75622 C 149.26866,199.61509 149.27469,199.70694 149.58928,200.26643 C 150.44249,201.78383 152.26812,201.69506 153.11071,200.09522 C 153.40832,199.53014 153.46685,199.21162 153.50686,197.93984 L 153.5538,196.44751 L 154.0479,196.44751 L 154.542,196.44751 L 154.48246,198.03334 C 154.42645,199.52483 154.39428,199.67247 153.94142,200.5154 C 153.31507,201.68127 152.56897,202.15885 151.26734,202.22705 C 150.78305,202.25244 150.15014,202.2167 149.86084,202.14767 z M 157.86002,201.52141 C 157.86002,201.1118 157.88614,201.09025 158.38383,201.08955 C 159.15412,201.08847 159.93214,200.84865 160.09334,200.56261 C 160.18454,200.40078 160.23467,197.22451 160.23467,191.60845 L 160.23467,182.90505 L 159.90816,182.59499 C 159.6703,182.36911 159.34789,182.25916 158.72082,182.19004 L 157.86002,182.09516 L 157.86002,181.64391 C 157.86002,181.30275 157.91966,181.19255 158.10447,181.1922 C 158.45849,181.19155 161.46885,180.94023 162.08551,180.85985 L 162.60933,180.79157 L 162.60933,185.9528 L 162.60933,191.11402 L 163.55221,190.22023 C 164.84141,188.99812 165.62754,188.70773 167.66257,188.70187 C 169.09226,188.69774 169.19294,188.71652 170.10166,189.15678 C 171.20509,189.69137 171.73541,190.36487 171.96591,191.52438 C 172.04403,191.91736 172.10795,194.0553 172.10795,196.27536 C 172.10795,198.74396 172.16285,200.40923 172.24927,200.56261 C 172.41048,200.84865 173.18849,201.08847 173.95878,201.08955 C 174.45649,201.09025 174.4826,201.11179 174.48256,201.52141 L 174.48252,201.95252 L 170.8507,201.95252 L 167.21889,201.95252 L 167.21891,201.54058 C 167.21896,201.12901 167.21976,201.1286 168.15535,201.04562 C 169.75066,200.90415 169.66346,201.20286 169.66346,195.87987 C 169.66346,191.49412 169.65313,191.31924 169.35866,190.7139 C 168.85421,189.67691 167.80402,189.25046 166.45876,189.53635 C 164.44275,189.9648 163.10881,191.31219 162.74693,193.28562 C 162.65094,193.80916 162.60747,195.35611 162.63472,197.28012 C 162.68741,201.00187 162.64921,200.90923 164.18727,201.04562 C 165.12287,201.1286 165.12367,201.12901 165.12367,201.54058 L 165.12367,201.95252 L 161.49184,201.95252 L 157.86002,201.95252 L 157.86002,201.52141 z M 137.18654,194.2254 C 135.85437,193.59342 136.33685,191.52224 137.95277,190.9362 C 139.01152,190.55221 139.87041,190.89437 140.25267,191.8524 C 140.56209,192.62788 139.95264,193.72352 138.95737,194.18106 C 138.22388,194.51827 137.82493,194.52825 137.18654,194.2254 z"
       id="path6694" />
    <path
       style="fill:#000000"
       d="M 247.39354,234.39215 C 247.23658,234.28157 247.15162,234.01764 247.15162,233.64062 C 247.15162,233.32101 247.61818,230.80587 248.18841,228.05142 C 248.75864,225.29696 249.22519,222.73704 249.22519,222.3627 C 249.22519,221.86302 249.13499,221.57297 248.88588,221.27165 C 248.49041,220.79329 248.38021,220.77589 247.84929,221.10799 C 247.31353,221.44311 246.9689,222.17805 246.53401,223.91287 C 246.24237,225.07623 246.11397,225.37599 245.90727,225.37599 C 245.7643,225.37599 245.61085,225.30461 245.56627,225.21736 C 245.33756,224.76973 246.34897,221.61281 246.97385,220.82387 C 247.67943,219.93303 248.84875,219.82107 249.91026,220.54272 C 250.42995,220.89603 251.02229,221.79116 251.02229,222.22321 C 251.02229,222.75453 251.22774,222.67219 251.94262,221.85437 C 253.23074,220.38077 254.85737,219.77309 256.4253,220.17974 C 257.36542,220.42356 257.96815,220.91738 258.3761,221.77802 C 259.00953,223.11438 258.72883,225.3317 257.37785,229.66332 C 256.66359,231.95343 256.55859,232.83442 256.93322,233.39403 C 257.19058,233.77848 257.24015,233.79066 257.76854,233.59917 C 258.54715,233.31699 259.34124,232.17261 259.89477,230.53504 C 260.26692,229.43404 260.39126,229.21634 260.62481,229.25687 C 261.02314,229.326 260.94283,230.16045 260.40717,231.51808 C 259.36435,234.16111 257.46637,235.22787 255.88127,234.06186 C 255.30124,233.63519 254.83533,232.42013 254.92965,231.58009 C 254.96685,231.24875 255.27821,230.03708 255.62155,228.88749 C 257.19928,223.60493 257.2014,221.2851 255.62882,220.92825 C 254.99319,220.78401 253.98872,221.11598 253.18834,221.73482 C 252.48564,222.27814 251.31183,223.9001 250.94544,224.83407 C 250.82634,225.13766 250.33278,227.28303 249.84864,229.60157 C 249.08778,233.24535 248.91914,233.86834 248.60525,234.19492 C 248.21746,234.59841 247.78598,234.66864 247.39354,234.39215 z M 236.52484,222.62717 C 235.81104,222.34627 235.21278,221.70305 234.80456,220.77761 C 234.58039,220.26942 234.51162,219.82759 234.51828,218.93826 C 234.5262,217.87902 234.6552,217.35451 235.87545,213.4202 C 238.05483,206.39346 238.45408,204.96353 238.53479,203.8957 C 238.6005,203.02639 238.56912,202.82168 238.30949,202.42588 C 238.07134,202.06283 237.89242,201.96605 237.45942,201.96605 C 235.93755,201.96605 234.58962,203.867 233.60596,207.4005 C 233.27822,208.57779 233.19363,208.73821 232.90054,208.73821 C 232.60225,208.73821 232.57071,208.67259 232.59814,208.1091 C 232.66747,206.68471 234.08643,203.35242 235.06715,202.31084 C 236.51294,200.77534 238.35023,200.57871 239.60083,201.82564 C 240.39877,202.62123 240.71881,203.50909 240.70625,204.89229 C 240.69646,205.97155 240.55021,206.53199 238.83002,212.08249 C 236.87482,218.39126 236.64553,219.25668 236.64553,220.32746 C 236.64553,221.8612 237.75846,222.34781 239.03195,221.3709 C 240.07348,220.57193 240.80654,219.18294 241.55131,216.59726 C 241.90327,215.37535 242.04179,215.08227 242.2879,215.03881 C 242.75657,214.95604 242.77774,215.3558 242.38051,216.78716 C 241.12105,221.32548 238.88471,223.55583 236.52484,222.62717 z M 283.50822,210.45827 C 283.50822,210.01201 283.53678,209.99231 284.1841,209.99231 C 284.64362,209.99231 284.96444,209.88998 285.18632,209.67263 L 285.51267,209.35294 L 285.51267,200.98344 C 285.51267,191.42531 285.60556,192.10219 284.27555,191.96877 C 283.54472,191.89546 283.50822,191.86978 283.50822,191.4289 L 283.50822,190.966 L 284.92516,190.8575 C 285.70448,190.79782 286.57538,190.70784 286.86049,190.65755 L 287.37888,190.5661 L 287.37888,191.50048 C 287.37888,192.01439 287.41414,192.43485 287.45723,192.43485 C 287.50032,192.43485 287.73404,192.25174 287.97662,192.02793 C 290.76848,189.45213 294.89185,190.59662 296.54708,194.40678 C 298.52974,198.97066 296.25472,204.21363 291.94125,205.02124 C 290.38461,205.31269 289.27611,204.95663 287.82816,203.7001 L 287.51712,203.43018 L 287.51712,206.45094 C 287.51712,209.38296 287.52615,209.47936 287.82436,209.73201 C 287.99835,209.87942 288.41802,209.99231 288.79202,209.99231 C 289.42074,209.99231 289.45246,210.01445 289.45246,210.45331 L 289.45246,210.91431 L 286.48034,210.91927 L 283.50822,210.92422 L 283.50822,210.45827 z M 291.98818,203.96807 C 292.8799,203.5645 294.0176,202.20737 294.42283,201.06385 C 295.64309,197.6204 294.70374,193.35832 292.42769,192.01134 C 291.75808,191.61506 291.5374,191.56532 290.77668,191.63918 C 289.73005,191.7408 288.70062,192.35617 287.99355,193.30285 L 287.51712,193.94074 L 287.51712,197.71088 C 287.51712,201.90369 287.52193,201.93074 288.46272,203.03245 C 289.02515,203.6911 290.16096,204.29134 290.86421,204.30158 C 291.07044,204.30458 291.57623,204.1545 291.98818,203.96807 z M 248.69795,204.96656 C 247.56894,204.72341 246.50265,204.0402 246.03597,203.26095 C 245.69743,202.69565 245.63101,202.42339 245.63101,201.60116 C 245.63101,200.4465 245.84499,199.74602 246.45402,198.90698 C 247.40643,197.59487 249.23812,196.73946 251.75493,196.43144 C 252.60649,196.32722 253.38889,196.21175 253.49359,196.17484 C 253.6422,196.12246 253.66312,195.88478 253.58895,195.09177 C 253.42579,193.34732 252.94647,192.36503 251.94739,191.72762 C 251.20031,191.25098 249.75361,191.22346 248.68891,191.66563 L 247.94527,191.97446 L 248.37788,192.38399 C 248.74026,192.72705 248.81048,192.90765 248.81048,193.49666 C 248.81048,194.38748 248.51484,194.90089 247.92475,195.03479 C 247.40645,195.15241 246.68751,194.79542 246.5463,194.35032 C 246.39604,193.87665 246.45362,192.93583 246.66282,192.44647 C 247.20191,191.18549 248.48466,190.53692 250.46934,190.52186 C 252.73219,190.50469 254.2687,191.36548 255.08586,193.10816 L 255.51502,194.02339 L 255.58414,198.59505 C 255.65303,203.15158 255.65434,203.16778 255.97961,203.48606 C 256.39267,203.89024 256.71107,203.89018 257.12401,203.48585 C 257.41566,203.20028 257.45549,203.00471 257.49867,201.6465 L 257.54698,200.12669 L 257.94794,200.12669 L 258.3489,200.12669 L 258.34813,201.25539 C 258.34771,201.87617 258.28399,202.66006 258.20654,202.99738 C 257.93464,204.18151 256.56128,205.14074 255.4869,204.89694 C 254.8768,204.7585 254.23493,204.04769 254.01467,203.26661 L 253.83916,202.64421 L 253.33201,203.3781 C 252.36429,204.77847 250.61262,205.37891 248.69795,204.96656 z M 251.24515,204.05999 C 251.62342,203.92411 252.18725,203.5496 252.49811,203.22774 C 253.31571,202.38121 253.53376,201.58905 253.61634,199.16521 L 253.68614,197.11684 L 253.07996,197.11975 C 251.55243,197.12706 249.73314,197.88494 248.79998,198.90269 C 247.16425,200.68669 247.4094,203.20373 249.30045,204.04129 C 250.01284,204.35681 250.40826,204.36061 251.24515,204.05999 z M 260.00776,204.28594 C 260.00776,203.8739 260.05508,203.84206 260.77509,203.76984 C 262.06718,203.64023 262.01221,203.89876 262.01221,197.95159 C 262.01221,192.86897 262.00698,192.77224 261.71271,192.41629 C 261.51203,192.17356 261.18133,192.02707 260.71048,191.97234 C 260.05062,191.89564 260.00776,191.86235 260.00776,191.42639 L 260.00776,190.96211 L 261.49382,190.85277 C 262.31115,190.79263 263.15095,190.70416 263.36003,190.65618 L 263.74018,190.56893 L 263.74668,192.12894 L 263.75317,193.68896 L 264.12683,193.10371 C 264.76225,192.10849 265.29957,191.56389 266.09023,191.1137 C 266.74788,190.73925 267.02786,190.68223 268.1638,190.69145 C 269.24156,190.7002 269.59609,190.77155 270.14083,191.08931 C 270.83372,191.4935 271.35226,192.17036 271.62057,193.02084 L 271.77859,193.52174 L 272.07843,193.0201 C 272.58437,192.17367 273.17506,191.58113 273.9698,191.12282 C 274.61409,190.75127 274.91995,190.68397 275.97425,190.68174 C 277.08256,190.6794 277.30895,190.73388 278.04782,191.18075 C 278.70002,191.5752 278.95109,191.84317 279.22284,192.43485 C 279.56461,193.17899 279.5692,193.24231 279.63756,198.15621 C 279.71694,203.86298 279.66543,203.64161 280.9438,203.76984 C 281.6638,203.84206 281.71113,203.8739 281.71113,204.28594 L 281.71113,204.72508 L 278.73901,204.72508 L 275.76689,204.72508 L 275.76689,204.28594 C 275.76689,203.87297 275.81342,203.84214 276.54792,203.76847 C 277.09434,203.71365 277.385,203.59738 277.51558,203.38137 C 277.66214,203.13893 277.70157,202.04708 277.69919,198.29718 C 277.69644,193.97237 277.67144,193.45591 277.4343,192.82412 C 276.97163,191.5915 276.07355,191.20278 274.75757,191.66554 C 273.73995,192.02338 272.91982,192.81257 272.3942,193.93978 L 271.96535,194.85946 L 271.9233,198.9562 C 271.87418,203.7428 271.85203,203.64825 273.05053,203.76847 C 273.78503,203.84214 273.83156,203.87297 273.83156,204.28594 L 273.83156,204.72508 L 270.85944,204.72508 L 267.88733,204.72508 L 267.88733,204.28594 C 267.88733,203.8739 267.93465,203.84206 268.65465,203.76984 C 269.93945,203.64096 269.89178,203.85088 269.89178,198.32292 C 269.89178,193.85258 269.87273,193.4764 269.6153,192.86368 C 269.08196,191.59423 268.19047,191.20402 266.878,191.66554 C 265.86038,192.02338 265.04026,192.81257 264.51463,193.93978 L 264.08578,194.85946 L 264.04374,198.9562 C 263.99461,203.7428 263.97246,203.64825 265.17097,203.76847 C 265.90547,203.84214 265.95199,203.87297 265.95199,204.28594 L 265.95199,204.72508 L 262.97988,204.72508 L 260.00776,204.72508 L 260.00776,204.28594 z M 239.45653,194.01091 C 239.14506,193.63415 239.10887,193.47659 239.16667,192.74899 C 239.36153,190.296 242.31603,189.82583 242.31238,192.24839 C 242.30978,193.97447 240.40054,195.15279 239.45653,194.01091 z"
       id="path8576" />
    <path
       style="fill:#000000"
       d="M 545.60346,256.84236 C 545.28009,256.62386 545.20839,256.4659 545.20641,255.96757 C 545.20545,255.72635 545.72305,253.12725 546.35663,250.19178 C 547.61087,244.38069 547.66404,243.9099 547.13815,243.27119 C 546.70109,242.74036 546.17999,242.82793 545.58915,243.53151 C 545.10938,244.10284 544.96061,244.51587 544.29994,247.11065 C 544.23608,247.36146 544.14132,247.43566 543.88486,247.43566 C 543.4251,247.43566 543.40439,247.08764 543.78156,245.69888 C 544.16393,244.29097 544.67319,243.18322 545.16421,242.69129 C 545.84988,242.00438 546.87558,241.89496 547.96531,242.39247 C 548.51649,242.6441 549.22502,243.55749 549.40718,244.25123 L 549.54797,244.78739 L 550.3306,243.945 C 550.79179,243.44858 551.40905,242.94212 551.83351,242.71185 C 553.95586,241.56051 556.46809,242.01365 557.35726,243.70819 C 558.17088,245.25876 557.93502,247.14928 556.30443,252.1469 C 555.49959,254.61363 555.3973,255.36038 555.80109,255.82112 C 556.08996,256.15071 556.59722,256.15359 557.15521,255.82878 C 557.92735,255.37931 558.68651,254.17558 559.14889,252.66758 C 559.47192,251.61405 559.52285,251.53088 559.84501,251.53088 C 560.39901,251.53088 560.27502,252.42122 559.47838,254.16351 C 558.95221,255.31426 558.35841,256.0672 557.60765,256.53558 C 557.09801,256.85353 556.86604,256.9164 556.19988,256.91708 C 555.25714,256.91804 554.60799,256.57533 554.04857,255.78129 C 553.75334,255.36225 553.69351,255.15311 553.65807,254.41621 C 553.62085,253.64238 553.67237,253.37319 554.12316,251.98591 C 555.27113,248.45312 555.80388,246.26979 555.79859,245.11954 C 555.79515,244.37242 555.43647,243.53179 554.98165,243.20494 C 554.46152,242.83116 553.25223,242.90452 552.37666,243.36299 C 551.23222,243.96223 549.6585,245.93329 549.18864,247.35591 C 549.07969,247.68579 548.59452,249.79854 548.11049,252.05092 C 547.35176,255.58155 547.18818,256.19597 546.92403,256.50759 C 546.57712,256.91684 545.94925,257.07601 545.60346,256.84236 z M 530.88773,244.88821 C 529.50998,244.62557 528.24246,243.84203 527.60621,242.85971 C 526.96521,241.87004 526.69409,240.69596 526.69648,238.9202 C 526.69949,236.68836 526.83776,236.1075 529.19432,228.42694 C 530.04784,225.64516 530.01613,224.19108 529.0944,223.84399 C 528.56937,223.64628 527.69195,223.91622 527.0172,224.48304 C 526.01603,225.32407 525.0368,227.24591 524.41396,229.5922 C 524.12261,230.68968 524.10005,230.72975 523.77348,230.72975 C 523.56047,230.72975 523.40752,230.64811 523.36091,230.50952 C 523.22873,230.1165 523.65596,228.62132 524.37203,226.97094 C 525.21133,225.03649 526.15587,223.81688 527.27188,223.22653 C 528.21832,222.72588 529.50595,222.72162 530.3355,223.21638 C 531.38554,223.84263 532.00252,224.86972 532.16371,226.2598 C 532.26886,227.16657 532.10403,227.94008 531.25271,230.53475 C 529.07185,237.18156 528.67989,240.82012 529.9322,242.79268 C 530.54845,243.76335 531.81346,244.25897 532.98138,243.9873 C 535.82947,243.3248 538.4022,239.09971 539.74791,232.87487 C 540.39755,229.86985 540.12077,228.0893 538.72114,226.26945 C 538.2303,225.63125 538.14039,225.434 538.14039,224.99542 C 538.14039,224.05825 538.73819,223.21597 539.61642,222.91575 C 540.15163,222.73278 540.52118,222.82526 540.96757,223.25383 C 541.90223,224.1512 541.98551,226.09606 541.26538,230.20973 C 540.01226,237.36818 537.49833,242.67508 534.58914,244.30326 C 533.35192,244.99569 532.31293,245.15989 530.88773,244.88821 z M 585.88125,232.38734 L 585.88125,231.89982 L 586.49092,231.89982 C 587.22587,231.89982 587.78338,231.69702 587.93458,231.37466 C 588.00403,231.22659 588.04611,227.96661 588.04611,222.73433 C 588.04611,217.50204 588.00403,214.24206 587.93458,214.09398 C 587.78338,213.77163 587.22587,213.56882 586.49092,213.56882 L 585.88125,213.56882 L 585.88125,213.061 L 585.88125,212.55317 L 586.42246,212.47662 C 586.72013,212.43452 587.52768,212.34002 588.21702,212.26662 C 588.90636,212.19322 589.61136,212.10664 589.7837,212.07421 L 590.09703,212.01524 L 590.09703,212.98705 C 590.09703,213.97312 590.17198,214.13197 590.45339,213.74231 C 590.72932,213.36023 591.7534,212.68207 592.50269,212.38522 C 593.58412,211.9568 595.32511,211.97287 596.43233,212.42148 C 600.93303,214.24503 602.2545,220.82672 598.88144,224.61957 C 596.55279,227.23803 592.83264,227.69426 590.81016,225.60941 C 590.55942,225.35093 590.32203,225.13945 590.28262,225.13945 C 590.24321,225.13945 590.21097,226.48177 590.21097,228.12237 C 590.21097,231.0764 590.21359,231.10876 590.48209,231.46491 C 590.72139,231.78234 590.84841,231.83069 591.56452,231.87685 L 592.37583,231.92916 L 592.37583,232.40202 L 592.37583,232.87487 L 589.12854,232.87487 L 585.88125,232.87487 L 585.88125,232.38734 z M 595.04877,225.78031 C 595.7756,225.47002 596.80851,224.45976 597.29907,223.57937 C 597.73748,222.79256 598.15929,221.22046 598.24566,220.05133 C 598.44613,217.33823 597.20348,214.30594 595.50919,213.37385 C 594.81288,212.99078 593.50715,212.95627 592.70566,213.29974 C 591.81934,213.67956 591.06693,214.27724 590.60373,214.9694 L 590.21097,215.55632 L 590.21097,219.40766 L 590.21097,223.25899 L 590.51146,223.7767 C 591.66099,225.75719 593.35287,226.5043 595.04877,225.78031 z M 548.68523,226.81507 C 547.01915,226.53806 545.75676,225.69464 545.30323,224.55553 C 545.00509,223.80672 545.01962,222.44908 545.33393,221.68612 C 546.22109,219.53265 548.66827,218.26208 552.58228,217.92282 L 553.63623,217.83145 L 553.63623,216.87508 C 553.63623,215.01047 552.78892,213.48312 551.47915,212.98674 C 550.74785,212.70959 549.4372,212.76556 548.5659,213.11114 C 547.68311,213.46129 547.6585,213.52187 548.17238,214.07965 C 548.57383,214.51539 548.62287,214.63592 548.62287,215.18678 C 548.62287,215.71645 548.56741,215.86823 548.23547,216.24697 C 547.9048,216.62427 547.76966,216.689 547.31256,216.689 C 546.85546,216.689 546.72032,216.62427 546.38964,216.24697 C 546.04486,215.85357 546.00245,215.72844 546.00413,215.10941 C 546.00935,213.16952 547.69206,211.95904 550.38894,211.95516 C 552.7861,211.95169 554.63757,213.01279 555.42439,214.84102 L 555.74412,215.58393 L 555.80109,220.07528 C 555.85235,224.11658 555.87864,224.60241 556.06341,224.92385 C 556.49312,225.67134 557.25255,225.65236 557.70959,224.88269 C 557.93249,224.50731 557.96595,224.28381 557.96595,223.17012 L 557.96595,221.88927 L 558.36474,221.88927 L 558.76353,221.88927 L 558.76103,223.22185 C 558.7591,224.24931 558.70891,224.6791 558.54187,225.09893 C 558.26483,225.7952 557.55581,226.38329 556.76862,226.56976 C 555.54865,226.85873 554.80136,226.43653 554.2371,225.13945 C 554.03492,224.67468 553.86828,224.36121 553.8668,224.44286 C 553.86111,224.75723 552.82236,225.89311 552.19063,226.27576 C 551.15739,226.90162 550.14374,227.05757 548.68523,226.81507 z M 551.59926,225.69521 C 552.68843,225.14419 553.40139,224.08149 553.63866,222.6554 C 553.70796,222.23891 553.72422,221.28136 553.67873,220.29669 L 553.60215,218.6391 L 553.13495,218.64081 C 552.35747,218.64365 550.59106,219.11795 549.81526,219.53219 C 548.96514,219.98611 548.01715,220.94532 547.68543,221.68724 C 547.3559,222.42425 547.28654,223.66554 547.54073,224.27673 C 547.78283,224.85887 548.59202,225.69641 549.10313,225.89387 C 549.66517,226.11101 550.98501,226.00597 551.59926,225.69521 z M 560.58657,226.03167 L 560.58657,225.55882 L 561.39789,225.50651 C 562.114,225.46034 562.24101,225.412 562.48032,225.09457 L 562.75143,224.73493 L 562.75143,219.68037 C 562.75143,216.64687 562.70616,214.48996 562.63822,214.28604 C 562.49421,213.85388 561.90669,213.56882 561.15993,213.56882 L 560.58657,213.56882 L 560.58657,213.06023 C 560.58657,212.46883 560.49158,212.5028 562.8084,212.26577 C 563.5604,212.18885 564.28946,212.09887 564.42852,212.06585 C 564.67749,212.00672 564.68186,212.03029 564.71338,213.59986 L 564.74538,215.19392 L 565.05241,214.59801 C 565.94215,212.87114 567.8196,211.87142 569.80204,212.06889 C 571.42934,212.23099 572.33318,212.83875 572.89972,214.15183 L 573.26289,214.99356 L 573.60265,214.40828 C 574.60469,212.68216 576.5579,211.78757 578.60382,212.11769 C 580.12815,212.36366 581.18214,213.23915 581.56777,214.57966 C 581.66226,214.90813 581.72787,216.6416 581.77173,219.96831 C 581.83583,224.8306 581.83858,224.87521 582.09215,225.16429 C 582.29643,225.39718 582.50864,225.46626 583.1461,225.50736 L 583.94428,225.55882 L 583.94428,226.03167 L 583.94428,226.50453 L 580.69698,226.50453 L 577.44969,226.50453 L 577.44969,226.017 L 577.44969,225.52947 L 578.08002,225.52947 C 578.87136,225.52947 579.47059,225.2562 579.55881,224.8551 C 579.59529,224.68928 579.60994,222.35993 579.59136,219.67876 L 579.55758,214.8039 L 579.27274,214.15386 C 578.86915,213.23287 578.25278,212.8783 577.19231,212.95706 C 575.6708,213.07005 574.24247,214.25582 573.66811,215.88274 C 573.41842,216.59005 573.40481,216.80532 573.37085,220.58425 C 573.35128,222.76239 573.36556,224.68222 573.40259,224.85055 C 573.49187,225.25648 574.08689,225.52947 574.88238,225.52947 L 575.51272,225.52947 L 575.51272,226.017 L 575.51272,226.50453 L 572.26543,226.50453 L 569.01813,226.50453 L 569.01813,226.03167 L 569.01813,225.55882 L 569.82945,225.50651 C 570.54556,225.46034 570.67258,225.412 570.91188,225.09457 L 571.18299,224.73493 L 571.18164,220.09443 C 571.17996,214.32254 571.08828,213.78731 569.99818,213.18519 C 568.73497,212.48745 566.80353,213.24209 565.77261,214.83618 C 564.99743,216.03482 564.91629,216.61282 564.91629,220.93647 C 564.91629,223.18616 564.96231,224.86464 565.02782,225.00432 C 565.17903,225.32667 565.73653,225.52947 566.47148,225.52947 L 567.08115,225.52947 L 567.08115,226.017 L 567.08115,226.50453 L 563.83386,226.50453 L 560.58657,226.50453 L 560.58657,226.03167 z"
       id="path8591" />
  </g>
</svg>
