<?xml version="1.0" encoding="UTF-8" standalone="no"?>
<!-- Created with Inkscape (http://www.inkscape.org/) -->

<svg
   xmlns:dc="http://purl.org/dc/elements/1.1/"
   xmlns:cc="http://creativecommons.org/ns#"
   xmlns:rdf="http://www.w3.org/1999/02/22-rdf-syntax-ns#"
   xmlns:svg="http://www.w3.org/2000/svg"
   xmlns="http://www.w3.org/2000/svg"
   xmlns:sodipodi="http://sodipodi.sourceforge.net/DTD/sodipodi-0.dtd"
   xmlns:inkscape="http://www.inkscape.org/namespaces/inkscape"
   width="230mm"
   height="80mm"
   id="svg5444"
   sodipodi:version="0.32"
   inkscape:version="0.48.4 r9939"
   sodipodi:docname="pd_resistance.svg"
   inkscape:output_extension="org.inkscape.output.svg.inkscape"
   version="1.0">
  <defs
     id="defs5446">
    <marker
       inkscape:stockid="Arrow1Send"
       orient="auto"
       refY="0"
       refX="0"
       id="Arrow1Send"
       style="overflow:visible">
      <path
         id="path3517"
         d="M 0,0 L 5,-5 L -12.5,0 L 5,5 L 0,0 z"
         style="fill-rule:evenodd;stroke:#000000;stroke-width:1pt;marker-start:none"
         transform="matrix(-0.2,0,0,-0.2,-1.2,0)" />
    </marker>
    <marker
       inkscape:stockid="Arrow1Lend"
       orient="auto"
       refY="0"
       refX="0"
       id="Arrow1Lend"
       style="overflow:visible">
      <path
         id="path3505"
         d="M 0,0 L 5,-5 L -12.5,0 L 5,5 L 0,0 z"
         style="fill-rule:evenodd;stroke:#000000;stroke-width:1pt;marker-start:none"
         transform="matrix(-0.8,0,0,-0.8,-10,0)" />
    </marker>
    <marker
       inkscape:stockid="Arrow1Mend"
       orient="auto"
       refY="0"
       refX="0"
       id="Arrow1Mend"
       style="overflow:visible">
      <path
         id="path3511"
         d="M 0,0 L 5,-5 L -12.5,0 L 5,5 L 0,0 z"
         style="fill-rule:evenodd;stroke:#000000;stroke-width:1pt;marker-start:none"
         transform="matrix(-0.4,0,0,-0.4,-4,0)" />
    </marker>
    <inkscape:perspective
       sodipodi:type="inkscape:persp3d"
       inkscape:vp_x="0 : 526.18109 : 1"
       inkscape:vp_y="0 : 1000 : 0"
       inkscape:vp_z="744.09448 : 526.18109 : 1"
       inkscape:persp3d-origin="372.04724 : 350.78739 : 1"
       id="perspective5452" />
    <inkscape:perspective
       id="perspective6029"
       inkscape:persp3d-origin="372.04724 : 350.78739 : 1"
       inkscape:vp_z="744.09448 : 526.18109 : 1"
       inkscape:vp_y="0 : 1000 : 0"
       inkscape:vp_x="0 : 526.18109 : 1"
       sodipodi:type="inkscape:persp3d" />
    <inkscape:perspective
       id="perspective6573"
       inkscape:persp3d-origin="372.04724 : 350.78739 : 1"
       inkscape:vp_z="744.09448 : 526.18109 : 1"
       inkscape:vp_y="0 : 1000 : 0"
       inkscape:vp_x="0 : 526.18109 : 1"
       sodipodi:type="inkscape:persp3d" />
    <inkscape:perspective
       id="perspective6622"
       inkscape:persp3d-origin="372.04724 : 350.78739 : 1"
       inkscape:vp_z="744.09448 : 526.18109 : 1"
       inkscape:vp_y="0 : 1000 : 0"
       inkscape:vp_x="0 : 526.18109 : 1"
       sodipodi:type="inkscape:persp3d" />
    <inkscape:perspective
       id="perspective6673"
       inkscape:persp3d-origin="372.04724 : 350.78739 : 1"
       inkscape:vp_z="744.09448 : 526.18109 : 1"
       inkscape:vp_y="0 : 1000 : 0"
       inkscape:vp_x="0 : 526.18109 : 1"
       sodipodi:type="inkscape:persp3d" />
    <inkscape:perspective
       id="perspective6688"
       inkscape:persp3d-origin="372.04724 : 350.78739 : 1"
       inkscape:vp_z="744.09448 : 526.18109 : 1"
       inkscape:vp_y="0 : 1000 : 0"
       inkscape:vp_x="0 : 526.18109 : 1"
       sodipodi:type="inkscape:persp3d" />
    <inkscape:perspective
       id="perspective6703"
       inkscape:persp3d-origin="372.04724 : 350.78739 : 1"
       inkscape:vp_z="744.09448 : 526.18109 : 1"
       inkscape:vp_y="0 : 1000 : 0"
       inkscape:vp_x="0 : 526.18109 : 1"
       sodipodi:type="inkscape:persp3d" />
    <inkscape:perspective
       id="perspective6718"
       inkscape:persp3d-origin="372.04724 : 350.78739 : 1"
       inkscape:vp_z="744.09448 : 526.18109 : 1"
       inkscape:vp_y="0 : 1000 : 0"
       inkscape:vp_x="0 : 526.18109 : 1"
       sodipodi:type="inkscape:persp3d" />
  </defs>
  <sodipodi:namedview
     id="base"
     pagecolor="#ffffff"
     bordercolor="#666666"
     borderopacity="1.0"
     inkscape:pageopacity="0.0"
     inkscape:pageshadow="2"
     inkscape:zoom="0.60301487"
     inkscape:cx="516.24927"
     inkscape:cy="90.433308"
     inkscape:document-units="px"
     inkscape:current-layer="layer1"
     showgrid="false"
     inkscape:window-width="957"
     inkscape:window-height="667"
     inkscape:window-x="370"
     inkscape:window-y="48"
     inkscape:window-maximized="0" />
  <metadata
     id="metadata5449">
    <rdf:RDF>
      <cc:Work
         rdf:about="">
        <dc:format>image/svg+xml</dc:format>
        <dc:type
           rdf:resource="http://purl.org/dc/dcmitype/StillImage" />
      </cc:Work>
    </rdf:RDF>
  </metadata>
  <g
     inkscape:label="Calque 1"
     inkscape:groupmode="layer"
     id="layer1">
    <g
       id="g4288"
       transform="translate(44.08363,11.246893)">
      <g
         id="g4283">
        <path
           style="fill:none;fill-rule:evenodd;stroke:#000000;stroke-width:2;stroke-linecap:butt;stroke-linejoin:miter;stroke-miterlimit:4;stroke-dasharray:none;stroke-opacity:1"
           d="M 77.258121,38.376235 C 77.258121,191.83415 77.258121,194.05621 77.258121,194.05621"
           id="path2701"
           sodipodi:nodetypes="cc" />
        <path
           style="fill:#000000;fill-opacity:1;fill-rule:evenodd;stroke:#000000;stroke-width:1px;stroke-linecap:butt;stroke-linejoin:miter;stroke-opacity:1"
           d="M 77.426391,101.51603 L 56.259783,133.26594 L 98.25646,133.26594 L 77.426391,101.51603 z"
           id="path2703"
           sodipodi:nodetypes="cccc" />
        <path
           style="fill:none;fill-rule:evenodd;stroke:#000000;stroke-width:3;stroke-linecap:butt;stroke-linejoin:miter;stroke-miterlimit:4;stroke-dasharray:none;stroke-opacity:1"
           d="M 52.917755,101.13964 C 52.514792,101.47618 101.60095,101.05108 101.60095,101.05108"
           id="path2705"
           sodipodi:nodetypes="cc" />
      </g>
      <g
         transform="translate(5.3403619,-23.734942)"
         id="g4279">
        <path
           style="fill:none;stroke:#000000;stroke-width:2;stroke-linecap:butt;stroke-linejoin:miter;stroke-miterlimit:4;stroke-opacity:1;stroke-dasharray:none;marker-end:url(#Arrow1Mend)"
           d="m 21.072429,118.8109 20.768074,13.64759"
           id="path3497"
           inkscape:connector-curvature="0"
           sodipodi:nodetypes="cc" />
        <path
           style="fill:none;stroke:#000000;stroke-width:2;stroke-linecap:butt;stroke-linejoin:miter;stroke-miterlimit:4;stroke-opacity:1;stroke-dasharray:none;marker-end:url(#Arrow1Mend)"
           d="m 21.072429,136.78432 20.768074,13.64759"
           id="path4277"
           inkscape:connector-curvature="0"
           sodipodi:nodetypes="cc" />
      </g>
    </g>
    <path
       style="fill:#000000"
       d="M 40.59875,138.61628 L 40.59875,138.21257 L 41.27396,138.1679 C 42.39968,138.09345 42.30565,138.77963 42.30565,130.63971 C 42.30565,122.51661 42.40053,123.21298 41.28093,123.11922 L 40.59875,123.06209 L 40.59875,122.64438 L 40.59875,122.22667 L 41.90263,122.15647 C 42.61976,122.11787 43.38786,122.05974 43.60952,122.02731 L 44.01254,121.96834 L 44.01254,122.75212 C 44.01254,123.18319 44.03301,123.53589 44.05803,123.53589 C 44.08305,123.53589 44.32841,123.33571 44.60328,123.09103 C 46.93323,121.01703 50.53545,122.04957 51.97138,125.20304 C 52.56971,126.51704 52.72741,128.37867 52.35874,129.7758 C 51.35725,133.57116 47.00735,135.32867 44.46853,132.96373 C 44.27601,132.78439 44.09465,132.63766 44.06551,132.63766 C 43.96137,132.63766 44.01097,137.26114 44.119,137.62389 C 44.24871,138.05942 44.50607,138.18751 45.25146,138.18751 L 45.81426,138.18751 L 45.81426,138.60375 L 45.81426,139.01999 L 43.2065,139.01999 L 40.59875,139.01999 L 40.59875,138.61628 z M 48.36054,132.91339 C 49.79912,131.9969 50.62867,130.00464 50.53173,127.69899 C 50.43006,125.28076 49.40364,123.44788 47.85641,122.92167 C 47.36935,122.75603 47.20564,122.74769 46.6775,122.8616 C 45.80863,123.049 45.1361,123.47259 44.53363,124.21191 L 44.01254,124.85138 L 44.01254,127.86752 C 44.01254,131.32355 44.00714,131.29454 44.82999,132.2577 C 45.51096,133.0548 46.09623,133.31637 47.0956,133.27026 C 47.71951,133.24148 47.94573,133.17765 48.36054,132.91339 z M 32.77549,134.01028 C 30.92794,133.67744 29.41929,132.426 28.63653,130.57696 C 28.23538,129.62938 28.22318,129.56869 28.19035,128.35799 C 28.16512,127.42803 28.19688,126.94863 28.31591,126.4623 C 28.79822,124.49161 30.17183,122.84847 31.8794,122.19957 C 32.77422,121.85951 34.17763,121.83148 35.05135,122.1362 C 37.63827,123.03839 39.31257,126.02028 38.90481,128.99916 C 38.59599,131.25534 37.06328,133.19051 35.09805,133.80552 C 34.54032,133.98006 33.24274,134.09445 32.77549,134.01028 z M 34.81929,132.97863 C 35.6863,132.59302 36.25503,131.88959 36.6275,130.74215 C 37.03946,129.47312 37.02911,126.36051 36.60851,125.02828 C 36.4586,124.55344 36.25093,124.19369 35.86801,123.74546 C 35.19214,122.95435 34.54052,122.64792 33.53412,122.64792 C 32.60164,122.64792 31.93243,122.94498 31.27107,123.6525 C 30.37977,124.60601 30.12237,125.70574 30.19023,128.27043 C 30.24604,130.37996 30.43231,131.1304 31.11815,132.00879 C 32.05471,133.20825 33.46947,133.57898 34.81929,132.97863 z M 58.31613,133.93337 C 57.17748,133.63291 56.38071,132.71949 56.16608,131.46854 C 56.09465,131.0522 56.05561,129.4584 56.05561,126.9583 L 56.05561,123.09191 L 55.01251,123.09191 L 53.96941,123.09191 L 53.96941,122.71851 C 53.96941,122.3581 53.98481,122.34264 54.41216,122.27407 C 55.24931,122.13976 56.00308,121.42399 56.48871,120.30224 C 56.78849,119.6098 57.09871,118.22525 57.09871,117.5798 C 57.09871,117.10324 57.10228,117.09807 57.43061,117.09807 L 57.7625,117.09807 L 57.7625,119.651 L 57.7625,122.20393 L 59.51681,122.20393 L 61.27112,122.20393 L 61.27112,122.64792 L 61.27112,123.09191 L 59.51157,123.09191 L 57.75204,123.09191 L 57.78635,127.28205 C 57.82349,131.81931 57.84501,132.02768 58.3453,132.69464 C 59.14857,133.76553 60.45199,133.23883 60.85239,131.68154 C 60.92885,131.38414 60.98663,130.68926 60.98663,130.06709 L 60.98663,128.97475 L 61.32974,128.97475 L 61.67285,128.97475 L 61.63243,130.38996 C 61.58848,131.929 61.45762,132.45608 60.94229,133.16976 C 60.38936,133.93552 59.4069,134.22119 58.31613,133.93337 z M 7.2194997,127.66129 C 7.0835397,127.60822 7.1022997,126.91371 7.2432297,126.7833 C 7.3084197,126.72297 7.8309697,126.63956 8.4044397,126.59795 C 10.29015,126.46112 10.52128,126.30207 10.864,124.90551 C 10.98144,124.42695 12.13728,119.06549 13.43252,112.99117 C 15.07067,105.30874 15.76823,101.85777 15.72415,101.65396 C 15.68931,101.49281 15.58575,101.32312 15.49403,101.27687 C 15.40231,101.23061 14.77252,101.13769 14.09451,101.07038 L 12.86175,100.94799 L 12.83705,100.615 C 12.7845,99.906683 12.36566,99.949013 19.42513,99.949013 C 26.73033,99.949013 26.63121,99.938903 28.25017,100.84957 C 29.40962,101.50177 30.17585,102.36487 30.69768,103.60651 L 31.0686,104.48908 L 31.06758,105.99295 C 31.06664,107.36569 31.04477,107.55758 30.81672,108.19374 C 30.41248,109.32143 29.97629,110.08559 29.21947,110.992 C 27.75445,112.74659 25.96731,113.87796 23.67126,114.5044 C 23.14863,114.64699 22.23642,114.69982 19.36233,114.75394 L 15.71639,114.82262 L 14.54551,120.31698 C 13.2956,126.18228 13.29436,126.19234 13.7984,126.41665 C 13.92367,126.4724 14.54197,126.55333 15.17239,126.59649 C 16.13878,126.66265 16.32677,126.70505 16.37061,126.86673 C 16.4277,127.07728 16.27636,127.63847 16.15935,127.65008 C 15.86245,127.67955 7.2938297,127.69029 7.2194997,127.66129 z M 22.68037,113.6147 C 24.67898,113.07845 26.03783,112.06517 26.93343,110.44322 C 27.62233,109.19561 28.15975,107.16306 28.24463,105.48419 C 28.31135,104.16429 28.12661,103.42957 27.53401,102.65806 C 26.56828,101.40078 25.69524,101.11755 22.52719,101.03379 C 21.27164,101.00059 19.95768,101.00936 19.60726,101.05329 C 18.49638,101.19254 18.65382,100.76333 17.16929,107.69981 C 16.45608,111.03232 15.8992,113.79164 15.9318,113.83165 C 15.96439,113.87165 17.35656,113.87665 19.02553,113.84277 C 21.21997,113.79821 22.23174,113.73508 22.68037,113.6147 z"
       id="path5390" />
    <path
       style="fill:none;fill-rule:evenodd;stroke:#000000;stroke-width:2;stroke-linecap:butt;stroke-linejoin:miter;stroke-miterlimit:4;stroke-dasharray:none;stroke-opacity:1"
       d="M 120.67616,49.594559 L 249.57141,49.594559 L 250.08358,98.027233 L 259.18445,108.15422 L 244.96187,118.79338 L 259.18445,129.43254 L 244.96187,140.0717 L 259.18445,150.71086 L 244.96187,161.35002 L 259.18445,171.98918 L 249.05924,180.57966 L 249.05924,204.98869"
       id="path5465"
       sodipodi:nodetypes="cccccccccccc" />
    <path
       style="fill:#000000"
       d="M 213.81881,157.01846 C 213.7858,156.92733 213.77917,156.73962 213.80407,156.60132 C 213.8424,156.38837 214.02992,156.33762 215.02843,156.2699 C 216.4044,156.17659 216.72701,156.02984 216.9137,155.41236 C 216.98902,155.16323 217.94255,151.17383 219.03266,146.54704 C 220.39869,140.74911 220.97682,138.06986 220.89287,137.92611 C 220.80748,137.77989 220.45221,137.69526 219.70441,137.64303 C 218.55415,137.56267 218.21616,137.38438 218.45453,136.98372 C 218.58645,136.76198 219.19229,136.74155 226.62028,136.70838 C 233.67814,136.67686 234.65268,136.69783 234.71958,136.88267 C 234.76141,136.99823 234.6634,138.4535 234.50176,140.11658 C 234.19536,143.26926 234.07698,143.70869 233.61709,143.40078 C 233.41843,143.26777 233.39582,143.04753 233.43644,141.64143 C 233.50371,139.31291 233.23132,138.6184 232.01279,138.01151 C 231.46268,137.73753 231.16776,137.71454 227.67497,137.67342 C 224.46253,137.6356 223.90398,137.6592 223.76348,137.83867 C 223.63043,138.00862 221.66239,145.91462 221.65342,146.31519 C 221.65199,146.37886 222.66899,146.41015 223.9134,146.38471 C 225.90039,146.3441 226.23989,146.30312 226.70064,146.04828 C 227.36327,145.68177 227.75056,145.0789 228.09449,143.87852 C 228.329,143.06004 228.40738,142.93181 228.67313,142.93181 C 228.8422,142.93181 229.01586,142.99242 229.05905,143.06649 C 229.17343,143.26269 227.4347,150.67326 227.23256,150.85111 C 226.98203,151.07152 226.63506,150.87575 226.63506,150.51398 C 226.63506,150.34141 226.69478,149.86637 226.76778,149.45833 C 226.93398,148.52926 226.76432,147.91214 226.27056,147.64981 C 226.02405,147.51883 225.21627,147.44447 223.65902,147.40939 L 221.40438,147.35861 L 221.27175,147.89139 C 221.1988,148.18442 220.74968,150.07703 220.2737,152.09719 C 219.51219,155.3292 219.43143,155.79476 219.60114,155.97466 C 219.73515,156.11673 220.22734,156.20516 221.21427,156.26449 L 222.63456,156.34986 L 222.63456,156.75984 L 222.63456,157.16982 L 218.25669,157.17698 C 214.98457,157.18233 213.86366,157.1423 213.81881,157.01846 z M 205.65441,151.12445 C 204.1064,150.83484 202.77041,149.86607 202.13451,148.57204 C 201.83368,147.95987 201.78922,147.70466 201.79385,146.61656 C 201.79819,145.597 201.91278,144.89027 202.41235,142.80216 C 202.7496,141.39252 203.02553,139.9176 203.02553,139.52456 C 203.02553,137.41058 201.60135,135.82027 199.35294,135.42357 C 198.87017,135.33839 197.30916,135.29063 195.75402,135.31344 L 193.00768,135.35374 L 191.52782,141.61086 C 190.7139,145.05228 190.04624,148.03861 190.04413,148.24716 C 190.03791,148.86124 190.47031,149.04802 192.15667,149.15972 C 193.62195,149.25678 193.64788,149.26437 193.68128,149.60607 C 193.75479,150.3581 193.91015,150.33792 188.03893,150.33922 C 185.04675,150.33989 182.53178,150.29666 182.45011,150.24314 C 182.25087,150.11261 182.26103,149.53506 182.46556,149.36379 C 182.55574,149.28828 183.25706,149.19069 184.02405,149.14692 C 185.48504,149.06354 186.13924,148.86499 186.54524,148.38173 C 186.8479,148.02148 193.10519,121.62025 192.98391,121.21519 C 192.86464,120.81679 192.36231,120.67179 190.79448,120.58321 L 189.38447,120.50355 L 189.38447,120.04261 C 189.38447,119.7292 189.46567,119.5356 189.63817,119.43773 C 189.97887,119.24444 202.45562,119.24454 203.94712,119.43785 C 207.38291,119.88315 209.93972,121.45144 211.01903,123.77558 C 211.84897,125.56275 211.66869,127.66217 210.52579,129.51953 C 209.96286,130.43436 208.68195,131.78352 207.70632,132.48924 C 206.74166,133.18701 204.52781,134.26161 203.32164,134.61756 C 202.72703,134.79303 202.24167,134.96788 202.24306,135.00612 C 202.24446,135.04436 202.63645,135.26083 203.11415,135.48718 C 204.23384,136.0177 205.23134,136.98715 205.69876,137.99911 C 206.24178,139.17475 206.26872,140.22498 205.84137,143.55752 C 205.42381,146.81372 205.35579,148.9214 205.64881,149.52404 C 206.1224,150.49806 207.28837,150.76806 208.44894,150.17247 C 209.51747,149.62412 210.63886,148.04485 211.15232,146.36528 C 211.29206,145.90819 211.36168,145.84174 211.66221,145.87862 C 211.96824,145.91617 212.00764,145.97872 211.98852,146.39667 C 211.97656,146.65811 211.75258,147.31939 211.49077,147.86619 C 210.20843,150.54443 208.28719,151.617 205.65441,151.12445 z M 200.68288,134.23057 C 203.32944,133.70116 205.25997,132.40534 206.54693,130.2945 C 207.70132,128.40109 208.20653,125.35169 207.6323,123.7433 C 207.26136,122.70431 206.73402,122.06882 205.80909,121.54622 C 204.43047,120.76726 203.59481,120.63185 200.11052,120.62281 L 196.99876,120.61474 L 196.65979,120.97365 C 196.36654,121.28414 196.11154,122.21717 194.76912,127.89124 L 193.21742,134.44993 L 196.40186,134.44993 C 198.75122,134.44993 199.87385,134.39241 200.68288,134.23057 z"
       id="path6035" />
    <path
       style="fill:#000000;fill-opacity:1;fill-rule:evenodd;stroke:#000000;stroke-width:1px;stroke-linecap:butt;stroke-linejoin:miter;stroke-opacity:1"
       d="M 182.86671,44.581245 L 197.57097,49.482665 L 183.10011,54.850885 L 182.86671,44.581245 z"
       id="path5407"
       sodipodi:nodetypes="cccc" />
    <path
       style="fill:#000000"
       d="m 138.13261,42.808841 c 0,-0.141917 0.27157,-0.288685 0.60348,-0.326158 l 0.60349,-0.06814 0,-5.87095 0,-5.870939 -0.60349,-0.06814 c -0.37381,-0.04221 -0.60348,-0.187034 -0.60348,-0.380527 0,-0.23312 0.2553,-0.312387 1.00611,-0.312387 0.55334,0 1.13826,-0.05939 1.29982,-0.131986 0.22983,-0.103268 0.29372,0.01819 0.29372,0.558416 l 0,0.690391 0.51235,-0.427207 c 1.93529,-1.613697 4.64057,-0.763911 5.709,1.793335 0.43713,1.046225 0.49226,1.381634 0.38412,2.336342 -0.25615,2.261097 -1.40944,3.792574 -3.24418,4.307987 -1.05011,0.294995 -2.09392,0.05392 -2.87283,-0.663541 l -0.48846,-0.449938 0,2.038005 c 0,2.225048 0.12629,2.559854 0.96558,2.559854 0.29216,0 0.51994,0.119079 0.51994,0.271811 0,0.200965 -0.53231,0.2718 -2.0426,0.2718 -1.45209,0 -2.04257,-0.07458 -2.04257,-0.258031 z m 5.837,-4.413759 c 1.86084,-1.063951 2.44095,-4.320343 1.19141,-6.687848 -0.83628,-1.58453 -2.61956,-1.806772 -3.79475,-0.472939 l -0.63401,0.719603 0,2.465578 c 0,2.84701 0.17613,3.355543 1.38489,3.998488 0.93828,0.499088 0.93958,0.499065 1.85246,-0.02289 z m 97.59203,4.413759 c 0,-0.141917 0.27158,-0.288685 0.60349,-0.326158 l 0.60348,-0.06814 0,-5.87095 0,-5.870939 -0.60348,-0.06814 c -0.37381,-0.04221 -0.60349,-0.187034 -0.60349,-0.380527 0,-0.23312 0.2553,-0.312387 1.00609,-0.312387 0.55338,0 1.1383,-0.05939 1.29984,-0.131986 0.22983,-0.103268 0.29372,0.01819 0.29372,0.558416 l 0,0.690391 0.51235,-0.427207 c 1.9353,-1.613697 4.64057,-0.763911 5.709,1.793335 0.43714,1.046225 0.49228,1.381634 0.38414,2.336342 -0.25617,2.261097 -1.40945,3.792574 -3.2442,4.307987 -1.05012,0.294995 -2.09393,0.05392 -2.8728,-0.663541 l -0.48849,-0.449938 0,2.038005 c 0,2.225048 0.12629,2.559854 0.96558,2.559854 0.29216,0 0.51994,0.119079 0.51994,0.271811 0,0.200965 -0.53231,0.2718 -2.04258,0.2718 -1.45211,0 -2.04259,-0.07458 -2.04259,-0.258031 z m 5.837,-4.413759 c 1.86084,-1.063951 2.44095,-4.320343 1.19141,-6.687848 -0.83628,-1.58453 -2.61953,-1.806772 -3.79474,-0.472939 l -0.63402,0.719603 0,2.465578 c 0,2.84701 0.17614,3.355543 1.38489,3.998488 0.93828,0.499088 0.93959,0.499065 1.85246,-0.02289 z m -12.33613,0.665278 c -0.97169,-0.233047 -1.75843,-0.784464 -2.38085,-1.668704 -2.12784,-3.022861 -0.13799,-7.581523 3.30929,-7.581523 3.44846,0 5.4371,4.558727 3.30805,7.583303 -0.95864,1.361879 -2.68165,2.039837 -4.23649,1.666924 z m 2.37871,-0.89152 c 0.87355,-0.623665 1.22096,-1.709678 1.22093,-3.816607 -5e-5,-2.739428 -0.88185,-4.089381 -2.6712,-4.089381 -1.06934,0 -1.73893,0.469963 -2.32017,1.62846 -0.47693,0.950589 -0.50375,3.804716 -0.0473,5.028043 0.39103,1.047885 1.28908,1.688318 2.36744,1.688318 0.51127,0 1.07418,-0.170332 1.45027,-0.438833 z m 17.69314,0.808705 c -1.23933,-0.508512 -1.40226,-1.056122 -1.4728,-4.949908 l -0.0627,-3.463709 -0.8193,0 c -1.0142,0 -1.042,-0.236129 -0.0859,-0.730073 0.88104,-0.455189 1.45269,-1.457806 1.61325,-2.829509 0.0747,-0.637867 0.21064,-1.006715 0.37114,-1.006715 0.19517,0 0.25329,0.449076 0.25329,1.956991 l 0,1.95698 1.39267,0 c 1.11414,0 1.39267,0.06524 1.39267,0.326169 0,0.261177 -0.27993,0.326157 -1.40518,0.326157 l -1.40515,0 0.0589,3.565621 c 0.052,3.142878 0.10081,3.619817 0.41267,4.022686 0.89503,1.156482 2.15307,0.1359 2.15307,-1.746686 0,-0.835328 0.064,-1.057882 0.30439,-1.057882 0.2557,0 0.287,0.172046 0.19562,1.075511 -0.1488,1.471081 -0.55645,2.308263 -1.26485,2.597435 -0.71294,0.291037 -0.82467,0.288082 -1.63175,-0.04307 z M 148.90259,38.66366 c 0,-0.156325 0.23391,-0.271802 0.55054,-0.271802 0.36218,0 0.61916,-0.150166 0.75114,-0.438929 0.13374,-0.292632 0.18233,-2.433248 0.1458,-6.422712 -0.0589,-6.430541 -0.0526,-6.391237 -1.02968,-6.399023 -0.24633,-0.002 -0.4178,-0.137194 -0.4178,-0.329489 0,-0.249791 0.23558,-0.326169 1.00611,-0.326169 0.55335,0 1.13827,-0.05938 1.29982,-0.131976 0.26063,-0.117115 0.29372,0.277581 0.29372,3.501603 l 0,3.633586 0.64748,-0.665698 c 0.77895,-0.800886 1.89361,-1.190179 2.83696,-0.990799 1.70144,0.359607 1.90055,0.875851 1.90055,4.927523 0,3.373981 0.0711,3.642083 0.96558,3.642083 0.29211,0 0.51999,0.119101 0.52004,0.271802 8e-5,0.200974 -0.53214,0.271799 -2.04238,0.271799 -1.45193,0 -2.04254,-0.07462 -2.04269,-0.25802 -1e-4,-0.141917 0.27137,-0.288687 0.6033,-0.326169 l 0.60349,-0.06812 0.0509,-3.502885 c 0.0463,-3.184749 0.0184,-3.549812 -0.3064,-4.019568 -0.45184,-0.653417 -1.67565,-0.677711 -2.3964,-0.04758 -1.09575,0.957996 -1.24261,1.426523 -1.3129,4.188552 -0.075,2.94725 0.0662,3.490204 0.90745,3.490204 0.31662,0 0.55053,0.115481 0.55053,0.2718 0,0.200965 -0.53231,0.271798 -2.04258,0.271798 -1.51027,0 -2.04259,-0.07084 -2.04259,-0.271798 z m 48.46082,-3.913961 c -0.002,-0.08971 0.35045,-1.850981 0.78382,-3.91396 0.85955,-4.091818 1.31209,-4.956064 1.13157,-2.161018 -0.13082,2.025592 0.29319,3.290768 1.42443,4.250383 2.02605,1.718618 4.9194,1.38254 6.73309,-0.782092 1.5305,-1.826632 2.05076,-4.188045 1.30441,-5.920531 -0.43368,-1.006724 -1.04329,-1.378517 -3.57423,-2.179867 -3.42099,-1.083167 -4.27256,-2.068617 -4.26904,-4.940106 0.004,-3.418129 2.32242,-6.365777 5.56114,-7.071082 1.83543,-0.399699 3.78849,0.357278 4.50889,1.747582 l 0.27366,0.528126 0.81573,-1.209492 c 0.44865,-0.665223 0.87841,-1.214948 0.955,-1.221623 0.25207,-0.02197 0.1468,0.847825 -0.42772,3.534015 -0.90181,4.216352 -0.91993,4.281773 -1.18661,4.281773 -0.19731,0 -0.23151,-0.287392 -0.15373,-1.291842 0.26047,-3.363847 -1.24657,-5.648441 -3.73465,-5.661542 -1.25583,-0.0066 -2.15497,0.351789 -3.19762,1.27458 -1.65549,1.465191 -2.35399,3.933132 -1.60515,5.671406 0.43283,1.004732 1.04206,1.377591 3.5581,2.177605 2.4815,0.789024 3.00476,1.110265 3.68773,2.263932 0.43329,0.731928 0.51594,1.119258 0.57239,2.682363 0.0609,1.689191 0.022,1.931466 -0.51722,3.214111 -1.51857,3.612129 -4.7333,5.50484 -7.79156,4.587378 -1.19059,-0.357181 -2.10564,-0.95049 -2.63222,-1.706724 -0.27898,-0.40068 -0.32298,-0.368558 -1.09028,0.796087 -0.73201,1.111064 -1.11927,1.471114 -1.12993,1.050538 z m -70.51403,-0.924137 c 0.0377,-0.231256 0.39398,-0.364385 1.22436,-0.457519 0.64645,-0.07251 1.29392,-0.2751 1.44514,-0.452181 0.27428,-0.321175 4.15718,-17.861089 4.15718,-18.778886 0,-0.595726 -0.31308,-0.751004 -1.51432,-0.751004 -0.77762,0 -0.91695,-0.06038 -0.86519,-0.375027 0.0559,-0.339755 0.40649,-0.375555 3.72739,-0.380526 3.36916,-0.005 3.66573,0.0253 3.66573,0.375027 2e-5,0.315343 -0.17143,0.380526 -1.00071,0.380526 -1.74804,0 -1.59888,-0.392312 -3.85412,10.13629 -1.3209,6.166592 -1.93495,9.397601 -1.81312,9.540263 0.10134,0.118646 0.66123,0.26548 1.24423,0.326297 0.76348,0.07964 1.06004,0.199575 1.06004,0.428684 0,0.268457 -0.58764,0.319365 -3.76491,0.326169 -3.24885,0.007 -3.75759,-0.03666 -3.7117,-0.318113 z m 88.59422,0.163083 c -0.19205,-0.363813 0.1728,-0.550038 1.25764,-0.64192 0.77543,-0.06569 1.21419,-0.212234 1.3667,-0.456505 0.12355,-0.19787 1.13076,-4.532804 2.23826,-9.633202 1.93643,-8.918063 2.00022,-9.284906 1.66463,-9.572245 -0.19192,-0.164335 -0.70899,-0.298801 -1.14906,-0.298801 -0.68647,0 -0.80011,-0.0642 -0.80011,-0.452104 0,-0.449184 0.0352,-0.451653 5.43141,-0.380528 l 5.43143,0.07159 1.08122,0.621703 c 3.22279,1.853084 3.02672,6.309124 -0.39581,8.995497 -1.75338,1.376241 -2.62227,1.623133 -6.24766,1.775198 l -3.14828,0.132049 -0.93439,4.412951 c -1.05076,4.962555 -1.06561,4.819119 0.4997,4.825017 0.71536,0.0027 0.88203,0.07528 0.88203,0.384084 0,0.349418 -0.29178,0.380732 -3.54581,0.380527 -1.9502,-1.3e-4 -3.58455,-0.07362 -3.6319,-0.163311 z m 13.13017,-11.119648 c 1.75227,-0.75097 2.84606,-2.373306 3.33453,-4.945799 0.12795,-0.673764 0.17735,-1.56995 0.1098,-1.99155 -0.16153,-1.008246 -1.05949,-2.009925 -2.06855,-2.307453 -1.13757,-0.335444 -4.94676,-0.31145 -5.33419,0.03358 -0.27857,0.248099 -2.17974,8.46472 -2.17974,9.420613 0,0.3208 0.27693,0.347563 2.64608,0.255733 1.81851,-0.07048 2.91066,-0.215943 3.49207,-0.46513 z m -59.37107,6.477061 c -0.0627,-0.191466 0.002,-0.434593 0.14509,-0.54029 0.14255,-0.10569 4.06116,-0.192166 8.70806,-0.192166 4.64687,0 8.56548,0.08648 8.70804,0.192166 0.14254,0.105702 0.20783,0.348824 0.14507,0.54029 -0.10236,0.312355 -1.0115,0.348102 -8.85311,0.348102 -7.84163,0 -8.75079,-0.03575 -8.85315,-0.348102 z m 0,-5.870951 c -0.0627,-0.191464 0.002,-0.434582 0.14509,-0.540278 0.14255,-0.105701 4.06116,-0.192167 8.70806,-0.192167 4.64687,0 8.56548,0.08647 8.70804,0.192167 0.14254,0.10569 0.20783,0.348814 0.14507,0.540278 -0.10236,0.312356 -1.0115,0.348104 -8.85311,0.348104 -7.84163,0 -8.75079,-0.03575 -8.85315,-0.348104 z"
       id="path5405"
       inkscape:connector-curvature="0" />
    <path
       style="fill:none;stroke:#000000;stroke-width:2;stroke-linecap:butt;stroke-linejoin:miter;stroke-miterlimit:4;stroke-opacity:1;stroke-dasharray:none;marker-end:url(#Arrow1Lend)"
       d="m 280.24533,209.45673 0,-134.657097"
       id="path6041"
       inkscape:connector-curvature="0"
       sodipodi:nodetypes="cc" />
    <path
       style="fill:none;fill-rule:evenodd;stroke:#000000;stroke-width:2;stroke-linecap:butt;stroke-linejoin:miter;stroke-miterlimit:4;stroke-dasharray:none;stroke-opacity:1"
       d="M 114.37705,205.23387 L 128.22637,205.23387 L 121.01907,217.81131 L 114.37705,205.23387 z"
       id="path6583"
       sodipodi:nodetypes="cccc" />
    <path
       style="fill:none;fill-rule:evenodd;stroke:#000000;stroke-width:2;stroke-linecap:butt;stroke-linejoin:miter;stroke-miterlimit:4;stroke-dasharray:none;stroke-opacity:1"
       d="M 242.22013,205.53768 L 256.06945,205.53768 L 248.86215,218.11512 L 242.22013,205.53768 z"
       id="path6585"
       sodipodi:nodetypes="cccc" />
    <g
       id="g6642"
       transform="translate(-19.896511,-16.28029)">
      <g
         transform="translate(246.11711,52.920327)"
         id="g4316">
        <path
           sodipodi:type="arc"
           style="opacity:1;fill:none;fill-opacity:1;fill-rule:nonzero;stroke:#000000;stroke-width:3;stroke-miterlimit:4;stroke-dasharray:none;stroke-dashoffset:0;stroke-opacity:1"
           id="path4310"
           sodipodi:cx="221.32834"
           sodipodi:cy="77.449455"
           sodipodi:rx="19.581327"
           sodipodi:ry="19.581327"
           d="m 240.90967,77.449455 c 0,10.814469 -8.76686,19.581328 -19.58133,19.581328 -10.81447,0 -19.58133,-8.766859 -19.58133,-19.581328 0,-10.814468 8.76686,-19.581327 19.58133,-19.581327 10.81447,0 19.58133,8.766859 19.58133,19.581327 z"
           transform="translate(-0.5933813,0)" />
        <path
           sodipodi:type="arc"
           style="opacity:1;fill:none;fill-opacity:1;fill-rule:nonzero;stroke:#000000;stroke-width:3;stroke-miterlimit:4;stroke-dasharray:none;stroke-dashoffset:0;stroke-opacity:1"
           id="path4314"
           sodipodi:cx="221.32834"
           sodipodi:cy="77.449455"
           sodipodi:rx="19.581327"
           sodipodi:ry="19.581327"
           d="m 240.90967,77.449455 c 0,10.814469 -8.76686,19.581328 -19.58133,19.581328 -10.81447,0 -19.58133,-8.766859 -19.58133,-19.581328 0,-10.814468 8.76686,-19.581327 19.58133,-19.581327 10.81447,0 19.58133,8.766859 19.58133,19.581327 z"
           transform="translate(-0.5933813,21.954815)" />
      </g>
      <path
         sodipodi:nodetypes="cc"
         id="path4320"
         d="M 466.65096,109.88769 C 466.69291,110.39518 466.91094,60.903477 467.05317,60.359151"
         style="fill:none;fill-rule:evenodd;stroke:#000000;stroke-width:2;stroke-linecap:butt;stroke-linejoin:miter;stroke-miterlimit:4;stroke-dasharray:none;stroke-opacity:1" />
      <path
         sodipodi:nodetypes="ccc"
         id="path5369"
         d="M 467.01058,61.001012 L 547.98178,61.571645 C 547.98178,121.01885 547.98178,121.01885 547.98178,121.01885"
         style="fill:none;fill-rule:evenodd;stroke:#000000;stroke-width:2;stroke-linecap:butt;stroke-linejoin:miter;stroke-miterlimit:4;stroke-dasharray:none;stroke-opacity:1" />
      <path
         id="path5371"
         d="M 577.70538,120.0438 C 519.28313,120.0438 519.28313,120.0438 519.28313,120.0438"
         style="fill:none;fill-rule:evenodd;stroke:#000000;stroke-width:3;stroke-linecap:butt;stroke-linejoin:miter;stroke-miterlimit:4;stroke-dasharray:none;stroke-opacity:1" />
      <path
         id="path5373"
         d="M 577.17037,145.07741 C 518.74812,145.07741 518.74812,145.07741 518.74812,145.07741"
         style="fill:none;fill-rule:evenodd;stroke:#000000;stroke-width:3;stroke-linecap:butt;stroke-linejoin:miter;stroke-miterlimit:4;stroke-dasharray:none;stroke-opacity:1" />
      <path
         id="path5375"
         d="M 547.95925,146.01901 C 547.95925,215.69772 547.95925,215.69772 547.95925,215.69772"
         style="fill:none;fill-rule:evenodd;stroke:#000000;stroke-width:2;stroke-linecap:butt;stroke-linejoin:miter;stroke-miterlimit:4;stroke-dasharray:none;stroke-opacity:1" />
      <path
         id="path5422"
         d="M 604.73127,151.77231 C 604.57412,151.58286 604.77093,151.33244 605.10058,151.30239 C 605.751,151.2431 605.9994,151.1653 606.09218,150.99179 C 606.14648,150.89027 606.76845,148.51845 607.47436,145.72108 C 608.88442,140.13325 608.94837,139.73821 608.5134,139.30291 C 608.31698,139.10634 608.20943,139.06954 607.96576,139.11553 C 607.4576,139.21143 607.07887,139.74907 606.72166,140.88161 C 606.39025,141.93239 606.20318,142.18746 605.94986,141.93395 C 605.82053,141.80452 605.82044,141.72862 605.94903,141.2207 C 606.19227,140.25983 606.80932,139.11121 607.233,138.83063 C 607.99551,138.32564 609.11854,138.47927 609.7461,139.17443 C 609.93591,139.38469 610.09187,139.58877 610.09267,139.62794 C 610.09347,139.6671 610.13249,139.7598 610.17937,139.83392 C 610.24732,139.94134 610.35636,139.88787 610.71679,139.57036 C 610.96549,139.35129 611.44837,139.03439 611.78986,138.86615 C 612.32299,138.60348 612.51269,138.56024 613.13202,138.5602 C 614.06678,138.56012 614.69651,138.82937 615.27962,139.47842 C 615.90419,140.17362 616.12334,140.82255 616.12667,141.98671 C 616.13148,143.66616 615.5249,145.0771 614.23646,146.3834 C 612.45868,148.18584 610.30359,148.5421 609.14771,147.22462 C 608.97919,147.03255 608.81834,146.89841 608.79024,146.92651 C 608.71331,147.0035 607.8106,150.62836 607.80781,150.87146 C 607.80452,151.15831 608.07219,151.27991 608.70692,151.27991 C 609.27026,151.27991 609.45944,151.43334 609.26888,151.73568 C 609.14199,151.93699 604.8963,151.97127 604.73127,151.77231 z M 611.74617,147.2285 C 612.23516,146.99593 612.95355,146.2662 613.3137,145.63625 C 613.85291,144.69307 614.56762,142.11173 614.56762,141.10737 C 614.56762,140.48246 614.3173,139.81856 613.94586,139.45826 C 613.63755,139.15921 613.55228,139.12726 613.06225,139.12726 C 612.68673,139.12726 612.38131,139.19557 612.06935,139.34933 C 611.57249,139.59421 610.77811,140.27 610.45761,140.72043 C 610.32808,140.9025 610.03024,141.87696 609.6563,143.34215 C 609.07453,145.62177 609.0643,145.68334 609.20107,146.08503 C 609.36286,146.56022 609.82245,147.11321 610.23408,147.328 C 610.58802,147.51268 611.23873,147.46986 611.74617,147.2285 z M 591.56386,143.65733 C 588.80899,143.26509 586.67154,141.79193 585.48313,139.46638 C 584.97902,138.47991 584.80693,137.96067 584.61634,136.85105 C 583.46668,130.15763 589.12842,122.42356 596.28103,120.91679 C 597.52468,120.65481 599.36304,120.67317 600.28122,120.95675 C 601.56325,121.35269 602.5699,122.07442 603.28069,123.10723 C 603.47961,123.39627 603.67177,123.61457 603.70772,123.59233 C 603.74366,123.5701 604.28258,122.92795 604.90531,122.16532 C 605.52803,121.4027 606.11818,120.75313 606.21673,120.72182 C 606.65265,120.58337 606.62239,120.78835 605.57884,125.04286 C 605.01607,127.33728 604.51627,129.31103 604.46818,129.42898 C 604.40143,129.59269 604.30344,129.64344 604.05406,129.64344 L 603.72738,129.64344 L 603.74248,128.14223 C 603.7605,126.35069 603.60625,125.52989 603.02179,124.30726 C 602.38335,122.97169 601.26737,122.03755 599.93664,121.72479 C 598.89254,121.4794 597.30031,121.62141 595.9203,122.08301 C 591.30419,123.62707 588.06781,128.15489 587.17794,134.31387 C 586.99221,135.5993 587.03492,137.37525 587.27305,138.26942 C 587.55136,139.3144 588.14992,140.38529 588.84067,141.07403 C 591.46094,143.68668 596.06107,143.33007 599.32039,140.26162 C 600.60549,139.05177 601.48083,137.71918 602.09145,136.04307 C 602.36481,135.29271 602.52606,135.09898 602.79221,135.20119 C 603.10004,135.31941 602.89649,136.14251 602.23378,137.45926 C 601.6424,138.63427 600.97245,139.55154 600.00519,140.51052 C 597.9888,142.50968 595.63482,143.60305 593.13803,143.70018 C 592.588,143.72157 591.87963,143.70229 591.56386,143.65733 z"
         style="fill:#000000" />
      <path
         sodipodi:nodetypes="cc"
         id="path6609"
         d="M 466.05857,171.78942 C 466.05857,171.26272 466.05857,214.7528 466.05857,214.7528"
         style="fill:none;fill-rule:evenodd;stroke:#000000;stroke-width:2;stroke-linecap:butt;stroke-linejoin:miter;stroke-miterlimit:4;stroke-dasharray:none;stroke-opacity:1" />
      <path
         sodipodi:nodetypes="cccc"
         id="path6611"
         d="M 459.22098,215.35795 L 473.0703,215.35795 L 465.863,227.93539 L 459.22098,215.35795 z"
         style="fill:none;fill-rule:evenodd;stroke:#000000;stroke-width:2;stroke-linecap:butt;stroke-linejoin:miter;stroke-miterlimit:4;stroke-dasharray:none;stroke-opacity:1" />
      <path
         sodipodi:nodetypes="cccc"
         id="path6613"
         d="M 541.20363,216.30465 L 555.05295,216.30465 L 547.84565,228.88209 L 541.20363,216.30465 z"
         style="fill:none;fill-rule:evenodd;stroke:#000000;stroke-width:2;stroke-linecap:butt;stroke-linejoin:miter;stroke-miterlimit:4;stroke-dasharray:none;stroke-opacity:1" />
    </g>
    <path
       style="fill:#000000"
       d="M 311.73677,170.0455 L 311.73674,169.6453 L 312.55336,169.60176 C 313.20589,169.56695 313.42258,169.50857 313.63168,169.31121 L 313.89337,169.06422 L 313.89337,162.02848 L 313.89337,154.99275 L 313.63168,154.74575 C 313.42258,154.5484 313.20589,154.49 312.55336,154.45521 L 311.73674,154.41165 L 311.73674,153.99362 C 311.73674,153.50766 311.64736,153.53361 314.00994,153.33367 C 314.77934,153.26856 315.52687,153.19204 315.67113,153.16362 C 315.92343,153.11392 315.93343,153.14139 315.93343,153.88425 C 315.93343,154.30901 315.97867,154.65654 316.03397,154.65654 C 316.08927,154.65654 316.33845,154.50111 316.5877,154.31113 C 317.49706,153.61805 319.06705,153.11309 320.29724,153.11805 C 321.07075,153.12116 322.35268,153.42134 323.12888,153.78109 C 324.50056,154.41684 325.7018,155.70811 326.29594,157.18555 C 326.67526,158.12876 326.71728,160.08591 326.37868,161.03822 C 325.62547,163.15655 323.98943,164.64326 321.70388,165.28635 C 321.24119,165.41654 320.60983,165.48441 319.83868,165.48685 C 318.76572,165.49025 318.60992,165.46253 317.88127,165.13854 C 317.44586,164.94494 316.8557,164.60563 316.56981,164.38451 L 316.05,163.98249 L 316.05,166.51422 C 316.05,169.60048 316.01252,169.51298 317.36981,169.59519 L 318.26492,169.64941 L 318.26494,170.04755 L 318.26497,170.44569 L 315.00089,170.44569 L 311.7368,170.44569 L 311.73677,170.0455 z M 321.24985,164.41833 C 322.96968,163.58934 324.08755,161.58514 324.09193,159.32287 C 324.09708,156.66427 322.55605,154.36307 320.53148,154.00608 C 319.26501,153.78276 317.67966,154.33734 316.65159,155.36334 L 316.05,155.96371 L 316.05,159.25326 L 316.05,162.5428 L 316.52104,163.16367 C 317.01512,163.81489 317.73686,164.35382 318.47039,164.61925 C 319.15906,164.86844 320.52015,164.77006 321.24985,164.41833 z M 328.98982,164.76411 L 328.98979,164.36391 L 329.80642,164.32037 C 330.45883,164.28557 330.67567,164.22716 330.88474,164.02989 L 331.14642,163.78297 L 331.18323,156.66159 C 331.20346,152.74482 331.18593,149.22866 331.14428,148.8479 C 331.03526,147.85147 330.78372,147.61045 329.77289,147.53386 L 328.98979,147.47454 L 328.98979,147.04948 C 328.98979,146.73568 329.03794,146.62443 329.17374,146.62443 C 329.40832,146.62443 332.03703,146.42001 332.69104,146.35091 L 333.18648,146.29856 L 333.1926,150.94517 C 333.19839,155.34851 333.20906,155.57739 333.39625,155.31672 C 334.49071,153.79275 336.28776,152.98686 338.19919,153.16284 C 339.80697,153.31087 340.83334,153.91074 341.35961,155.00999 C 341.63313,155.5813 341.63921,155.66519 341.69716,159.66286 C 341.72962,161.90194 341.79939,163.81711 341.85222,163.91879 C 341.98506,164.17445 342.54732,164.33909 343.28759,164.33909 L 343.91136,164.33909 L 343.91136,164.75169 L 343.91136,165.1643 L 340.64726,165.1643 L 337.38317,165.1643 L 337.38317,164.76411 L 337.38317,164.36391 L 338.1998,164.32037 C 338.85211,164.28558 339.06909,164.22714 339.27812,164.02996 C 339.53532,163.78735 339.54047,163.72858 339.57824,160.60283 C 339.6372,155.72265 339.44058,154.60378 338.43234,154.08229 C 337.84038,153.77611 336.57735,153.85817 335.70883,154.25924 C 334.88653,154.63896 333.98553,155.56325 333.63187,156.38987 C 333.36898,157.00433 333.36135,157.11901 333.36135,160.45658 C 333.36135,164.48914 333.2765,164.23225 334.63568,164.31458 L 335.51797,164.36803 L 335.518,164.76616 L 335.51802,165.1643 L 332.25393,165.1643 L 328.98985,165.1643 L 328.98982,164.76411 z M 295.53773,159.72304 C 295.40845,159.64586 294.93024,156.44541 293.54055,146.3567 C 292.20024,136.62645 291.66323,133.01962 291.52523,132.82083 C 291.29855,132.4943 290.8117,132.36132 289.41268,132.24378 C 288.40927,132.15948 288.36202,132.14363 288.32942,131.88046 C 288.31068,131.72912 288.36537,131.51489 288.45097,131.4044 C 288.59747,131.21531 288.90046,131.20352 293.61434,131.20352 C 296.3686,131.20352 298.68766,131.20731 298.7678,131.21196 C 298.96207,131.2232 298.95797,131.92883 298.76274,132.08176 C 298.67981,132.14672 298.24703,132.23128 297.801,132.26969 C 296.59286,132.37371 295.86631,132.59491 295.47875,132.97673 L 295.13969,133.31076 L 296.62682,144.1762 C 297.44475,150.1522 298.15259,155.13576 298.19979,155.25079 C 298.27049,155.42307 298.38945,155.30665 298.87436,154.59062 C 304.11625,146.85038 312.1734,134.66454 312.33371,134.23435 C 312.73164,133.16649 312.26473,132.52687 310.92466,132.30408 L 310.22126,132.18714 L 310.22126,131.76265 C 310.22126,131.46689 310.28313,131.31016 310.42527,131.24584 C 310.53747,131.19507 312.38664,131.15932 314.53453,131.1664 L 318.43978,131.17927 L 318.43978,131.66746 L 318.43978,132.15564 L 317.50719,132.29825 C 315.77253,132.56351 314.46201,133.37766 313.30895,134.90636 C 313.03508,135.26945 309.26165,140.88918 304.92355,147.39463 C 300.58545,153.90009 296.88065,159.3589 296.69065,159.52532 C 296.33929,159.83307 295.85977,159.91531 295.53773,159.72304 z"
       id="path6628" />
    <g
       id="g6656"
       transform="translate(-19.896511,-17.237598)">
      <g
         transform="translate(427.50337,54.350983)"
         id="g6630">
        <path
           sodipodi:type="arc"
           style="opacity:1;fill:none;fill-opacity:1;fill-rule:nonzero;stroke:#000000;stroke-width:3;stroke-miterlimit:4;stroke-dasharray:none;stroke-dashoffset:0;stroke-opacity:1"
           id="path6632"
           sodipodi:cx="221.32834"
           sodipodi:cy="77.449455"
           sodipodi:rx="19.581327"
           sodipodi:ry="19.581327"
           d="m 240.90967,77.449455 c 0,10.814469 -8.76686,19.581328 -19.58133,19.581328 -10.81447,0 -19.58133,-8.766859 -19.58133,-19.581328 0,-10.814468 8.76686,-19.581327 19.58133,-19.581327 10.81447,0 19.58133,8.766859 19.58133,19.581327 z"
           transform="translate(-0.5933813,0)" />
        <path
           sodipodi:type="arc"
           style="opacity:1;fill:none;fill-opacity:1;fill-rule:nonzero;stroke:#000000;stroke-width:3;stroke-miterlimit:4;stroke-dasharray:none;stroke-dashoffset:0;stroke-opacity:1"
           id="path6634"
           sodipodi:cx="221.32834"
           sodipodi:cy="77.449455"
           sodipodi:rx="19.581327"
           sodipodi:ry="19.581327"
           d="m 240.90967,77.449455 c 0,10.814469 -8.76686,19.581328 -19.58133,19.581328 -10.81447,0 -19.58133,-8.766859 -19.58133,-19.581328 0,-10.814468 8.76686,-19.581327 19.58133,-19.581327 10.81447,0 19.58133,8.766859 19.58133,19.581327 z"
           transform="translate(-0.5933813,21.954815)" />
      </g>
      <path
         sodipodi:nodetypes="cc"
         id="path6636"
         d="M 648.03722,111.31835 C 648.07917,111.82584 648.2972,62.334128 648.43943,61.789808"
         style="fill:none;fill-rule:evenodd;stroke:#000000;stroke-width:2;stroke-linecap:butt;stroke-linejoin:miter;stroke-miterlimit:4;stroke-dasharray:none;stroke-opacity:1" />
      <path
         sodipodi:nodetypes="cc"
         id="path6638"
         d="M 647.44483,173.22008 C 647.44483,172.69338 647.44483,216.18346 647.44483,216.18346"
         style="fill:none;fill-rule:evenodd;stroke:#000000;stroke-width:2;stroke-linecap:butt;stroke-linejoin:miter;stroke-miterlimit:4;stroke-dasharray:none;stroke-opacity:1" />
      <path
         sodipodi:nodetypes="cccc"
         id="path6640"
         d="M 640.60724,216.78861 L 654.45656,216.78861 L 647.24926,229.36605 L 640.60724,216.78861 z"
         style="fill:none;fill-rule:evenodd;stroke:#000000;stroke-width:2;stroke-linecap:butt;stroke-linejoin:miter;stroke-miterlimit:4;stroke-dasharray:none;stroke-opacity:1" />
    </g>
    <path
       style="fill:none;fill-rule:evenodd;stroke:#000000;stroke-width:2;stroke-linecap:butt;stroke-linejoin:miter;stroke-miterlimit:4;stroke-dasharray:none;stroke-opacity:1"
       d="M 527.92109,45.155987 L 628.34182,45.155987"
       id="path6664" />
    <path
       style="fill:#000000"
       d="M 381.73478,145.91683 C 381.51531,145.76257 381.33574,145.5177 381.33574,145.37266 C 381.33574,145.22762 381.9908,142.78651 382.79142,139.94801 C 384.39743,134.25407 384.45386,133.83302 383.68965,133.24572 C 383.19937,132.86894 382.91806,132.85961 382.29424,133.19945 C 381.65102,133.54987 381.1353,134.3819 380.67501,135.81178 C 380.21121,137.25256 380.20185,137.26675 379.71549,137.26675 C 379.33695,137.26675 379.32745,137.24611 379.41207,136.60776 C 379.52565,135.75092 380.31798,133.9238 380.87259,133.23976 C 381.51393,132.44877 382.49113,132.06588 383.57749,132.17995 C 385.03412,132.3329 386.14534,133.08835 386.50904,134.17292 C 386.60549,134.46053 386.70915,134.69584 386.7394,134.69584 C 386.76965,134.69584 387.1741,134.36199 387.63817,133.95394 C 390.202,131.69959 394.58556,131.5405 396.14326,133.64524 C 396.53246,134.17111 396.55583,134.29005 396.54727,135.70124 C 396.53705,137.38696 396.33634,138.10391 394.94685,141.41841 C 394.00524,143.66449 393.84747,144.65654 394.35915,145.1137 C 395.33554,145.98604 397.40711,144.40178 398.33868,142.07028 C 398.6878,141.19653 398.75079,141.12309 399.15124,141.12309 C 399.55413,141.12309 399.58241,141.15714 399.54468,141.59669 C 399.48759,142.26144 398.43903,144.16267 397.75808,144.83609 C 396.31431,146.26388 394.41036,146.56807 392.83906,145.62202 C 392.17732,145.22358 391.79509,144.62033 391.69004,143.80855 C 391.61667,143.24168 391.72175,142.8684 392.46501,141.05544 C 393.52444,138.47133 394.20897,136.14366 394.20866,135.12646 C 394.20804,133.07359 392.49749,132.40307 390.01748,133.48354 C 388.93735,133.95412 387.26913,135.45131 386.59873,136.55181 C 386.32964,136.99354 385.7819,138.65227 385.04739,141.24989 C 384.42293,143.45828 383.84147,145.38292 383.75525,145.52684 C 383.57349,145.83028 382.84468,146.19726 382.42382,146.19726 C 382.26434,146.19726 381.95426,146.07106 381.73478,145.91683 z M 367.5105,134.78206 C 366.60382,134.55418 365.79116,133.97725 365.21891,133.15525 C 364.85559,132.63336 364.76483,132.33198 364.70833,131.45991 C 364.62724,130.20837 364.54224,130.46707 366.91279,124.75051 C 367.86948,122.44345 368.91952,119.86404 369.2462,119.01847 C 370.39965,116.03302 370.17906,114.53455 368.58612,114.53455 C 367.68155,114.53455 366.78056,114.97603 365.85698,115.87187 C 364.93673,116.76446 364.23935,117.95036 363.5461,119.80149 C 363.07855,121.04996 363.04344,121.09864 362.5813,121.13952 C 362.14258,121.1783 362.10173,121.14863 362.10173,120.7911 C 362.10173,119.70324 363.76225,116.53784 364.96583,115.33135 C 367.28181,113.00978 370.79129,113.06979 372.36255,115.45785 C 372.73885,116.02977 372.77851,116.21419 372.77505,117.37607 L 372.77121,118.66153 L 370.46034,124.19055 C 367.75985,130.65182 367.49748,131.42251 367.58417,132.63896 C 367.65515,133.63485 367.99449,134.01929 368.80255,134.01929 C 370.86771,134.01929 372.87639,131.95042 373.9964,128.66973 C 374.39306,127.50784 374.65606,127.16742 375.05212,127.3032 C 375.4852,127.45167 375.4719,127.8126 374.9844,129.14245 C 373.44653,133.33761 370.52741,135.5403 367.5105,134.78206 z M 379.36686,120.53177 C 379.3669,120.10838 379.38029,120.10043 380.23774,120.01648 C 381.3868,119.90395 381.76544,119.75188 381.94458,119.33092 C 382.10873,118.94515 382.15757,104.03198 381.99701,103.31477 C 381.8721,102.75676 381.29603,102.49188 380.2074,102.49188 L 379.3669,102.49188 L 379.3669,101.9689 L 379.3669,101.44591 L 381.44932,101.35345 C 382.59467,101.30258 383.75324,101.22671 384.02396,101.18482 L 384.51617,101.10865 L 384.51617,102.00322 C 384.51617,103.0066 384.61543,103.07496 385.31198,102.55131 C 386.60898,101.57625 388.65229,101.04408 390.4861,101.20373 C 393.78464,101.49092 396.45614,103.56413 397.31241,106.50128 C 398.20653,109.56828 396.34066,112.96303 392.97298,114.39641 C 390.1542,115.59618 387.17423,115.39035 385.22499,113.86126 L 384.66761,113.42403 L 384.66761,116.41488 C 384.66761,119.22531 384.68589,119.42204 384.97052,119.67635 C 385.13711,119.82519 385.46083,119.94764 385.68989,119.94846 C 385.91897,119.94927 386.36195,119.98769 386.67432,120.03381 C 387.18916,120.10984 387.24225,120.15714 387.2422,120.53974 L 387.24215,120.9618 L 383.30449,120.9618 L 379.36683,120.9618 L 379.36686,120.53177 z M 390.82223,113.99897 C 391.62921,113.68004 392.86551,112.66192 393.35854,111.91028 C 394.46151,110.22876 394.75379,107.835 394.08991,105.92029 C 393.45297,104.08328 391.95919,102.59201 390.37158,102.20823 C 388.82187,101.83361 386.64761,102.48343 385.3711,103.70269 L 384.66761,104.37463 L 384.66761,108.07137 C 384.66761,112.18149 384.60578,111.90819 385.788,113.02314 C 387.17428,114.33053 389.0589,114.69586 390.82223,113.99897 z M 400.26682,114.44882 C 400.26686,114.02695 400.27177,114.02435 401.24909,113.93084 C 401.84284,113.87404 402.36697,113.73876 402.57427,113.58884 L 402.91721,113.34082 L 402.96523,105.17631 C 402.99165,100.68582 402.96816,96.622693 402.91305,96.147151 C 402.7803,95.001746 402.46878,94.717676 401.20537,94.589968 L 400.26686,94.495106 L 400.26686,94.028236 C 400.26686,93.666372 400.32906,93.561366 400.54345,93.561366 C 400.83872,93.561366 403.70163,93.334178 404.77247,93.225768 L 405.41612,93.160612 L 405.42406,98.536614 C 405.43152,103.58215 405.44738,103.89184 405.68212,103.57435 C 406.8883,101.94298 409.18415,100.9978 411.47789,101.18825 C 413.44489,101.35159 414.6258,101.95496 415.2794,103.13063 C 415.63233,103.76547 415.64031,103.86499 415.71465,108.55919 C 415.80255,114.1105 415.68927,113.76157 417.45849,113.93084 C 418.43581,114.02435 418.44073,114.02695 418.44075,114.44882 L 418.44079,114.87281 L 414.50313,114.87281 L 410.56546,114.87281 L 410.56543,114.44882 C 410.56539,114.02625 410.56875,114.0245 411.56331,113.92934 C 413.23343,113.76954 413.14015,114.0761 413.13917,108.75 C 413.13866,105.98086 413.07579,103.98207 412.97946,103.67214 C 412.89208,103.39103 412.61364,102.95043 412.36067,102.69302 C 410.86089,101.16687 407.294,102.27443 406.0362,104.65685 C 405.64528,105.39729 405.64306,105.42109 405.59707,109.35142 C 405.54283,113.98598 405.46954,113.7691 407.14429,113.92934 C 408.13883,114.0245 408.1422,114.02625 408.14216,114.44882 L 408.14212,114.87281 L 404.20445,114.87281 L 400.26679,114.87281 L 400.26682,114.44882 z M 371.70179,107.23046 C 370.77589,106.89622 370.4615,105.73627 371.04529,104.80826 C 372.13111,103.08218 374.97489,103.29303 374.97489,105.0996 C 374.97489,106.50951 373.09496,107.73338 371.70179,107.23046 z"
       id="path6679" />
    <path
       style="fill:#000000"
       d="M 673.94241,153.53857 C 673.31824,153.27667 673.3683,152.86694 674.71629,147.20502 C 675.42203,144.2407 676.0065,141.68426 676.01511,141.52402 C 676.06329,140.62741 675.97599,140.24904 675.64012,139.89879 C 674.8031,139.02594 673.62922,140.02286 672.99864,142.14208 C 672.48117,143.88116 672.40281,144.06791 672.14762,144.17002 C 672.02576,144.21879 671.83685,144.16567 671.72783,144.05198 C 671.34614,143.65395 672.33875,140.68133 673.19158,139.66842 C 674.27578,138.38071 676.28187,138.41177 677.5229,139.73547 C 677.89637,140.13382 678.04428,140.41786 678.29161,141.21171 C 678.36355,141.44261 678.50635,141.35475 679.27019,140.60962 C 680.35834,139.54814 681.38591,139.00229 682.69335,138.79125 C 684.70632,138.46633 686.37687,139.14456 687.06868,140.5676 C 687.79546,142.06256 687.53293,143.89131 685.93143,148.48965 C 684.99283,151.18462 684.87424,152.01785 685.35753,152.52184 C 685.51119,152.68207 685.74278,152.81317 685.87217,152.81317 C 686.34398,152.81317 687.32749,152.18821 687.78499,151.59771 C 688.36541,150.84854 688.5274,150.53101 688.98562,149.24434 C 689.30045,148.3603 689.39452,148.22467 689.69287,148.22467 C 690.00611,148.22467 690.03595,148.27989 690.02523,148.83973 C 690.01092,149.58764 689.22873,151.30595 688.49784,152.19512 C 687.68195,153.18767 686.85875,153.61537 685.77659,153.60895 C 684.04337,153.59866 683.09525,152.72841 683.00875,151.06843 C 682.96505,150.2297 683.0342,149.90654 683.59876,148.31127 C 685.06476,144.16878 685.51596,141.64759 684.98287,140.57719 C 684.616,139.84058 683.93992,139.51928 682.98412,139.6273 C 681.38319,139.80824 679.86612,140.93425 678.58127,142.8952 C 677.97604,143.81892 677.89843,144.06162 676.96854,147.93881 C 676.43125,150.17906 675.89321,152.29199 675.7729,152.63419 C 675.46197,153.51861 674.74225,153.87419 673.94241,153.53857 z M 660.98239,141.32305 C 659.12964,140.81284 657.94839,138.98054 658.17515,136.96859 C 658.26605,136.16204 659.48758,132.56568 661.50132,127.17588 C 663.2174,122.58276 663.47989,121.09083 662.72029,120.24765 C 662.47296,119.97311 662.25749,119.89256 661.77042,119.89256 C 659.94651,119.89256 658.26518,121.91871 657.14689,125.4643 C 656.71483,126.83417 656.68433,126.88455 656.28702,126.88455 C 656.05839,126.88455 655.84094,126.79171 655.79833,126.67592 C 655.67561,126.34243 656.61927,123.66413 657.29253,122.43506 C 658.0711,121.01374 659.18251,119.82581 660.19841,119.32914 C 661.35086,118.76571 662.77913,118.78881 663.84595,119.38813 C 665.24724,120.17534 666.00904,121.9273 665.69898,123.64964 C 665.61667,124.10692 664.59966,127.09002 663.43897,130.27876 C 660.73771,137.69985 660.52725,138.48798 660.92724,139.68453 C 661.11604,140.2493 661.41803,140.43152 662.16518,140.43152 C 663.97022,140.43152 665.71054,138.27879 666.84616,134.64128 C 667.20246,133.50002 667.24186,133.43954 667.62893,133.43954 C 667.98306,133.43954 668.03652,133.4935 668.03652,133.85102 C 668.03652,134.07734 667.88418,134.72958 667.69798,135.30045 C 666.84265,137.92292 665.27047,140.18531 663.77219,140.94974 C 662.97337,141.35729 661.71716,141.52539 660.98239,141.32305 z M 677.21868,120.47101 C 675.97614,120.14539 675.12251,119.4705 674.55246,118.36306 C 674.26524,117.8051 674.24957,117.55192 674.18269,112.39074 L 674.11284,107.00108 L 672.68106,106.95957 L 671.24928,106.91806 L 671.24928,106.48615 C 671.24928,106.11244 671.30104,106.05406 671.63342,106.05283 C 672.72523,106.04878 674.19216,104.81057 674.83212,103.35283 C 675.18102,102.55812 675.57285,100.89524 675.57712,100.19118 C 675.5793,99.830962 675.62881,99.790592 676.06844,99.790592 L 676.55734,99.790592 L 676.55734,102.84959 L 676.55734,105.90858 L 678.93199,105.90858 L 681.30665,105.90858 L 681.30665,106.41841 L 681.30665,106.92825 L 678.92564,106.92825 L 676.54463,106.92825 L 676.5859,112.35432 C 676.62649,117.68995 676.63252,117.79081 676.94711,118.40519 C 677.80032,120.07147 679.62595,119.97399 680.46854,118.21719 C 680.76615,117.59666 680.82469,117.24689 680.86469,115.85032 L 680.91164,114.21157 L 681.40573,114.21157 L 681.89983,114.21157 L 681.84029,115.953 C 681.78429,117.59083 681.75211,117.75296 681.29925,118.6786 C 680.6729,119.95886 679.9268,120.48329 678.62517,120.55819 C 678.14089,120.58606 677.50797,120.54683 677.21868,120.47101 z M 685.21785,119.78331 C 685.21785,119.33351 685.24397,119.30985 685.74167,119.30908 C 686.51196,119.30789 687.28997,119.04454 687.45117,118.73043 C 687.54237,118.55273 687.5925,115.0648 687.5925,108.8977 L 687.5925,99.340352 L 687.26599,98.999862 C 687.02813,98.751822 686.70573,98.631072 686.07866,98.555172 L 685.21785,98.450992 L 685.21785,97.955462 C 685.21785,97.580832 685.27749,97.459812 685.4623,97.459432 C 685.81633,97.458712 688.82668,97.182742 689.44334,97.094472 L 689.96716,97.019492 L 689.96716,102.68713 L 689.96716,108.35477 L 690.91004,107.37327 C 692.19924,106.03126 692.98537,105.71237 695.0204,105.70593 C 696.4501,105.7014 696.55078,105.72202 697.45949,106.20548 C 698.56293,106.79253 699.09324,107.53211 699.32374,108.80538 C 699.40186,109.23692 699.46578,111.58464 699.46578,114.02253 C 699.46578,116.73334 699.52068,118.56201 699.60711,118.73043 C 699.76831,119.04454 700.54633,119.30789 701.31662,119.30908 C 701.81432,119.30985 701.84043,119.3335 701.84039,119.78331 L 701.84035,120.25672 L 698.20853,120.25672 L 694.57672,120.25672 L 694.57675,119.80437 C 694.57679,119.35241 694.57759,119.35195 695.51318,119.26084 C 697.10849,119.10549 697.02129,119.4335 697.02129,113.58823 C 697.02129,108.77216 697.01096,108.58012 696.71649,107.91538 C 696.21204,106.77664 695.16185,106.30835 693.81659,106.6223 C 691.80058,107.09278 690.46665,108.57237 690.10477,110.73944 C 690.00877,111.31434 689.9653,113.01308 689.99255,115.12587 C 690.04524,119.21279 690.00704,119.11106 691.5451,119.26084 C 692.48071,119.35195 692.4815,119.3524 692.4815,119.80437 L 692.4815,120.25672 L 688.84967,120.25672 L 685.21785,120.25672 L 685.21785,119.78331 z M 664.54438,111.77143 C 663.2122,111.07744 663.69468,108.80304 665.3106,108.15949 C 666.36936,107.73783 667.22824,108.11355 667.6105,109.16559 C 667.91992,110.01715 667.31047,111.22031 666.31521,111.72274 C 665.58171,112.09303 665.18276,112.10399 664.54438,111.77143 z"
       id="path6694" />
    <path
       style="fill:#000000"
       d="m 176.33264,275.11067 c -0.89106,-0.56971 -2.35943,-2.21238 -3.36601,-3.76556 -0.61837,-0.95415 -1.58075,-2.90213 -1.96068,-3.96861 -1.65683,-4.65089 -1.79614,-11.02476 -0.34638,-15.84767 0.96251,-3.20196 2.74973,-6.24721 4.7768,-8.13923 0.98243,-0.91698 1.48828,-1.1575 1.54782,-0.73596 0.0201,0.14236 -0.12746,0.35238 -0.59199,0.84257 -1.94158,2.0488 -3.42915,4.93565 -4.21339,8.17663 -1.17118,4.84013 -1.06272,10.77624 0.28177,15.42237 0.8402,2.90348 2.10704,5.21554 3.94104,7.19264 0.43782,0.47198 0.59997,0.70499 0.58146,0.83558 -0.0374,0.26374 -0.22369,0.26008 -0.65044,-0.0128 z m 20.40895,0.13774 c -0.054,-0.0545 -0.0982,-0.12964 -0.0982,-0.16705 0,-0.0374 0.35367,-0.46633 0.78592,-0.95314 2.8188,-3.17453 4.35857,-7.2542 4.7869,-12.68299 0.1194,-1.51331 0.052,-5.14465 -0.11945,-6.43952 -0.42074,-3.17693 -1.043,-5.36433 -2.18323,-7.67457 -0.74362,-1.50668 -1.40037,-2.47457 -2.5011,-3.686 -0.42297,-0.46551 -0.76904,-0.88968 -0.76904,-0.9426 0,-0.0529 0.0581,-0.14482 0.12906,-0.20421 0.19971,-0.16709 0.60221,0.0933 1.53189,0.99109 2.841,2.74347 4.7506,6.68988 5.41284,11.1862 0.33759,2.29218 0.3775,5.79532 0.0897,7.87707 -0.41977,3.03667 -1.47053,6.16232 -2.80263,8.33688 -0.95296,1.55565 -2.72093,3.6173 -3.61267,4.21279 -0.40486,0.27036 -0.50449,0.29275 -0.64999,0.14605 z m -12.99302,-7.93691 c -2.28017,-0.37667 -3.57754,-1.44646 -3.69776,-3.04915 -0.22948,-3.05895 2.99293,-5.32765 7.89553,-5.55873 l 1.08458,-0.0511 0,-1.04686 c 0,-1.7679 -0.36195,-2.76985 -1.32731,-3.67428 -0.6566,-0.61517 -1.19406,-0.81629 -2.19243,-0.8204 -0.93102,-0.004 -1.61799,0.20248 -2.37803,0.71416 -0.47925,0.32264 -1.17036,1.10835 -1.09009,1.2393 0.022,0.0358 0.18653,0.0651 0.36575,0.0651 0.73742,0 1.21972,0.50386 1.21972,1.27422 0,1.03078 -0.95727,1.64088 -1.9088,1.21654 -0.59133,-0.26371 -0.72647,-0.55049 -0.69163,-1.46763 0.0248,-0.65174 0.0647,-0.82512 0.30176,-1.31065 0.38171,-0.78167 1.06727,-1.44316 1.91924,-1.85183 0.90267,-0.43299 1.3999,-0.53907 2.50765,-0.53497 1.10307,0.004 1.91381,0.19775 2.80568,0.67024 0.69219,0.36671 1.68885,1.29023 2.01764,1.86959 0.5104,0.89937 0.51898,0.98615 0.57183,5.78726 l 0.0481,4.37368 0.20464,0.40833 c 0.2565,0.5118 0.56236,0.74324 0.98225,0.74324 0.41989,0 0.72576,-0.23144 0.98226,-0.74324 0.18963,-0.3784 0.20664,-0.50963 0.23199,-1.79058 l 0.0274,-1.38224 0.32716,0 0.32714,0 -0.0271,1.46477 c -0.026,1.40742 -0.036,1.48306 -0.25463,1.93189 -0.61156,1.25549 -2.07141,1.79213 -3.26614,1.20064 -0.25578,-0.12663 -0.58357,-0.36631 -0.72841,-0.53262 -0.31647,-0.36338 -0.63273,-1.03429 -0.71411,-1.51496 l -0.0594,-0.35072 -0.32423,0.55895 c -0.3716,0.64059 -1.17985,1.4429 -1.74343,1.73061 -0.92506,0.47225 -2.19738,0.63293 -3.41684,0.43149 z m 2.52342,-0.71218 c 1.00519,-0.31301 1.8464,-1.04579 2.34079,-2.03906 0.34593,-0.69501 0.41564,-1.26118 0.41692,-3.38602 6.7e-4,-1.10064 -0.0264,-2.00043 -0.0602,-1.99955 -0.34471,0.009 -1.92509,0.26917 -2.43896,0.40144 -2.81206,0.72385 -4.33607,2.39112 -4.19315,4.58731 0.1209,1.85768 2.01855,3.0325 3.93458,2.43588 z"
       id="path6709"
       inkscape:connector-curvature="0" />
    <path
       style="fill:#000000"
       d="m 590.73187,276.55537 c -0.89593,-0.50789 -2.37234,-1.97231 -3.38442,-3.35695 -0.62174,-0.85062 -1.58939,-2.5872 -1.9714,-3.53796 -1.66588,-4.14619 -1.80596,-9.82841 -0.34826,-14.12796 0.96778,-2.8545 2.76476,-5.56931 4.8029,-7.25601 0.98781,-0.81748 1.49644,-1.0319 1.55629,-0.6561 0.0202,0.12692 -0.12815,0.31416 -0.59523,0.75115 -1.95219,1.82647 -3.4479,4.40006 -4.23641,7.28934 -1.1776,4.31491 -1.06855,9.60686 0.28329,13.74882 0.84481,2.58841 2.11857,4.64958 3.96261,6.41214 0.44021,0.42076 0.60324,0.62848 0.58463,0.74489 -0.0376,0.23513 -0.22492,0.23187 -0.654,-0.0114 z m 22.3312,0.12279 c -0.0543,-0.0486 -0.0987,-0.11557 -0.0987,-0.14893 0,-0.0334 0.35559,-0.41573 0.79021,-0.8497 2.83421,-2.83005 4.38241,-6.46702 4.81307,-11.30671 0.12006,-1.34909 0.0524,-4.58638 -0.12009,-5.74074 -0.42304,-2.83219 -1.04871,-4.78222 -2.19517,-6.84177 -0.7477,-1.34317 -1.40804,-2.20603 -2.51478,-3.28601 -0.42528,-0.415 -0.77324,-0.79314 -0.77324,-0.84032 0,-0.0472 0.0584,-0.12909 0.12977,-0.18204 0.20079,-0.14896 0.60549,0.0832 1.54027,0.88353 2.85653,2.44578 4.77657,5.96394 5.44242,9.97234 0.33945,2.04345 0.37957,5.16645 0.0902,7.02229 -0.42208,2.70716 -1.47858,5.49362 -2.81795,7.43221 -0.95818,1.38684 -2.73581,3.22477 -3.63243,3.75564 -0.40709,0.24102 -0.50726,0.26098 -0.65356,0.13021 z m -11.10659,-7.05079 c -1.07011,-0.17166 -2.20588,-0.78929 -2.92354,-1.5898 -0.50275,-0.5608 -0.4028,-0.61169 -1.14174,0.58128 l -0.48986,0.79085 -0.3664,0 -0.3664,0 -1.3e-4,-9.14074 c -1.2e-4,-8.55598 -0.009,-9.15706 -0.14403,-9.39573 -0.22858,-0.40502 -0.57111,-0.53523 -1.51489,-0.57585 l -0.81756,-0.0352 0.0244,-0.41301 0.0244,-0.41301 1.76949,-0.12214 c 0.97323,-0.0672 1.98245,-0.14114 2.24274,-0.16439 l 0.47324,-0.0423 0,4.64569 0,4.64568 0.55553,-0.47442 c 0.71051,-0.60677 1.26012,-0.91501 2.08897,-1.17156 1.24142,-0.38424 2.62292,-0.35643 3.96108,0.0797 2.11987,0.69096 3.68831,2.32039 4.31616,4.48397 0.26442,0.9112 0.30493,2.54826 0.0826,3.33736 -0.5791,2.05529 -1.97499,3.60082 -4.02936,4.46136 -0.38198,0.16 -0.93172,0.34109 -1.22165,0.40241 -0.67517,0.1428 -1.96672,0.199 -2.52293,0.10978 z m 1.88423,-0.6564 c 1.89274,-0.52275 3.13349,-1.99574 3.49535,-4.14955 0.15058,-0.89629 0.14398,-2.60603 -0.0137,-3.55543 -0.14246,-0.85756 -0.48619,-1.83822 -0.82783,-2.36181 -0.31619,-0.48456 -1.11242,-1.20691 -1.58238,-1.43556 -0.82818,-0.40291 -1.97969,-0.52631 -2.89023,-0.30971 -1.10089,0.26189 -2.19263,0.97363 -2.85914,1.86399 l -0.31322,0.41843 0,3.64442 0,3.6444 0.28806,0.42678 c 0.35737,0.52947 1.10703,1.21563 1.62405,1.48647 0.91362,0.47859 2.08216,0.6029 3.07906,0.32757 z"
       id="path6724"
       inkscape:connector-curvature="0" />
    <path
       style="fill:none;fill-rule:evenodd;stroke:#000000;stroke-width:2;stroke-linecap:butt;stroke-linejoin:miter;stroke-miterlimit:4;stroke-dasharray:none;stroke-opacity:1"
       d="M 595.27106,45.08755 L 724.16631,45.08755 L 724.67848,93.52023 L 733.77935,103.64721 L 719.55677,114.28637 L 733.77935,124.92553 L 719.55677,135.56469 L 733.77935,146.20385 L 719.55677,156.84301 L 733.77935,167.48217 L 723.65414,176.07265 L 723.65414,200.48169"
       id="path7822"
       sodipodi:nodetypes="cccccccccccc" />
    <path
       style="fill:none;fill-rule:evenodd;stroke:#000000;stroke-width:2;stroke-linecap:butt;stroke-linejoin:miter;stroke-miterlimit:4;stroke-dasharray:none;stroke-opacity:1"
       d="M 716.93722,200.90775 L 730.78654,200.90775 L 723.57924,213.48519 L 716.93722,200.90775 z"
       id="path7824"
       sodipodi:nodetypes="cccc" />
    <path
       style="fill:#000000"
       d="M 774.55686,148.39674 C 774.52385,148.30561 774.51722,148.1179 774.54212,147.9796 C 774.58045,147.76665 774.76797,147.7159 775.76648,147.64818 C 777.14245,147.55487 777.46506,147.40812 777.65175,146.79064 C 777.72707,146.54151 778.6806,142.55211 779.77071,137.92532 C 781.13674,132.12739 781.71487,129.44814 781.63092,129.30439 C 781.54553,129.15817 781.19026,129.07354 780.44246,129.02131 C 779.2922,128.94095 778.95421,128.76266 779.19258,128.362 C 779.3245,128.14026 779.93034,128.11983 787.35833,128.08666 C 794.41619,128.05514 795.39073,128.07611 795.45763,128.26095 C 795.49946,128.37651 795.40145,129.83178 795.23981,131.49486 C 794.93341,134.64754 794.81503,135.08697 794.35514,134.77906 C 794.15648,134.64605 794.13387,134.42581 794.17449,133.01971 C 794.24176,130.69119 793.96937,129.99668 792.75084,129.38979 C 792.20073,129.11581 791.90581,129.09282 788.41302,129.0517 C 785.20058,129.01388 784.64203,129.03748 784.50153,129.21695 C 784.36848,129.3869 782.40044,137.2929 782.39147,137.69347 C 782.39004,137.75714 783.40704,137.78843 784.65145,137.76299 C 786.63844,137.72238 786.97794,137.6814 787.43869,137.42656 C 788.10132,137.06005 788.48861,136.45718 788.83254,135.2568 C 789.06705,134.43832 789.14543,134.31009 789.41118,134.31009 C 789.58025,134.31009 789.75391,134.3707 789.7971,134.44477 C 789.91148,134.64097 788.17275,142.05154 787.97061,142.22939 C 787.72008,142.4498 787.37311,142.25403 787.37311,141.89226 C 787.37311,141.71969 787.43283,141.24465 787.50583,140.83661 C 787.67203,139.90754 787.50237,139.29042 787.00861,139.02809 C 786.7621,138.89711 785.95432,138.82275 784.39707,138.78767 L 782.14243,138.73689 L 782.0098,139.26967 C 781.93685,139.5627 781.48773,141.45531 781.01175,143.47547 C 780.25024,146.70748 780.16948,147.17304 780.33919,147.35294 C 780.4732,147.49501 780.96539,147.58344 781.95232,147.64277 L 783.37261,147.72814 L 783.37261,148.13812 L 783.37261,148.5481 L 778.99474,148.55526 C 775.72262,148.56061 774.60171,148.52058 774.55686,148.39674 z M 766.39246,142.50273 C 764.84445,142.21312 763.50846,141.24435 762.87256,139.95032 C 762.57173,139.33815 762.52727,139.08294 762.5319,137.99484 C 762.53624,136.97528 762.65083,136.26855 763.1504,134.18044 C 763.48765,132.7708 763.76358,131.29588 763.76358,130.90284 C 763.76358,128.78886 762.3394,127.19855 760.09099,126.80185 C 759.60822,126.71667 758.04721,126.66891 756.49207,126.69172 L 753.74573,126.73202 L 752.26587,132.98914 C 751.45195,136.43056 750.78429,139.41689 750.78218,139.62544 C 750.77596,140.23952 751.20836,140.4263 752.89472,140.538 C 754.36,140.63506 754.38593,140.64265 754.41933,140.98435 C 754.49284,141.73638 754.6482,141.7162 748.77698,141.7175 C 745.7848,141.71817 743.26983,141.67494 743.18816,141.62142 C 742.98892,141.49089 742.99908,140.91334 743.20361,140.74207 C 743.29379,140.66656 743.99511,140.56897 744.7621,140.5252 C 746.22309,140.44182 746.87729,140.24327 747.28329,139.76001 C 747.58595,139.39976 753.84324,112.99853 753.72196,112.59347 C 753.60269,112.19507 753.10036,112.05007 751.53253,111.96149 L 750.12252,111.88183 L 750.12252,111.42089 C 750.12252,111.10748 750.20372,110.91388 750.37622,110.81601 C 750.71692,110.62272 763.19367,110.62282 764.68517,110.81613 C 768.12096,111.26143 770.67777,112.82972 771.75708,115.15386 C 772.58702,116.94103 772.40674,119.04045 771.26384,120.89781 C 770.70091,121.81264 769.42,123.1618 768.44437,123.86752 C 767.47971,124.56529 765.26586,125.63989 764.05969,125.99584 C 763.46508,126.17131 762.97972,126.34616 762.98111,126.3844 C 762.98251,126.42264 763.3745,126.63911 763.8522,126.86546 C 764.97189,127.39598 765.96939,128.36543 766.43681,129.37739 C 766.97983,130.55303 767.00677,131.60326 766.57942,134.9358 C 766.16186,138.192 766.09384,140.29968 766.38686,140.90232 C 766.86045,141.87634 768.02642,142.14634 769.18699,141.55075 C 770.25552,141.0024 771.37691,139.42313 771.89037,137.74356 C 772.03011,137.28647 772.09973,137.22002 772.40026,137.2569 C 772.70629,137.29445 772.74569,137.357 772.72657,137.77495 C 772.71461,138.03639 772.49063,138.69767 772.22882,139.24447 C 770.94648,141.92271 769.02524,142.99528 766.39246,142.50273 z M 761.42093,125.60885 C 764.06749,125.07944 765.99802,123.78362 767.28498,121.67278 C 768.43937,119.77937 768.94458,116.72997 768.37035,115.12158 C 767.99941,114.08259 767.47207,113.4471 766.54714,112.9245 C 765.16852,112.14554 764.33286,112.01013 760.84857,112.00109 L 757.73681,111.99302 L 757.39784,112.35193 C 757.10459,112.66242 756.84959,113.59545 755.50717,119.26952 L 753.95547,125.82821 L 757.13991,125.82821 C 759.48927,125.82821 760.6119,125.77069 761.42093,125.60885 z"
       id="path7826" />
  </g>
</svg>
