<?xml version="1.0" encoding="UTF-8" standalone="no"?>
<!-- Created with Inkscape (http://www.inkscape.org/) -->

<svg
   xmlns:dc="http://purl.org/dc/elements/1.1/"
   xmlns:cc="http://creativecommons.org/ns#"
   xmlns:rdf="http://www.w3.org/1999/02/22-rdf-syntax-ns#"
   xmlns:svg="http://www.w3.org/2000/svg"
   xmlns="http://www.w3.org/2000/svg"
   xmlns:sodipodi="http://sodipodi.sourceforge.net/DTD/sodipodi-0.dtd"
   xmlns:inkscape="http://www.inkscape.org/namespaces/inkscape"
   width="140mm"
   height="85mm"
   id="svg6726"
   sodipodi:version="0.32"
   inkscape:version="0.48.4 r9939"
   sodipodi:docname="TIA.svg"
   inkscape:output_extension="org.inkscape.output.svg.inkscape"
   version="1.0">
  <defs
     id="defs6728">
    <marker
       inkscape:stockid="Arrow1Mend"
       orient="auto"
       refY="0"
       refX="0"
       id="Arrow1Mend"
       style="overflow:visible">
      <path
         id="path3511"
         d="M 0,0 L 5,-5 L -12.5,0 L 5,5 L 0,0 z"
         style="fill-rule:evenodd;stroke:#000000;stroke-width:1pt;marker-start:none"
         transform="matrix(-0.4,0,0,-0.4,-4,0)" />
    </marker>
    <marker
       inkscape:stockid="Arrow1Lend"
       orient="auto"
       refY="0"
       refX="0"
       id="Arrow1Lend"
       style="overflow:visible">
      <path
         id="path3505"
         d="M 0,0 L 5,-5 L -12.5,0 L 5,5 L 0,0 z"
         style="fill-rule:evenodd;stroke:#000000;stroke-width:1pt;marker-start:none"
         transform="matrix(-0.8,0,0,-0.8,-10,0)" />
    </marker>
    <inkscape:perspective
       sodipodi:type="inkscape:persp3d"
       inkscape:vp_x="0 : 526.18109 : 1"
       inkscape:vp_y="0 : 1000 : 0"
       inkscape:vp_z="744.09448 : 526.18109 : 1"
       inkscape:persp3d-origin="372.04724 : 350.78739 : 1"
       id="perspective6734" />
  </defs>
  <sodipodi:namedview
     id="base"
     pagecolor="#ffffff"
     bordercolor="#666666"
     borderopacity="1.0"
     inkscape:pageopacity="0.0"
     inkscape:pageshadow="2"
     inkscape:zoom="1.2483251"
     inkscape:cx="254.90525"
     inkscape:cy="130.83121"
     inkscape:document-units="px"
     inkscape:current-layer="layer1"
     showgrid="false"
     inkscape:window-width="911"
     inkscape:window-height="667"
     inkscape:window-x="105"
     inkscape:window-y="24"
     inkscape:window-maximized="0" />
  <metadata
     id="metadata6731">
    <rdf:RDF>
      <cc:Work
         rdf:about="">
        <dc:format>image/svg+xml</dc:format>
        <dc:type
           rdf:resource="http://purl.org/dc/dcmitype/StillImage" />
      </cc:Work>
    </rdf:RDF>
  </metadata>
  <g
     inkscape:label="Calque 1"
     inkscape:groupmode="layer"
     id="layer1">
    <g
       id="g4288"
       transform="translate(45.575444,81.203909)">
      <g
         id="g4283">
        <path
           inkscape:connector-curvature="0"
           style="fill:none;stroke:#000000;stroke-width:2;stroke-linecap:butt;stroke-linejoin:miter;stroke-miterlimit:4;stroke-opacity:1;stroke-dasharray:none"
           d="m 77.258121,38.376235 c 0,153.457915 0,155.679975 0,155.679975"
           id="path2701"
           sodipodi:nodetypes="cc" />
        <path
           inkscape:connector-curvature="0"
           style="fill:#000000;fill-opacity:1;fill-rule:evenodd;stroke:#000000;stroke-width:1px;stroke-linecap:butt;stroke-linejoin:miter;stroke-opacity:1"
           d="m 77.426391,101.51603 -21.166608,31.74991 41.996677,0 -20.830069,-31.74991 z"
           id="path2703"
           sodipodi:nodetypes="cccc" />
        <path
           inkscape:connector-curvature="0"
           style="fill:none;stroke:#000000;stroke-width:3;stroke-linecap:butt;stroke-linejoin:miter;stroke-miterlimit:4;stroke-opacity:1;stroke-dasharray:none"
           d="m 52.917755,101.13964 c -0.402963,0.33654 48.683195,-0.0886 48.683195,-0.0886"
           id="path2705"
           sodipodi:nodetypes="cc" />
      </g>
      <g
         transform="translate(5.3403619,-23.734942)"
         id="g4279">
        <path
           sodipodi:nodetypes="cc"
           inkscape:connector-curvature="0"
           style="fill:none;stroke:#000000;stroke-width:2;stroke-linecap:butt;stroke-linejoin:miter;stroke-miterlimit:4;stroke-opacity:1;stroke-dasharray:none;marker-end:url(#Arrow1Mend)"
           d="m 21.072429,118.8109 20.768074,13.64759"
           id="path3497" />
        <path
           sodipodi:nodetypes="cc"
           inkscape:connector-curvature="0"
           style="fill:none;stroke:#000000;stroke-width:2;stroke-linecap:butt;stroke-linejoin:miter;stroke-miterlimit:4;stroke-opacity:1;stroke-dasharray:none;marker-end:url(#Arrow1Mend)"
           d="m 21.072429,136.78432 20.768074,13.64759"
           id="path4277" />
      </g>
    </g>
    <path
       inkscape:connector-curvature="0"
       style="fill:#000000"
       d="m 42.090564,208.57329 0,-0.40371 0.67521,-0.0447 c 1.12572,-0.0744 1.03169,0.61173 1.03169,-7.52819 0,-8.1231 0.09488,-7.42673 -1.02472,-7.52049 l -0.68218,-0.0571 0,-0.41771 0,-0.41771 1.30388,-0.0702 c 0.71713,-0.0386 1.48523,-0.0967 1.70689,-0.12916 l 0.40302,-0.059 0,0.78378 c 0,0.43107 0.02047,0.78377 0.04549,0.78377 0.02502,0 0.27038,-0.20018 0.54525,-0.44486 2.32995,-2.074 5.932172,-1.04146 7.368102,2.11201 0.59833,1.314 0.75603,3.17563 0.38736,4.57276 -1.00149,3.79536 -5.35139,5.55287 -7.890212,3.18793 -0.19252,-0.17934 -0.37388,-0.32607 -0.40302,-0.32607 -0.10414,0 -0.05454,4.62348 0.05349,4.98623 0.12971,0.43553 0.38707,0.56362 1.13246,0.56362 l 0.5628,0 0,0.41624 0,0.41624 -2.60776,0 -2.60775,0 0,-0.40371 z m 7.761792,-5.70289 c 1.43858,-0.91649 2.26813,-2.90875 2.17119,-5.2144 -0.10167,-2.41823 -1.12809,-4.25111 -2.67532,-4.77732 -0.48706,-0.16564 -0.65077,-0.17398 -1.178912,-0.0601 -0.86887,0.1874 -1.5414,0.61099 -2.14387,1.35031 l -0.52109,0.63947 0,3.01614 c 0,3.45603 -0.0054,3.42702 0.81745,4.39018 0.68097,0.7971 1.26624,1.05867 2.265612,1.01256 0.62391,-0.0288 0.85013,-0.0926 1.26494,-0.35687 z m -15.585052,1.09689 c -1.84755,-0.33284 -3.3562,-1.58428 -4.13896,-3.43332 -0.40115,-0.94758 -0.41335,-1.00827 -0.44618,-2.21897 -0.02523,-0.92996 0.0065,-1.40936 0.12556,-1.89569 0.48231,-1.97069 1.85592,-3.61383 3.56349,-4.26273 0.89482,-0.34006 2.29823,-0.36809 3.17195,-0.0634 2.58692,0.90219 4.26122,3.88408 3.85346,6.86296 -0.30882,2.25618 -1.84153,4.19135 -3.80676,4.80636 -0.55773,0.17454 -1.85531,0.28893 -2.32256,0.20476 z m 2.0438,-1.03165 c 0.86701,-0.38561 1.43574,-1.08904 1.80821,-2.23648 0.41196,-1.26903 0.40161,-4.38164 -0.01899,-5.71387 -0.14991,-0.47484 -0.35758,-0.83459 -0.7405,-1.28282 -0.67587,-0.79111 -1.32749,-1.09754 -2.33389,-1.09754 -0.93248,0 -1.60169,0.29706 -2.26305,1.00458 -0.8913,0.95351 -1.1487,2.05324 -1.08084,4.61793 0.05581,2.10953 0.24208,2.85997 0.92792,3.73836 0.93656,1.19946 2.35132,1.57019 3.70114,0.96984 z m 23.496842,0.95474 c -1.13865,-0.30046 -1.93542,-1.21388 -2.15005,-2.46483 -0.07143,-0.41634 -0.11047,-2.01014 -0.11047,-4.51024 l 0,-3.86639 -1.0431,0 -1.0431,0 0,-0.3734 c 0,-0.36041 0.0154,-0.37587 0.44275,-0.44444 0.83715,-0.13431 1.59092,-0.85008 2.07655,-1.97183 0.29978,-0.69244 0.61,-2.07699 0.61,-2.72244 0,-0.47656 0.0036,-0.48173 0.3319,-0.48173 l 0.33189,0 0,2.55293 0,2.55293 1.75431,0 1.75431,0 0,0.44399 0,0.44399 -1.75955,0 -1.75953,0 0.03431,4.19014 c 0.03714,4.53726 0.05866,4.74563 0.55895,5.41259 0.80327,1.07089 2.10669,0.54419 2.50709,-1.0131 0.07646,-0.2974 0.13424,-0.99228 0.13424,-1.61445 l 0,-1.09234 0.34311,0 0.34311,0 -0.04042,1.41521 c -0.04395,1.53904 -0.17481,2.06612 -0.69014,2.7798 -0.55293,0.76576 -1.53539,1.05143 -2.62616,0.76361 z M 8.711314,197.6183 c -0.13596,-0.0531 -0.1172,-0.74758 0.02373,-0.87799 0.06519,-0.0603 0.58774,-0.14374 1.16121,-0.18535 1.88571,-0.13683 2.11684,-0.29588 2.45956,-1.69244 0.11744,-0.47856 1.27328,-5.84002 2.56852,-11.91434 1.63815,-7.68243 2.33571,-11.1334 2.29163,-11.33721 -0.03484,-0.16115 -0.1384,-0.33084 -0.23012,-0.37709 -0.09172,-0.0463 -0.72151,-0.13918 -1.39952,-0.20649 l -1.23276,-0.12239 -0.0247,-0.33299 c -0.05255,-0.70832 -0.47139,-0.66599 6.58808,-0.66599 7.3052,0 7.20608,-0.0101 8.82504,0.90056 1.15945,0.6522 1.92568,1.5153 2.44751,2.75694 l 0.37092,0.88257 -0.001,1.50387 c -9.4e-4,1.37274 -0.02281,1.56463 -0.25086,2.20079 -0.40424,1.12769 -0.84043,1.89185 -1.59725,2.79826 -1.46502,1.75459 -3.25216,2.88596 -5.54821,3.5124 -0.52263,0.14259 -1.43484,0.19542 -4.30893,0.24954 l -3.64594,0.0687 -1.17088,5.49436 c -1.24991,5.8653 -1.25115,5.87536 -0.74711,6.09967 0.12527,0.0558 0.74357,0.13668 1.37399,0.17984 0.96639,0.0662 1.15438,0.10856 1.19822,0.27024 0.05709,0.21055 -0.09425,0.77174 -0.21126,0.78335 -0.2969,0.0295 -8.86552,0.0402 -8.93985,0.0112 z m 15.46087,-14.04659 c 1.99861,-0.53625 3.35746,-1.54953 4.25306,-3.17148 0.6889,-1.24761 1.22632,-3.28016 1.3112,-4.95903 0.06672,-1.3199 -0.11802,-2.05462 -0.71062,-2.82613 -0.96573,-1.25728 -1.83877,-1.54051 -5.00682,-1.62427 -1.25555,-0.0332 -2.56951,-0.0244 -2.91993,0.0195 -1.11088,0.13925 -0.95344,-0.28996 -2.43797,6.64652 -0.71321,3.33251 -1.27009,6.09183 -1.23749,6.13184 0.03259,0.04 1.42476,0.045 3.09373,0.0111 2.19444,-0.0446 3.20621,-0.10769 3.65484,-0.22807 z"
       id="path5390" />
    <path
       inkscape:connector-curvature="0"
       style="fill:none;stroke:#000000;stroke-width:2;stroke-linecap:butt;stroke-linejoin:miter;stroke-miterlimit:4;stroke-opacity:1;stroke-dasharray:none"
       d="m 226.02133,119.65141 -0.009,-56.753226 48.43267,-0.512169 10.12699,-9.10087 10.63916,14.22258 10.63916,-14.22258 10.63916,14.22258 10.63916,-14.22258 10.63916,14.22258 10.63916,-14.22258 8.59048,10.12521 24.40903,0"
       id="path5465"
       sodipodi:nodetypes="cccccccccccc" />
    <path
       inkscape:connector-curvature="0"
       style="fill:#000000"
       d="m 318.41115,43.95835 c -0.033,-0.09113 -0.0396,-0.27884 -0.0147,-0.41714 0.0383,-0.21295 0.22585,-0.2637 1.22436,-0.33142 1.37597,-0.09331 1.69858,-0.24006 1.88527,-0.85754 0.0753,-0.24913 1.02885,-4.23853 2.11896,-8.86532 1.36603,-5.79793 1.94416,-8.47718 1.86021,-8.62093 -0.0854,-0.14622 -0.44066,-0.23085 -1.18846,-0.28308 -1.15026,-0.08036 -1.48825,-0.25865 -1.24988,-0.65931 0.13192,-0.22174 0.73776,-0.24217 8.16575,-0.27534 7.05786,-0.03152 8.0324,-0.01055 8.0993,0.17429 0.0418,0.11556 -0.0562,1.57083 -0.21782,3.23391 -0.3064,3.15268 -0.42478,3.59211 -0.88467,3.2842 -0.19866,-0.13301 -0.22127,-0.35325 -0.18065,-1.75935 0.0673,-2.32852 -0.20512,-3.02303 -1.42365,-3.62992 -0.55011,-0.27398 -0.84503,-0.29697 -4.33782,-0.33809 -3.21244,-0.03782 -3.77099,-0.01422 -3.91149,0.16525 -0.13305,0.16995 -2.10109,8.07595 -2.11006,8.47652 -10e-4,0.06367 1.01557,0.09496 2.25998,0.06952 1.98699,-0.04061 2.32649,-0.08159 2.78724,-0.33643 0.66263,-0.36651 1.04992,-0.96938 1.39385,-2.16976 0.23451,-0.81848 0.31289,-0.94671 0.57864,-0.94671 0.16907,0 0.34273,0.06061 0.38592,0.13468 0.11438,0.1962 -1.62435,7.60677 -1.82649,7.78462 -0.25053,0.22041 -0.5975,0.02464 -0.5975,-0.33713 0,-0.17257 0.0597,-0.64761 0.13272,-1.05565 0.1662,-0.92907 -0.003,-1.54619 -0.49722,-1.80852 -0.24651,-0.13098 -1.05429,-0.20534 -2.61154,-0.24042 l -2.25464,-0.05078 -0.13263,0.53278 c -0.0729,0.29303 -0.52207,2.18564 -0.99805,4.2058 -0.76151,3.23201 -0.84227,3.69757 -0.67256,3.87747 0.13401,0.14207 0.6262,0.2305 1.61313,0.28983 l 1.42029,0.08537 0,0.40998 0,0.40998 -4.37787,0.0072 c -3.27212,0.0053 -4.39303,-0.03468 -4.43788,-0.15852 z m -8.1644,-5.89401 c -1.54801,-0.28961 -2.884,-1.25838 -3.5199,-2.55241 -0.30083,-0.61217 -0.34529,-0.86738 -0.34066,-1.95548 0.004,-1.01956 0.11893,-1.72629 0.6185,-3.8144 0.33725,-1.40964 0.61318,-2.88456 0.61318,-3.2776 0,-2.11398 -1.42418,-3.70429 -3.67259,-4.10099 -0.48277,-0.08518 -2.04378,-0.13294 -3.59892,-0.11013 l -2.74634,0.0403 -1.47986,6.25712 c -0.81392,3.44142 -1.48158,6.42775 -1.48369,6.6363 -0.006,0.61408 0.42618,0.80086 2.11254,0.91256 1.46528,0.09706 1.49121,0.10465 1.52461,0.44635 0.0735,0.75203 0.22887,0.73185 -5.64235,0.73315 -2.99218,6.7e-4 -5.50715,-0.04256 -5.58882,-0.09608 -0.19924,-0.13053 -0.18908,-0.70808 0.0155,-0.87935 0.0902,-0.07551 0.7915,-0.1731 1.55849,-0.21687 1.46099,-0.08338 2.11519,-0.28193 2.52119,-0.76519 0.30266,-0.36025 6.55995,-26.7614799 6.43867,-27.1665399 -0.11927,-0.3984 -0.6216,-0.5433998 -2.18943,-0.6319798 l -1.41001,-0.07966 0,-0.46094 c 0,-0.31341 0.0812,-0.50701 0.2537,-0.60488 0.3407,-0.19329 12.81745,-0.19319 14.30895,1.2e-4 3.43579,0.4453 5.9926,2.0135898 7.07191,4.3377297 0.82994,1.78717 0.64966,3.88659 -0.49324,5.74395 -0.56293,0.91483 -1.84384,2.26399 -2.81947,2.96971 -0.96466,0.69777 -3.17851,1.77237 -4.38468,2.12832 -0.59461,0.17547 -1.07997,0.35032 -1.07858,0.38856 0.001,0.03824 0.39339,0.25471 0.87109,0.48106 1.11969,0.53052 2.11719,1.49997 2.58461,2.51193 0.54302,1.17564 0.56996,2.22587 0.14261,5.55841 -0.41756,3.2562 -0.48558,5.36388 -0.19256,5.96652 0.47359,0.97402 1.63956,1.24402 2.80013,0.64843 1.06853,-0.54835 2.18992,-2.12762 2.70338,-3.80719 0.13974,-0.45709 0.20936,-0.52354 0.50989,-0.48666 0.30603,0.03755 0.34543,0.1001 0.32631,0.51805 -0.012,0.26144 -0.23594,0.92272 -0.49775,1.46952 -1.28234,2.67824 -3.20358,3.75081 -5.83636,3.25826 z m -4.97153,-16.89388 c 2.64656,-0.52941 4.57709,-1.82523 5.86405,-3.93607 1.15439,-1.89341 1.6596,-4.94281 1.08537,-6.5512 -0.37094,-1.0389899 -0.89828,-1.6744799 -1.82321,-2.1970799 -1.37862,-0.77896 -2.21428,-0.9143698 -5.69857,-0.9234098 l -3.11176,-0.00807 -0.33897,0.3589098 c -0.29325,0.31049 -0.54825,1.24352 -1.89067,6.9175899 l -1.5517,6.55869 3.18444,0 c 2.34936,0 3.47199,-0.05752 4.28102,-0.21936 z"
       id="path6035" />
    <path
       inkscape:connector-curvature="0"
       style="fill:#000000;fill-opacity:1;fill-rule:evenodd;stroke:#000000;stroke-width:1px;stroke-linecap:butt;stroke-linejoin:miter;stroke-opacity:1"
       d="m 150.36602,114.5147 14.70426,4.90142 -14.47086,5.36822 -0.2334,-10.26964 z"
       id="path5407"
       sodipodi:nodetypes="cccc" />
    <path
       inkscape:connector-curvature="0"
       style="fill:#000000"
       d="m 93.256184,111.32879 c 0,-0.13446 0.27157,-0.27351 0.60348,-0.30902 l 0.60349,-0.0645 0,-5.56232 0,-5.562311 -0.60349,-0.06456 c -0.37381,-0.03999 -0.60348,-0.177201 -0.60348,-0.360522 0,-0.220866 0.2553,-0.295966 1.00611,-0.295966 0.55334,0 1.13826,-0.05627 1.29982,-0.125047 0.22983,-0.09784 0.29372,0.01723 0.29372,0.52906 l 0,0.654096 0.51235,-0.404747 c 1.93529,-1.528866 4.640566,-0.723752 5.708996,1.699057 0.43713,0.99122 0.49226,1.309 0.38412,2.21352 -0.25615,2.14224 -1.40944,3.59321 -3.244176,4.08152 -1.05011,0.27949 -2.09392,0.051 -2.87283,-0.62865 l -0.48846,-0.42629 0,1.93087 c 0,2.10807 0.12629,2.42528 0.96558,2.42528 0.29216,0 0.51994,0.11282 0.51994,0.25752 0,0.1904 -0.53231,0.25751 -2.0426,0.25751 -1.45209,0 -2.04257,-0.0707 -2.04257,-0.24446 z m 5.837,-4.18174 c 1.860836,-1.00801 2.440946,-4.09322 1.191406,-6.33627 -0.836276,-1.501232 -2.619546,-1.71179 -3.794746,-0.44808 l -0.63401,0.68178 0,2.33596 c 0,2.69735 0.17613,3.17915 1.38489,3.78829 0.93828,0.47285 0.93958,0.47284 1.85246,-0.0217 z m 97.592026,4.18174 c 0,-0.13446 0.27158,-0.27351 0.60349,-0.30902 l 0.60348,-0.0645 0,-5.56232 0,-5.562311 -0.60348,-0.06456 c -0.37382,-0.03999 -0.60349,-0.177201 -0.60349,-0.360522 0,-0.220866 0.2553,-0.295966 1.00609,-0.295966 0.55338,0 1.1383,-0.05627 1.29984,-0.125047 0.22983,-0.09784 0.29372,0.01723 0.29372,0.52906 l 0,0.654096 0.51235,-0.404747 c 1.9353,-1.528866 4.64057,-0.723752 5.709,1.699057 0.43714,0.99122 0.49228,1.309 0.38414,2.21352 -0.25617,2.14224 -1.40945,3.59321 -3.2442,4.08152 -1.05012,0.27949 -2.09393,0.051 -2.87281,-0.62865 l -0.48848,-0.42629 0,1.93087 c 0,2.10807 0.12629,2.42528 0.96558,2.42528 0.29216,0 0.51994,0.11282 0.51994,0.25752 0,0.1904 -0.53231,0.25751 -2.04258,0.25751 -1.45211,0 -2.04259,-0.0707 -2.04259,-0.24446 z m 5.837,-4.18174 c 1.86084,-1.00801 2.44095,-4.09322 1.19141,-6.33627 -0.83628,-1.501232 -2.61953,-1.71179 -3.79474,-0.44808 l -0.63402,0.68178 0,2.33596 c 0,2.69735 0.17614,3.17915 1.38489,3.78829 0.93828,0.47285 0.93959,0.47284 1.85246,-0.0217 z m -12.33613,0.63031 c -0.97169,-0.2208 -1.75843,-0.74322 -2.38085,-1.58098 -2.12784,-2.86396 -0.13799,-7.182971 3.30929,-7.182971 3.44846,0 5.4371,4.319081 3.30805,7.184661 -0.95864,1.29029 -2.68165,1.9326 -4.23649,1.57929 z m 2.37871,-0.84465 c 0.87355,-0.59088 1.22096,-1.6198 1.22093,-3.61598 -5e-5,-2.59541 -0.88185,-3.874401 -2.6712,-3.874401 -1.06934,0 -1.73893,0.445256 -2.32017,1.542851 -0.47693,0.90062 -0.50376,3.6047 -0.0473,4.76373 0.39102,0.9928 1.28908,1.59956 2.36743,1.59956 0.51127,0 1.07418,-0.16138 1.45027,-0.41576 z m 17.69314,0.76619 c -1.23933,-0.48178 -1.40226,-1.0006 -1.4728,-4.6897 l -0.0627,-3.281623 -0.81929,0 c -1.0142,0 -1.042,-0.223716 -0.0859,-0.691693 0.88104,-0.43126 1.45269,-1.381169 1.61325,-2.680762 0.0747,-0.604334 0.21064,-0.953792 0.37114,-0.953792 0.19517,0 0.25329,0.425467 0.25329,1.854112 l 0,1.854102 1.39267,0 c 1.11414,0 1.39266,0.06181 1.39266,0.309022 0,0.247448 -0.27992,0.309011 -1.40517,0.309011 l -1.40515,0 0.0589,3.378173 c 0.052,2.97767 0.10086,3.42954 0.41267,3.81122 0.89503,1.09569 2.15307,0.12876 2.15307,-1.65486 0,-0.79142 0.064,-1.00227 0.30439,-1.00227 0.2557,0 0.287,0.163 0.19562,1.01898 -0.14879,1.39374 -0.55645,2.18691 -1.26484,2.46088 -0.71295,0.27574 -0.82468,0.27295 -1.63175,-0.0408 z m -106.23177,-0.29739 c 0,-0.1481 0.2339,-0.2575 0.55054,-0.2575 0.36218,0 0.61915,-0.14228 0.75113,-0.41586 0.13375,-0.27725 0.18234,-2.30534 0.14581,-6.08508 -0.0589,-6.09249 -0.0526,-6.055252 -1.02968,-6.062628 -0.24633,-0.0018 -0.4178,-0.129982 -0.4178,-0.312169 0,-0.236659 0.23558,-0.309021 1.00611,-0.309021 0.55335,0 1.13827,-0.05626 1.29982,-0.125038 0.26063,-0.110959 0.29372,0.262988 0.29372,3.317523 l 0,3.442573 0.64748,-0.630706 c 0.77895,-0.758783 1.89361,-1.127611 2.83696,-0.938712 1.70144,0.340702 1.90055,0.829807 1.90055,4.668488 0,3.19662 0.0711,3.45063 0.96558,3.45063 0.29211,0 0.51999,0.11283 0.52004,0.2575 8e-5,0.19042 -0.53214,0.25752 -2.04238,0.25752 -1.45193,0 -2.04254,-0.0707 -2.04269,-0.24446 -1e-4,-0.13446 0.27137,-0.27351 0.6033,-0.30902 l 0.60349,-0.0645 0.0509,-3.31875 c 0.0463,-3.01733 0.0184,-3.3632 -0.3064,-3.808264 -0.45184,-0.619066 -1.67565,-0.642083 -2.3964,-0.04508 -1.09575,0.907635 -1.24261,1.351525 -1.3129,3.968365 -0.075,2.79231 0.0662,3.30673 0.90745,3.30673 0.31662,0 0.55053,0.1094 0.55053,0.2575 0,0.1904 -0.53231,0.25752 -2.04258,0.25752 -1.51027,0 -2.04259,-0.0671 -2.04259,-0.25752 z m 48.46082,-3.7082 c -0.002,-0.085 0.35045,-1.75368 0.78382,-3.708211 0.85955,-3.87671 1.31209,-4.695525 1.13157,-2.047413 -0.13082,1.919107 0.29319,3.117774 1.42443,4.026944 2.02605,1.62827 4.9194,1.30986 6.73309,-0.74098 1.5305,-1.730607 2.05076,-3.967881 1.30441,-5.60929 -0.43368,-0.953802 -1.04329,-1.306049 -3.57423,-2.065272 -3.42099,-1.026225 -4.27256,-1.95987 -4.26904,-4.680405 0.004,-3.238438 2.32242,-6.03113 5.56114,-6.699356 1.83543,-0.378687 3.78849,0.338495 4.50889,1.655711 l 0.27366,0.500363 0.81573,-1.145909 c 0.44865,-0.630252 0.87841,-1.151079 0.955,-1.157402 0.25207,-0.02081 0.1468,0.803255 -0.42772,3.348232 -0.90181,3.994699 -0.91993,4.056681 -1.18661,4.056681 -0.19731,0 -0.23151,-0.272285 -0.15373,-1.223931 0.26047,-3.18701 -1.24657,-5.351502 -3.73465,-5.363915 -1.25583,-0.0063 -2.15497,0.333296 -3.19761,1.207575 -1.6555,1.388167 -2.354,3.726367 -1.60516,5.373262 0.43283,0.951913 1.04206,1.305171 3.5581,2.063127 2.4815,0.747546 3.00476,1.051899 3.68773,2.144918 0.43329,0.693451 0.51594,1.06042 0.57239,2.541351 0.061,1.600391 0.022,1.82993 -0.51722,3.045147 -1.51857,3.422243 -4.7333,5.215453 -7.79156,4.346223 -1.19059,-0.3384 -2.10564,-0.90052 -2.63222,-1.61701 -0.27898,-0.37961 -0.32298,-0.34918 -1.09028,0.75425 -0.73201,1.05265 -1.11927,1.39378 -1.12993,0.99531 z m -70.514026,-0.87556 c 0.0377,-0.2191 0.39398,-0.34523 1.22436,-0.43347 0.64645,-0.0687 1.29392,-0.26063 1.44514,-0.42841 0.27428,-0.30429 4.15718,-16.922134 4.15718,-17.791682 0,-0.564408 -0.31308,-0.711523 -1.51432,-0.711523 -0.77762,0 -0.91695,-0.05721 -0.86519,-0.355312 0.0559,-0.321895 0.40649,-0.355813 3.72739,-0.360523 3.36916,-0.0047 3.66573,0.02396 3.66573,0.355313 2e-5,0.298765 -0.17143,0.360522 -1.00071,0.360522 -1.74804,0 -1.59888,-0.371689 -3.85412,9.603426 -1.3209,5.842415 -1.93495,8.903569 -1.81312,9.038739 0.10132,0.1124 0.66122,0.25152 1.24423,0.30914 0.76348,0.0755 1.06003,0.18909 1.06003,0.40615 0,0.25435 -0.58763,0.30257 -3.7649,0.30902 -3.24885,0.006 -3.75759,-0.0347 -3.7117,-0.30139 z m 88.594216,0.15451 c -0.19205,-0.34468 0.1728,-0.52112 1.25764,-0.60817 0.77543,-0.0622 1.21418,-0.20109 1.3667,-0.43252 0.12355,-0.18746 1.13076,-4.294509 2.23826,-9.126779 1.93643,-8.449242 2.00022,-8.7968 1.66463,-9.069033 -0.19192,-0.155696 -0.70899,-0.283093 -1.14906,-0.283093 -0.68648,0 -0.80011,-0.06083 -0.80011,-0.428338 0,-0.425569 0.0352,-0.427908 5.43141,-0.360523 l 5.43143,0.06782 1.08122,0.589019 c 3.22279,1.755668 3.02672,5.977454 -0.39581,8.522605 -1.75338,1.303893 -2.62227,1.537806 -6.24766,1.681875 l -3.14829,0.125109 -0.93438,4.180962 c -1.05076,4.701672 -1.06561,4.565772 0.4997,4.571362 0.71536,0.002 0.88203,0.0713 0.88203,0.36389 0,0.33106 -0.29178,0.36072 -3.54581,0.36053 -1.9502,-1.2e-4 -3.58455,-0.0698 -3.6319,-0.15473 z m 13.13017,-10.535091 c 1.75227,-0.711493 2.84606,-2.248542 3.33453,-4.6858 0.12794,-0.638344 0.17735,-1.487419 0.1098,-1.886855 -0.16153,-0.955242 -1.05949,-1.904263 -2.06855,-2.186151 -1.13757,-0.317808 -4.94676,-0.295077 -5.33419,0.03183 -0.27857,0.235056 -2.17974,8.019729 -2.17974,8.925372 0,0.303935 0.27692,0.329291 2.64608,0.242289 1.81851,-0.06677 2.91066,-0.204591 3.49207,-0.440679 z m -59.37107,6.136561 c -0.0627,-0.1814 0.003,-0.411746 0.14509,-0.511886 0.14255,-0.10013 4.06117,-0.182064 8.70806,-0.182064 4.64687,0 8.56548,0.08193 8.70804,0.182064 0.14254,0.10014 0.20783,0.330486 0.14507,0.511886 -0.10234,0.295935 -1.0115,0.329803 -8.85311,0.329803 -7.84163,0 -8.75079,-0.03387 -8.85315,-0.329803 z m 0,-5.562315 c -0.0627,-0.1814 0.003,-0.411736 0.14509,-0.511876 0.14255,-0.10014 4.06117,-0.182065 8.70806,-0.182065 4.64687,0 8.56548,0.08192 8.70804,0.182065 0.14254,0.10014 0.20783,0.330476 0.14507,0.511876 -0.10234,0.295935 -1.0115,0.329803 -8.85311,0.329803 -7.84163,0 -8.75079,-0.03387 -8.85315,-0.329803 z"
       id="path5405" />
    <path
       sodipodi:nodetypes="cc"
       inkscape:connector-curvature="0"
       style="fill:none;stroke:#000000;stroke-width:1.73800004;stroke-linecap:butt;stroke-linejoin:miter;stroke-miterlimit:4;stroke-opacity:1;stroke-dasharray:none;marker-end:url(#Arrow1Lend)"
       d="m 410.77951,250.19742 0,-100.07017"
       id="path6041" />
    <path
       inkscape:connector-curvature="0"
       style="fill:none;stroke:#000000;stroke-width:2;stroke-linecap:butt;stroke-linejoin:miter;stroke-miterlimit:4;stroke-opacity:1;stroke-dasharray:none"
       d="m 115.86886,275.19088 13.84932,0 -7.2073,12.57744 -6.64202,-12.57744 z"
       id="path6583"
       sodipodi:nodetypes="cccc" />
    <path
       inkscape:connector-curvature="0"
       style="fill:none;stroke:#000000;stroke-width:2;stroke-linecap:butt;stroke-linejoin:miter;stroke-miterlimit:4;stroke-opacity:1;stroke-dasharray:none"
       d="m 216.65545,201.48019 13.84932,0 -7.2073,12.57744 -6.64202,-12.57744 z"
       id="path6585"
       sodipodi:nodetypes="cccc" />
    <path
       inkscape:connector-curvature="0"
       style="fill:#000000"
       d="m 450.01512,227.11163 -3e-5,-0.4002 0.81662,-0.0435 c 0.65253,-0.0348 0.86922,-0.0932 1.07832,-0.29055 l 0.26169,-0.24699 0,-7.03574 0,-7.03573 -0.26169,-0.247 c -0.2091,-0.19735 -0.42579,-0.25575 -1.07832,-0.29054 l -0.81662,-0.0436 0,-0.41803 c 0,-0.48596 -0.0894,-0.46001 2.2732,-0.65995 0.7694,-0.0651 1.51693,-0.14163 1.66119,-0.17005 0.2523,-0.0497 0.2623,-0.0222 0.2623,0.72063 0,0.42476 0.0452,0.77229 0.10054,0.77229 0.0553,0 0.30448,-0.15543 0.55373,-0.34541 0.90936,-0.69308 2.47935,-1.19804 3.70954,-1.19308 0.77351,0.003 2.05544,0.30329 2.83164,0.66304 1.37168,0.63575 2.57292,1.92702 3.16706,3.40446 0.37932,0.94321 0.42134,2.90036 0.0827,3.85267 -0.75321,2.11833 -2.38925,3.60504 -4.6748,4.24813 -0.46269,0.13019 -1.09405,0.19806 -1.8652,0.2005 -1.07296,0.003 -1.22876,-0.0243 -1.95741,-0.34831 -0.43541,-0.1936 -1.02557,-0.53291 -1.31146,-0.75403 l -0.51981,-0.40202 0,2.53173 c 0,3.08626 -0.0375,2.99876 1.31981,3.08097 l 0.89511,0.0542 2e-5,0.39814 3e-5,0.39814 -3.26408,0 -3.26409,0 -3e-5,-0.40019 z m 9.51308,-5.62717 c 1.71983,-0.82899 2.8377,-2.83319 2.84208,-5.09546 0.005,-2.6586 -1.53588,-4.9598 -3.56045,-5.31679 -1.26647,-0.22332 -2.85182,0.33126 -3.87989,1.35726 l -0.60159,0.60037 0,3.28955 0,3.28954 0.47104,0.62087 c 0.49408,0.65122 1.21582,1.19015 1.94935,1.45558 0.68867,0.24919 2.04976,0.15081 2.77946,-0.20092 z m 7.73997,0.34578 -3e-5,-0.4002 0.81663,-0.0435 c 0.65241,-0.0348 0.86925,-0.0932 1.07832,-0.29048 l 0.26168,-0.24692 0.0368,-7.12138 c 0.0202,-3.91677 0.003,-7.43293 -0.0389,-7.81369 -0.10902,-0.99643 -0.36056,-1.23745 -1.37139,-1.31404 l -0.7831,-0.0593 0,-0.42506 c 0,-0.3138 0.0481,-0.42505 0.18395,-0.42505 0.23458,0 2.86329,-0.20442 3.5173,-0.27352 l 0.49544,-0.0523 0.006,4.64661 c 0.006,4.40334 0.0165,4.63222 0.20365,4.37155 1.09446,-1.52397 2.89151,-2.32986 4.80294,-2.15388 1.60778,0.14803 2.63415,0.7479 3.16042,1.84715 0.27352,0.57131 0.2796,0.6552 0.33755,4.65287 0.0325,2.23908 0.10223,4.15425 0.15506,4.25593 0.13284,0.25566 0.6951,0.4203 1.43537,0.4203 l 0.62377,0 0,0.4126 0,0.41261 -3.2641,0 -3.26409,0 0,-0.40019 0,-0.4002 0.81663,-0.0435 c 0.65231,-0.0348 0.86929,-0.0932 1.07832,-0.29041 0.2572,-0.24261 0.26235,-0.30138 0.30012,-3.42713 0.059,-4.88018 -0.13766,-5.99905 -1.1459,-6.52054 -0.59196,-0.30618 -1.85499,-0.22412 -2.72351,0.17695 -0.8223,0.37972 -1.7233,1.30401 -2.07696,2.13063 -0.26289,0.61446 -0.27052,0.72914 -0.27052,4.06671 0,4.03256 -0.0849,3.77567 1.27433,3.858 l 0.88229,0.0534 3e-5,0.39813 2e-5,0.39814 -3.26409,0 -3.26408,0 -3e-5,-0.40019 z m -33.45209,-5.04107 c -0.12928,-0.0772 -0.60749,-3.27763 -1.99718,-13.36634 -1.34031,-9.73025 -1.87732,-13.33708 -2.01532,-13.53587 -0.22668,-0.32653 -0.71353,-0.45951 -2.11255,-0.57705 -1.00341,-0.0843 -1.05066,-0.10015 -1.08326,-0.36332 -0.0187,-0.15134 0.0359,-0.36557 0.12155,-0.47606 0.1465,-0.18909 0.44949,-0.20088 5.16337,-0.20088 2.75426,0 5.07332,0.004 5.15346,0.008 0.19427,0.0112 0.19017,0.71687 -0.005,0.8698 -0.0829,0.065 -0.51571,0.14952 -0.96174,0.18793 -1.20814,0.10402 -1.93469,0.32522 -2.32225,0.70704 l -0.33906,0.33403 1.48713,10.86544 c 0.81793,5.976 1.52577,10.95956 1.57297,11.07459 0.0707,0.17228 0.18966,0.0559 0.67457,-0.66017 5.24189,-7.74024 13.29904,-19.92608 13.45935,-20.35627 0.39793,-1.06786 -0.069,-1.70748 -1.40905,-1.93027 l -0.7034,-0.11694 0,-0.42449 c 0,-0.29576 0.0619,-0.45249 0.20401,-0.51681 0.1122,-0.0508 1.96137,-0.0865 4.10926,-0.0794 l 3.90525,0.0129 0,0.48819 0,0.48818 -0.93259,0.14261 c -1.73466,0.26526 -3.04518,1.07941 -4.19824,2.60811 -0.27387,0.36309 -4.0473,5.98282 -8.3854,12.48827 -4.3381,6.50546 -8.0429,11.96427 -8.2329,12.13069 -0.35136,0.30775 -0.83088,0.38999 -1.15292,0.19772 z"
       id="path6628" />
    <g
       id="g7288"
       transform="translate(-21.476286,-2.3862539)">
      <path
         inkscape:connector-curvature="0"
         sodipodi:nodetypes="cccc"
         id="path6757"
         d="m 278.7802,100.89929 0,90.875 86.55379,-45.4375 -86.55379,-45.4375 z"
         style="fill:none;stroke:#000000;stroke-width:2;stroke-linecap:butt;stroke-linejoin:miter;stroke-miterlimit:4;stroke-opacity:1;stroke-dasharray:none" />
      <text
         sodipodi:linespacing="125%"
         id="text7280"
         y="176.50452"
         x="281.52835"
         style="font-size:28px;font-style:normal;font-variant:normal;font-weight:normal;font-stretch:normal;text-align:start;line-height:125%;writing-mode:lr-tb;text-anchor:start;fill:#000000;fill-opacity:1;stroke:none;font-family:Arial;-inkscape-font-specification:Arial"
         xml:space="preserve"><tspan
           y="176.50452"
           x="281.52835"
           id="tspan7282"
           sodipodi:role="line">+</tspan></text>
      <text
         sodipodi:linespacing="125%"
         id="text7284"
         y="129.74005"
         x="285.03519"
         style="font-size:28px;font-style:normal;font-variant:normal;font-weight:normal;font-stretch:normal;text-align:start;line-height:125%;writing-mode:lr-tb;text-anchor:start;fill:#000000;fill-opacity:1;stroke:none;font-family:Arial;-inkscape-font-specification:Arial"
         xml:space="preserve"><tspan
           y="129.74005"
           x="285.03519"
           id="tspan7286"
           sodipodi:role="line">-</tspan></text>
    </g>
    <path
       inkscape:connector-curvature="0"
       style="fill:none;stroke:#000000;stroke-width:2;stroke-linecap:butt;stroke-linejoin:miter;stroke-miterlimit:4;stroke-opacity:1;stroke-dasharray:none"
       d="m 256.34572,119.70783 c -132.61887,0 -132.61887,0 -132.61887,0"
       id="path7315" />
    <path
       inkscape:connector-curvature="0"
       style="fill:none;stroke:#000000;stroke-width:2;stroke-linecap:butt;stroke-linejoin:miter;stroke-miterlimit:4;stroke-opacity:1;stroke-dasharray:none"
       d="m 344.43562,143.90835 c 86.15386,0 86.15386,0 86.15386,0"
       id="path7317" />
    <path
       inkscape:connector-curvature="0"
       style="fill:none;stroke:#000000;stroke-width:2;stroke-linecap:butt;stroke-linejoin:miter;stroke-miterlimit:4;stroke-opacity:1;stroke-dasharray:none"
       d="m 381.22041,62.594587 0,80.345743"
       id="path7319" />
    <path
       inkscape:connector-curvature="0"
       style="fill:none;stroke:#000000;stroke-width:2;stroke-linecap:butt;stroke-linejoin:miter;stroke-miterlimit:4;stroke-opacity:1;stroke-dasharray:none"
       d="m 256.70562,164.23679 -33.27262,0 0,37.75281"
       id="path7321"
       sodipodi:nodetypes="ccc" />
  </g>
</svg>
